%TF.GenerationSoftware,KiCad,Pcbnew,(6.0.6)*%
%TF.CreationDate,2022-06-26T20:30:04-07:00*%
%TF.ProjectId,led_controller-rounded,6c65645f-636f-46e7-9472-6f6c6c65722d,rev?*%
%TF.SameCoordinates,Original*%
%TF.FileFunction,Soldermask,Top*%
%TF.FilePolarity,Negative*%
%FSLAX46Y46*%
G04 Gerber Fmt 4.6, Leading zero omitted, Abs format (unit mm)*
G04 Created by KiCad (PCBNEW (6.0.6)) date 2022-06-26 20:30:04*
%MOMM*%
%LPD*%
G01*
G04 APERTURE LIST*
G04 Aperture macros list*
%AMRoundRect*
0 Rectangle with rounded corners*
0 $1 Rounding radius*
0 $2 $3 $4 $5 $6 $7 $8 $9 X,Y pos of 4 corners*
0 Add a 4 corners polygon primitive as box body*
4,1,4,$2,$3,$4,$5,$6,$7,$8,$9,$2,$3,0*
0 Add four circle primitives for the rounded corners*
1,1,$1+$1,$2,$3*
1,1,$1+$1,$4,$5*
1,1,$1+$1,$6,$7*
1,1,$1+$1,$8,$9*
0 Add four rect primitives between the rounded corners*
20,1,$1+$1,$2,$3,$4,$5,0*
20,1,$1+$1,$4,$5,$6,$7,0*
20,1,$1+$1,$6,$7,$8,$9,0*
20,1,$1+$1,$8,$9,$2,$3,0*%
G04 Aperture macros list end*
%ADD10RoundRect,0.250000X0.450000X-0.350000X0.450000X0.350000X-0.450000X0.350000X-0.450000X-0.350000X0*%
%ADD11RoundRect,0.250000X-0.350000X-0.625000X0.350000X-0.625000X0.350000X0.625000X-0.350000X0.625000X0*%
%ADD12O,1.200000X1.750000*%
%ADD13RoundRect,0.250000X-0.350000X-0.450000X0.350000X-0.450000X0.350000X0.450000X-0.350000X0.450000X0*%
%ADD14R,2.500000X2.500000*%
%ADD15C,2.500000*%
%ADD16RoundRect,0.250000X0.475000X-0.337500X0.475000X0.337500X-0.475000X0.337500X-0.475000X-0.337500X0*%
%ADD17RoundRect,0.250000X0.350000X0.450000X-0.350000X0.450000X-0.350000X-0.450000X0.350000X-0.450000X0*%
%ADD18C,4.500000*%
%ADD19RoundRect,0.250000X-0.337500X-0.475000X0.337500X-0.475000X0.337500X0.475000X-0.337500X0.475000X0*%
%ADD20C,2.540000*%
%ADD21C,1.700000*%
%ADD22O,1.700000X1.700000*%
%ADD23RoundRect,0.250000X-0.450000X0.350000X-0.450000X-0.350000X0.450000X-0.350000X0.450000X0.350000X0*%
%ADD24R,2.000000X2.000000*%
%ADD25C,2.000000*%
%ADD26R,3.200000X2.000000*%
%ADD27C,1.600000*%
%ADD28R,1.378000X1.378000*%
%ADD29C,1.378000*%
%ADD30RoundRect,0.250000X-0.475000X0.337500X-0.475000X-0.337500X0.475000X-0.337500X0.475000X0.337500X0*%
%ADD31R,2.200000X2.800000*%
%ADD32R,2.800000X2.800000*%
%ADD33R,2.600000X2.800000*%
G04 APERTURE END LIST*
D10*
X161394500Y-116062000D03*
X161394500Y-114062000D03*
D11*
X127858810Y-126926000D03*
D12*
X129858810Y-126926000D03*
X131858810Y-126926000D03*
D13*
X169688000Y-113792000D03*
X171688000Y-113792000D03*
D14*
X93730000Y-118900000D03*
D15*
X93730000Y-122400000D03*
D11*
X100284922Y-126926000D03*
D12*
X102284922Y-126926000D03*
X104284922Y-126926000D03*
D16*
X127254000Y-117623500D03*
X127254000Y-115548500D03*
D17*
X157568500Y-114046000D03*
X155568500Y-114046000D03*
D18*
X176022000Y-90170000D03*
D11*
X164624000Y-126926000D03*
D12*
X166624000Y-126926000D03*
X168624000Y-126926000D03*
D18*
X93218000Y-130302000D03*
D19*
X155531000Y-111618000D03*
X157606000Y-111618000D03*
D20*
X131318000Y-89662000D03*
X131318000Y-122682000D03*
X100838000Y-122682000D03*
X100838000Y-89662000D03*
D21*
X131318000Y-118872000D03*
D22*
X131318000Y-116332000D03*
X131318000Y-113792000D03*
X131318000Y-111252000D03*
X131318000Y-108712000D03*
X131318000Y-106172000D03*
X131318000Y-103632000D03*
X131318000Y-101092000D03*
X131318000Y-98552000D03*
X131318000Y-96012000D03*
X131318000Y-93472000D03*
D18*
X93218000Y-90170000D03*
D11*
X137050106Y-126926000D03*
D12*
X139050106Y-126926000D03*
X141050106Y-126926000D03*
D23*
X155448000Y-107204000D03*
X155448000Y-109204000D03*
D11*
X146241402Y-126926000D03*
D12*
X148241402Y-126926000D03*
X150241402Y-126926000D03*
D11*
X109476218Y-126926000D03*
D12*
X111476218Y-126926000D03*
X113476218Y-126926000D03*
D19*
X155531000Y-118984000D03*
X157606000Y-118984000D03*
D24*
X169810000Y-97115000D03*
D25*
X169810000Y-92115000D03*
X169810000Y-94615000D03*
D26*
X162310000Y-100215000D03*
X162310000Y-89015000D03*
D25*
X155310000Y-92115000D03*
X155310000Y-97115000D03*
D27*
X136906000Y-88392000D03*
X136906000Y-90932000D03*
X136906000Y-93472000D03*
X136906000Y-96012000D03*
X136906000Y-98552000D03*
X136906000Y-101092000D03*
X136906000Y-103632000D03*
X136906000Y-106172000D03*
X136906000Y-108712000D03*
X136906000Y-111252000D03*
X136906000Y-113792000D03*
X136906000Y-116332000D03*
X136906000Y-118872000D03*
X136906000Y-121412000D03*
X152146000Y-121412000D03*
X152146000Y-118872000D03*
X152146000Y-116332000D03*
X152146000Y-113792000D03*
X152146000Y-111252000D03*
X152146000Y-108712000D03*
X152146000Y-106172000D03*
X152146000Y-103632000D03*
X152146000Y-101092000D03*
X152146000Y-98552000D03*
X152146000Y-96012000D03*
X152146000Y-93472000D03*
X152146000Y-90932000D03*
X152146000Y-88392000D03*
D28*
X170212000Y-105918000D03*
D29*
X170212000Y-108458000D03*
D16*
X160528000Y-109241500D03*
X160528000Y-107166500D03*
D30*
X163322000Y-109198500D03*
X163322000Y-111273500D03*
D13*
X155568500Y-116444000D03*
X157568500Y-116444000D03*
D11*
X118667514Y-126926000D03*
D12*
X120667514Y-126926000D03*
X122667514Y-126926000D03*
D18*
X176022000Y-130302000D03*
D17*
X158734000Y-121920000D03*
X156734000Y-121920000D03*
D21*
X175112500Y-118110000D03*
X168112500Y-118110000D03*
D31*
X176212500Y-114410000D03*
D32*
X166812500Y-114410000D03*
D31*
X174212500Y-121810000D03*
D33*
X162812500Y-118860000D03*
D10*
X157973000Y-109204000D03*
X157973000Y-107204000D03*
D11*
X155432698Y-126926000D03*
D12*
X157432698Y-126926000D03*
X159432698Y-126926000D03*
M02*
