%FSLAX45Y45*%
G04 Gerber Fmt 4.5, Leading zero omitted, Abs format (unit mm)*
G04 Created by KiCad (PCBNEW (6.0.6)) date 2022-06-26 20:30:07*
%MOMM*%
%LPD*%
G01*
G04 APERTURE LIST*
%TA.AperFunction,Profile*%
%ADD10C,0.100000*%
%TD*%
%ADD11C,0.200000*%
%ADD12C,0.020000*%
%ADD13C,0.040000*%
%ADD14C,0.075000*%
%ADD15C,0.087000*%
%ADD16C,0.100000*%
%ADD17C,0.110000*%
%ADD18C,0.120000*%
%ADD19C,0.150000*%
%ADD20C,0.320000*%
G04 APERTURE END LIST*
D10*
X17907000Y-9017000D02*
X17907000Y-13030200D01*
X9017000Y-13030200D02*
X9017000Y-9017000D01*
X17602200Y-13335000D02*
X9321800Y-13335000D01*
X9321800Y-8712200D02*
G75*
G03*
X9017000Y-9017000I0J-304800D01*
G01*
X9321800Y-8712200D02*
X17602200Y-8712200D01*
X17602200Y-13335000D02*
G75*
G03*
X17907000Y-13030200I0J304800D01*
G01*
X9017000Y-13030200D02*
G75*
G03*
X9321800Y-13335000I304800J0D01*
G01*
X17907000Y-9017000D02*
G75*
G03*
X17602200Y-8712200I-304800J0D01*
G01*
D11*
D12*
X15928000Y-10514700D02*
X15948000Y-10534700D01*
X15948000Y-10514700D02*
X15928000Y-10534700D01*
X15928000Y-10607200D02*
X15948000Y-10627200D01*
X15948000Y-10607200D02*
X15928000Y-10627200D01*
X15928000Y-10699700D02*
X15948000Y-10719700D01*
X15948000Y-10699700D02*
X15928000Y-10719700D01*
X16056000Y-10514700D02*
X16076000Y-10534700D01*
X16076000Y-10514700D02*
X16056000Y-10534700D01*
X16056000Y-10607200D02*
X16076000Y-10627200D01*
X16076000Y-10607200D02*
X16056000Y-10627200D01*
X16056000Y-10699700D02*
X16076000Y-10719700D01*
X16076000Y-10699700D02*
X16056000Y-10719700D01*
D13*
X9890000Y-9004700D02*
G75*
G03*
X9890000Y-9004700I-20000J0D01*
G01*
X9890000Y-9304700D02*
G75*
G03*
X9890000Y-9304700I-20000J0D01*
G01*
X9890000Y-9604700D02*
G75*
G03*
X9890000Y-9604700I-20000J0D01*
G01*
X9890000Y-9904700D02*
G75*
G03*
X9890000Y-9904700I-20000J0D01*
G01*
X9890000Y-10204700D02*
G75*
G03*
X9890000Y-10204700I-20000J0D01*
G01*
X9890000Y-10504700D02*
G75*
G03*
X9890000Y-10504700I-20000J0D01*
G01*
X9890000Y-10804700D02*
G75*
G03*
X9890000Y-10804700I-20000J0D01*
G01*
X9890000Y-11104700D02*
G75*
G03*
X9890000Y-11104700I-20000J0D01*
G01*
X9890000Y-11404700D02*
G75*
G03*
X9890000Y-11404700I-20000J0D01*
G01*
X9890000Y-11704700D02*
G75*
G03*
X9890000Y-11704700I-20000J0D01*
G01*
X9890000Y-12004700D02*
G75*
G03*
X9890000Y-12004700I-20000J0D01*
G01*
X9890000Y-12304700D02*
G75*
G03*
X9890000Y-12304700I-20000J0D01*
G01*
X10190000Y-9304700D02*
G75*
G03*
X10190000Y-9304700I-20000J0D01*
G01*
X10190000Y-9604700D02*
G75*
G03*
X10190000Y-9604700I-20000J0D01*
G01*
X10190000Y-9904700D02*
G75*
G03*
X10190000Y-9904700I-20000J0D01*
G01*
X10190000Y-10204700D02*
G75*
G03*
X10190000Y-10204700I-20000J0D01*
G01*
X10190000Y-10504700D02*
G75*
G03*
X10190000Y-10504700I-20000J0D01*
G01*
X10190000Y-10804700D02*
G75*
G03*
X10190000Y-10804700I-20000J0D01*
G01*
X10190000Y-11104700D02*
G75*
G03*
X10190000Y-11104700I-20000J0D01*
G01*
X10190000Y-11404700D02*
G75*
G03*
X10190000Y-11404700I-20000J0D01*
G01*
X10190000Y-11704700D02*
G75*
G03*
X10190000Y-11704700I-20000J0D01*
G01*
X10190000Y-12004700D02*
G75*
G03*
X10190000Y-12004700I-20000J0D01*
G01*
X10490000Y-9004700D02*
G75*
G03*
X10490000Y-9004700I-20000J0D01*
G01*
X10490000Y-9304700D02*
G75*
G03*
X10490000Y-9304700I-20000J0D01*
G01*
X10490000Y-9604700D02*
G75*
G03*
X10490000Y-9604700I-20000J0D01*
G01*
X10490000Y-9904700D02*
G75*
G03*
X10490000Y-9904700I-20000J0D01*
G01*
X10490000Y-10204700D02*
G75*
G03*
X10490000Y-10204700I-20000J0D01*
G01*
X10490000Y-10504700D02*
G75*
G03*
X10490000Y-10504700I-20000J0D01*
G01*
X10490000Y-10804700D02*
G75*
G03*
X10490000Y-10804700I-20000J0D01*
G01*
X10490000Y-11104700D02*
G75*
G03*
X10490000Y-11104700I-20000J0D01*
G01*
X10490000Y-11404700D02*
G75*
G03*
X10490000Y-11404700I-20000J0D01*
G01*
X10490000Y-11704700D02*
G75*
G03*
X10490000Y-11704700I-20000J0D01*
G01*
X10490000Y-12004700D02*
G75*
G03*
X10490000Y-12004700I-20000J0D01*
G01*
X10790000Y-9004700D02*
G75*
G03*
X10790000Y-9004700I-20000J0D01*
G01*
X10790000Y-9304700D02*
G75*
G03*
X10790000Y-9304700I-20000J0D01*
G01*
X10790000Y-9604700D02*
G75*
G03*
X10790000Y-9604700I-20000J0D01*
G01*
X10790000Y-9904700D02*
G75*
G03*
X10790000Y-9904700I-20000J0D01*
G01*
X10790000Y-10204700D02*
G75*
G03*
X10790000Y-10204700I-20000J0D01*
G01*
X10790000Y-10504700D02*
G75*
G03*
X10790000Y-10504700I-20000J0D01*
G01*
X10790000Y-10804700D02*
G75*
G03*
X10790000Y-10804700I-20000J0D01*
G01*
X10790000Y-11104700D02*
G75*
G03*
X10790000Y-11104700I-20000J0D01*
G01*
X10790000Y-11404700D02*
G75*
G03*
X10790000Y-11404700I-20000J0D01*
G01*
X10790000Y-11704700D02*
G75*
G03*
X10790000Y-11704700I-20000J0D01*
G01*
X10790000Y-12004700D02*
G75*
G03*
X10790000Y-12004700I-20000J0D01*
G01*
X10790000Y-12304700D02*
G75*
G03*
X10790000Y-12304700I-20000J0D01*
G01*
X10790000Y-12604700D02*
G75*
G03*
X10790000Y-12604700I-20000J0D01*
G01*
X11090000Y-9004700D02*
G75*
G03*
X11090000Y-9004700I-20000J0D01*
G01*
X11090000Y-9304700D02*
G75*
G03*
X11090000Y-9304700I-20000J0D01*
G01*
X11090000Y-9604700D02*
G75*
G03*
X11090000Y-9604700I-20000J0D01*
G01*
X11090000Y-9904700D02*
G75*
G03*
X11090000Y-9904700I-20000J0D01*
G01*
X11090000Y-10204700D02*
G75*
G03*
X11090000Y-10204700I-20000J0D01*
G01*
X11090000Y-10504700D02*
G75*
G03*
X11090000Y-10504700I-20000J0D01*
G01*
X11090000Y-10804700D02*
G75*
G03*
X11090000Y-10804700I-20000J0D01*
G01*
X11090000Y-11104700D02*
G75*
G03*
X11090000Y-11104700I-20000J0D01*
G01*
X11090000Y-11404700D02*
G75*
G03*
X11090000Y-11404700I-20000J0D01*
G01*
X11090000Y-11704700D02*
G75*
G03*
X11090000Y-11704700I-20000J0D01*
G01*
X11090000Y-12004700D02*
G75*
G03*
X11090000Y-12004700I-20000J0D01*
G01*
X11390000Y-9004700D02*
G75*
G03*
X11390000Y-9004700I-20000J0D01*
G01*
X11390000Y-9304700D02*
G75*
G03*
X11390000Y-9304700I-20000J0D01*
G01*
X11390000Y-9604700D02*
G75*
G03*
X11390000Y-9604700I-20000J0D01*
G01*
X11390000Y-9904700D02*
G75*
G03*
X11390000Y-9904700I-20000J0D01*
G01*
X11390000Y-10204700D02*
G75*
G03*
X11390000Y-10204700I-20000J0D01*
G01*
X11390000Y-10504700D02*
G75*
G03*
X11390000Y-10504700I-20000J0D01*
G01*
X11390000Y-10804700D02*
G75*
G03*
X11390000Y-10804700I-20000J0D01*
G01*
X11390000Y-11104700D02*
G75*
G03*
X11390000Y-11104700I-20000J0D01*
G01*
X11390000Y-11404700D02*
G75*
G03*
X11390000Y-11404700I-20000J0D01*
G01*
X11390000Y-11704700D02*
G75*
G03*
X11390000Y-11704700I-20000J0D01*
G01*
X11690000Y-9004700D02*
G75*
G03*
X11690000Y-9004700I-20000J0D01*
G01*
X11690000Y-9304700D02*
G75*
G03*
X11690000Y-9304700I-20000J0D01*
G01*
X11690000Y-9604700D02*
G75*
G03*
X11690000Y-9604700I-20000J0D01*
G01*
X11690000Y-9904700D02*
G75*
G03*
X11690000Y-9904700I-20000J0D01*
G01*
X11690000Y-10204700D02*
G75*
G03*
X11690000Y-10204700I-20000J0D01*
G01*
X11690000Y-10504700D02*
G75*
G03*
X11690000Y-10504700I-20000J0D01*
G01*
X11690000Y-10804700D02*
G75*
G03*
X11690000Y-10804700I-20000J0D01*
G01*
X11690000Y-11104700D02*
G75*
G03*
X11690000Y-11104700I-20000J0D01*
G01*
X11690000Y-11404700D02*
G75*
G03*
X11690000Y-11404700I-20000J0D01*
G01*
X11690000Y-12004700D02*
G75*
G03*
X11690000Y-12004700I-20000J0D01*
G01*
X11690000Y-12604700D02*
G75*
G03*
X11690000Y-12604700I-20000J0D01*
G01*
X11990000Y-9004700D02*
G75*
G03*
X11990000Y-9004700I-20000J0D01*
G01*
X11990000Y-9304700D02*
G75*
G03*
X11990000Y-9304700I-20000J0D01*
G01*
X11990000Y-9604700D02*
G75*
G03*
X11990000Y-9604700I-20000J0D01*
G01*
X11990000Y-9904700D02*
G75*
G03*
X11990000Y-9904700I-20000J0D01*
G01*
X11990000Y-10204700D02*
G75*
G03*
X11990000Y-10204700I-20000J0D01*
G01*
X11990000Y-10504700D02*
G75*
G03*
X11990000Y-10504700I-20000J0D01*
G01*
X11990000Y-10804700D02*
G75*
G03*
X11990000Y-10804700I-20000J0D01*
G01*
X11990000Y-11104700D02*
G75*
G03*
X11990000Y-11104700I-20000J0D01*
G01*
X11990000Y-11404700D02*
G75*
G03*
X11990000Y-11404700I-20000J0D01*
G01*
X11990000Y-11704700D02*
G75*
G03*
X11990000Y-11704700I-20000J0D01*
G01*
X11990000Y-12304700D02*
G75*
G03*
X11990000Y-12304700I-20000J0D01*
G01*
X12290000Y-9004700D02*
G75*
G03*
X12290000Y-9004700I-20000J0D01*
G01*
X12290000Y-9304700D02*
G75*
G03*
X12290000Y-9304700I-20000J0D01*
G01*
X12290000Y-9604700D02*
G75*
G03*
X12290000Y-9604700I-20000J0D01*
G01*
X12290000Y-9904700D02*
G75*
G03*
X12290000Y-9904700I-20000J0D01*
G01*
X12290000Y-10204700D02*
G75*
G03*
X12290000Y-10204700I-20000J0D01*
G01*
X12290000Y-10504700D02*
G75*
G03*
X12290000Y-10504700I-20000J0D01*
G01*
X12290000Y-10804700D02*
G75*
G03*
X12290000Y-10804700I-20000J0D01*
G01*
X12290000Y-11104700D02*
G75*
G03*
X12290000Y-11104700I-20000J0D01*
G01*
X12290000Y-11404700D02*
G75*
G03*
X12290000Y-11404700I-20000J0D01*
G01*
X12290000Y-12004700D02*
G75*
G03*
X12290000Y-12004700I-20000J0D01*
G01*
X12590000Y-9004700D02*
G75*
G03*
X12590000Y-9004700I-20000J0D01*
G01*
X12590000Y-9304700D02*
G75*
G03*
X12590000Y-9304700I-20000J0D01*
G01*
X12590000Y-9604700D02*
G75*
G03*
X12590000Y-9604700I-20000J0D01*
G01*
X12590000Y-9904700D02*
G75*
G03*
X12590000Y-9904700I-20000J0D01*
G01*
X12590000Y-10204700D02*
G75*
G03*
X12590000Y-10204700I-20000J0D01*
G01*
X12590000Y-10504700D02*
G75*
G03*
X12590000Y-10504700I-20000J0D01*
G01*
X12590000Y-10804700D02*
G75*
G03*
X12590000Y-10804700I-20000J0D01*
G01*
X12590000Y-11104700D02*
G75*
G03*
X12590000Y-11104700I-20000J0D01*
G01*
X12590000Y-11404700D02*
G75*
G03*
X12590000Y-11404700I-20000J0D01*
G01*
X12590000Y-12004700D02*
G75*
G03*
X12590000Y-12004700I-20000J0D01*
G01*
X12590000Y-12604700D02*
G75*
G03*
X12590000Y-12604700I-20000J0D01*
G01*
X12890000Y-9004700D02*
G75*
G03*
X12890000Y-9004700I-20000J0D01*
G01*
X12890000Y-9304700D02*
G75*
G03*
X12890000Y-9304700I-20000J0D01*
G01*
X12890000Y-9604700D02*
G75*
G03*
X12890000Y-9604700I-20000J0D01*
G01*
X12890000Y-9904700D02*
G75*
G03*
X12890000Y-9904700I-20000J0D01*
G01*
X12890000Y-10204700D02*
G75*
G03*
X12890000Y-10204700I-20000J0D01*
G01*
X12890000Y-10504700D02*
G75*
G03*
X12890000Y-10504700I-20000J0D01*
G01*
X12890000Y-10804700D02*
G75*
G03*
X12890000Y-10804700I-20000J0D01*
G01*
X12890000Y-11104700D02*
G75*
G03*
X12890000Y-11104700I-20000J0D01*
G01*
X12890000Y-11404700D02*
G75*
G03*
X12890000Y-11404700I-20000J0D01*
G01*
X12890000Y-12304700D02*
G75*
G03*
X12890000Y-12304700I-20000J0D01*
G01*
X13490000Y-9004700D02*
G75*
G03*
X13490000Y-9004700I-20000J0D01*
G01*
X13490000Y-9304700D02*
G75*
G03*
X13490000Y-9304700I-20000J0D01*
G01*
X13490000Y-12604700D02*
G75*
G03*
X13490000Y-12604700I-20000J0D01*
G01*
X14090000Y-9004700D02*
G75*
G03*
X14090000Y-9004700I-20000J0D01*
G01*
X14090000Y-9304700D02*
G75*
G03*
X14090000Y-9304700I-20000J0D01*
G01*
X14090000Y-11104700D02*
G75*
G03*
X14090000Y-11104700I-20000J0D01*
G01*
X14091600Y-11404600D02*
G75*
G03*
X14091600Y-11404600I-20000J0D01*
G01*
X14091600Y-11684000D02*
G75*
G03*
X14091600Y-11684000I-20000J0D01*
G01*
X14390000Y-9004700D02*
G75*
G03*
X14390000Y-9004700I-20000J0D01*
G01*
X14390000Y-9304700D02*
G75*
G03*
X14390000Y-9304700I-20000J0D01*
G01*
X14390000Y-9604700D02*
G75*
G03*
X14390000Y-9604700I-20000J0D01*
G01*
X14390000Y-12604700D02*
G75*
G03*
X14390000Y-12604700I-20000J0D01*
G01*
X14690000Y-9004700D02*
G75*
G03*
X14690000Y-9004700I-20000J0D01*
G01*
X14690000Y-9304700D02*
G75*
G03*
X14690000Y-9304700I-20000J0D01*
G01*
X14690000Y-9604700D02*
G75*
G03*
X14690000Y-9604700I-20000J0D01*
G01*
X14690000Y-9904700D02*
G75*
G03*
X14690000Y-9904700I-20000J0D01*
G01*
X14904400Y-12141200D02*
G75*
G03*
X14904400Y-12141200I-20000J0D01*
G01*
X15056800Y-11607800D02*
G75*
G03*
X15056800Y-11607800I-20000J0D01*
G01*
X15290000Y-12604700D02*
G75*
G03*
X15290000Y-12604700I-20000J0D01*
G01*
X15392949Y-10194550D02*
G75*
G03*
X15392949Y-10194550I-20000J0D01*
G01*
X15392949Y-10607150D02*
G75*
G03*
X15392949Y-10607150I-20000J0D01*
G01*
X15590000Y-9004700D02*
G75*
G03*
X15590000Y-9004700I-20000J0D01*
G01*
X15691800Y-10820400D02*
G75*
G03*
X15691800Y-10820400I-20000J0D01*
G01*
X15890000Y-9004700D02*
G75*
G03*
X15890000Y-9004700I-20000J0D01*
G01*
X15920400Y-11404600D02*
G75*
G03*
X15920400Y-11404600I-20000J0D01*
G01*
X15920400Y-11582400D02*
G75*
G03*
X15920400Y-11582400I-20000J0D01*
G01*
X16073371Y-12140629D02*
G75*
G03*
X16073371Y-12140629I-20000J0D01*
G01*
X16190000Y-12604700D02*
G75*
G03*
X16190000Y-12604700I-20000J0D01*
G01*
X16490000Y-9004700D02*
G75*
G03*
X16490000Y-9004700I-20000J0D01*
G01*
X16490000Y-9904700D02*
G75*
G03*
X16490000Y-9904700I-20000J0D01*
G01*
X16790000Y-9604700D02*
G75*
G03*
X16790000Y-9604700I-20000J0D01*
G01*
X16790000Y-10204700D02*
G75*
G03*
X16790000Y-10204700I-20000J0D01*
G01*
X16790000Y-11104700D02*
G75*
G03*
X16790000Y-11104700I-20000J0D01*
G01*
X16790000Y-12304700D02*
G75*
G03*
X16790000Y-12304700I-20000J0D01*
G01*
X17090000Y-10204700D02*
G75*
G03*
X17090000Y-10204700I-20000J0D01*
G01*
X17090000Y-11104700D02*
G75*
G03*
X17090000Y-11104700I-20000J0D01*
G01*
X17090000Y-11704700D02*
G75*
G03*
X17090000Y-11704700I-20000J0D01*
G01*
X17090000Y-12004700D02*
G75*
G03*
X17090000Y-12004700I-20000J0D01*
G01*
X17090000Y-12304700D02*
G75*
G03*
X17090000Y-12304700I-20000J0D01*
G01*
X17090000Y-12604700D02*
G75*
G03*
X17090000Y-12604700I-20000J0D01*
G01*
X17090000Y-12904700D02*
G75*
G03*
X17090000Y-12904700I-20000J0D01*
G01*
X17390000Y-9304700D02*
G75*
G03*
X17390000Y-9304700I-20000J0D01*
G01*
X17390000Y-9604700D02*
G75*
G03*
X17390000Y-9604700I-20000J0D01*
G01*
X17390000Y-9904700D02*
G75*
G03*
X17390000Y-9904700I-20000J0D01*
G01*
X17390000Y-10204700D02*
G75*
G03*
X17390000Y-10204700I-20000J0D01*
G01*
X17390000Y-10504700D02*
G75*
G03*
X17390000Y-10504700I-20000J0D01*
G01*
X17390000Y-10804700D02*
G75*
G03*
X17390000Y-10804700I-20000J0D01*
G01*
X17390000Y-11104700D02*
G75*
G03*
X17390000Y-11104700I-20000J0D01*
G01*
X17390000Y-11404700D02*
G75*
G03*
X17390000Y-11404700I-20000J0D01*
G01*
X17390000Y-11704700D02*
G75*
G03*
X17390000Y-11704700I-20000J0D01*
G01*
X17390000Y-12604700D02*
G75*
G03*
X17390000Y-12604700I-20000J0D01*
G01*
X17690000Y-9304700D02*
G75*
G03*
X17690000Y-9304700I-20000J0D01*
G01*
X17690000Y-9604700D02*
G75*
G03*
X17690000Y-9604700I-20000J0D01*
G01*
X17690000Y-9904700D02*
G75*
G03*
X17690000Y-9904700I-20000J0D01*
G01*
X17690000Y-10204700D02*
G75*
G03*
X17690000Y-10204700I-20000J0D01*
G01*
X17690000Y-10504700D02*
G75*
G03*
X17690000Y-10504700I-20000J0D01*
G01*
X17690000Y-10804700D02*
G75*
G03*
X17690000Y-10804700I-20000J0D01*
G01*
X17690000Y-11104700D02*
G75*
G03*
X17690000Y-11104700I-20000J0D01*
G01*
X17690000Y-11704700D02*
G75*
G03*
X17690000Y-11704700I-20000J0D01*
G01*
X17690000Y-12004700D02*
G75*
G03*
X17690000Y-12004700I-20000J0D01*
G01*
X17690000Y-12304700D02*
G75*
G03*
X17690000Y-12304700I-20000J0D01*
G01*
X17690000Y-12604700D02*
G75*
G03*
X17690000Y-12604700I-20000J0D01*
G01*
D14*
X10028492Y-12655100D02*
X10028492Y-12730100D01*
X9990992Y-12692600D02*
X10065992Y-12692600D01*
X10228492Y-12655100D02*
X10228492Y-12730100D01*
X10190992Y-12692600D02*
X10265992Y-12692600D01*
X10428492Y-12655100D02*
X10428492Y-12730100D01*
X10390992Y-12692600D02*
X10465992Y-12692600D01*
X10947622Y-12655100D02*
X10947622Y-12730100D01*
X10910122Y-12692600D02*
X10985122Y-12692600D01*
X11147622Y-12655100D02*
X11147622Y-12730100D01*
X11110122Y-12692600D02*
X11185122Y-12692600D01*
X11347622Y-12655100D02*
X11347622Y-12730100D01*
X11310122Y-12692600D02*
X11385122Y-12692600D01*
X11866751Y-12655100D02*
X11866751Y-12730100D01*
X11829251Y-12692600D02*
X11904251Y-12692600D01*
X12066751Y-12655100D02*
X12066751Y-12730100D01*
X12029251Y-12692600D02*
X12104251Y-12692600D01*
X12266751Y-12655100D02*
X12266751Y-12730100D01*
X12229251Y-12692600D02*
X12304251Y-12692600D01*
X12785881Y-12655100D02*
X12785881Y-12730100D01*
X12748381Y-12692600D02*
X12823381Y-12692600D01*
X12985881Y-12655100D02*
X12985881Y-12730100D01*
X12948381Y-12692600D02*
X13023381Y-12692600D01*
X13185881Y-12655100D02*
X13185881Y-12730100D01*
X13148381Y-12692600D02*
X13223381Y-12692600D01*
X13705011Y-12655100D02*
X13705011Y-12730100D01*
X13667511Y-12692600D02*
X13742511Y-12692600D01*
X13905011Y-12655100D02*
X13905011Y-12730100D01*
X13867511Y-12692600D02*
X13942511Y-12692600D01*
X14105011Y-12655100D02*
X14105011Y-12730100D01*
X14067511Y-12692600D02*
X14142511Y-12692600D01*
X14624140Y-12655100D02*
X14624140Y-12730100D01*
X14586640Y-12692600D02*
X14661640Y-12692600D01*
X14824140Y-12655100D02*
X14824140Y-12730100D01*
X14786640Y-12692600D02*
X14861640Y-12692600D01*
X15024140Y-12655100D02*
X15024140Y-12730100D01*
X14986640Y-12692600D02*
X15061640Y-12692600D01*
X15543270Y-12655100D02*
X15543270Y-12730100D01*
X15505770Y-12692600D02*
X15580770Y-12692600D01*
X15743270Y-12655100D02*
X15743270Y-12730100D01*
X15705770Y-12692600D02*
X15780770Y-12692600D01*
X15943270Y-12655100D02*
X15943270Y-12730100D01*
X15905770Y-12692600D02*
X15980770Y-12692600D01*
X16462400Y-12655100D02*
X16462400Y-12730100D01*
X16424900Y-12692600D02*
X16499900Y-12692600D01*
X16662400Y-12655100D02*
X16662400Y-12730100D01*
X16624900Y-12692600D02*
X16699900Y-12692600D01*
X16862400Y-12655100D02*
X16862400Y-12730100D01*
X16824900Y-12692600D02*
X16899900Y-12692600D01*
D15*
X17051959Y-10622559D02*
X17051959Y-10561041D01*
X16990441Y-10561041D01*
X16990441Y-10622559D01*
X17051959Y-10622559D01*
X17051959Y-10876559D02*
X17051959Y-10815041D01*
X16990441Y-10815041D01*
X16990441Y-10876559D01*
X17051959Y-10876559D01*
D16*
X13131800Y-9397200D02*
X13181800Y-9347200D01*
X13131800Y-9297200D01*
X13081800Y-9347200D01*
X13131800Y-9397200D01*
X13131800Y-9651200D02*
X13181800Y-9601200D01*
X13131800Y-9551200D01*
X13081800Y-9601200D01*
X13131800Y-9651200D01*
X13131800Y-9905200D02*
X13181800Y-9855200D01*
X13131800Y-9805200D01*
X13081800Y-9855200D01*
X13131800Y-9905200D01*
X13131800Y-10159200D02*
X13181800Y-10109200D01*
X13131800Y-10059200D01*
X13081800Y-10109200D01*
X13131800Y-10159200D01*
X13131800Y-10413200D02*
X13181800Y-10363200D01*
X13131800Y-10313200D01*
X13081800Y-10363200D01*
X13131800Y-10413200D01*
X13131800Y-10667200D02*
X13181800Y-10617200D01*
X13131800Y-10567200D01*
X13081800Y-10617200D01*
X13131800Y-10667200D01*
X13131800Y-10921200D02*
X13181800Y-10871200D01*
X13131800Y-10821200D01*
X13081800Y-10871200D01*
X13131800Y-10921200D01*
X13131800Y-11175200D02*
X13181800Y-11125200D01*
X13131800Y-11075200D01*
X13081800Y-11125200D01*
X13131800Y-11175200D01*
X13131800Y-11429200D02*
X13181800Y-11379200D01*
X13131800Y-11329200D01*
X13081800Y-11379200D01*
X13131800Y-11429200D01*
X13131800Y-11683200D02*
X13181800Y-11633200D01*
X13131800Y-11583200D01*
X13081800Y-11633200D01*
X13131800Y-11683200D01*
X13131800Y-11937200D02*
X13181800Y-11887200D01*
X13131800Y-11837200D01*
X13081800Y-11887200D01*
X13131800Y-11937200D01*
X15531000Y-9261500D02*
X15581000Y-9211500D01*
X15531000Y-9161500D01*
X15481000Y-9211500D01*
X15531000Y-9261500D01*
X15531000Y-9761500D02*
X15581000Y-9711500D01*
X15531000Y-9661500D01*
X15481000Y-9711500D01*
X15531000Y-9761500D01*
X16981000Y-9261500D02*
X17031000Y-9211500D01*
X16981000Y-9161500D01*
X16931000Y-9211500D01*
X16981000Y-9261500D01*
X16981000Y-9511500D02*
X17031000Y-9461500D01*
X16981000Y-9411500D01*
X16931000Y-9461500D01*
X16981000Y-9511500D01*
X16981000Y-9761500D02*
X17031000Y-9711500D01*
X16981000Y-9661500D01*
X16931000Y-9711500D01*
X16981000Y-9761500D01*
D17*
X13635600Y-8784200D02*
X13745600Y-8894200D01*
X13745600Y-8784200D02*
X13635600Y-8894200D01*
X13745600Y-8839200D02*
G75*
G03*
X13745600Y-8839200I-55000J0D01*
G01*
X13635600Y-9038200D02*
X13745600Y-9148200D01*
X13745600Y-9038200D02*
X13635600Y-9148200D01*
X13745600Y-9093200D02*
G75*
G03*
X13745600Y-9093200I-55000J0D01*
G01*
X13635600Y-9292200D02*
X13745600Y-9402200D01*
X13745600Y-9292200D02*
X13635600Y-9402200D01*
X13745600Y-9347200D02*
G75*
G03*
X13745600Y-9347200I-55000J0D01*
G01*
X13635600Y-9546200D02*
X13745600Y-9656200D01*
X13745600Y-9546200D02*
X13635600Y-9656200D01*
X13745600Y-9601200D02*
G75*
G03*
X13745600Y-9601200I-55000J0D01*
G01*
X13635600Y-9800200D02*
X13745600Y-9910200D01*
X13745600Y-9800200D02*
X13635600Y-9910200D01*
X13745600Y-9855200D02*
G75*
G03*
X13745600Y-9855200I-55000J0D01*
G01*
X13635600Y-10054200D02*
X13745600Y-10164200D01*
X13745600Y-10054200D02*
X13635600Y-10164200D01*
X13745600Y-10109200D02*
G75*
G03*
X13745600Y-10109200I-55000J0D01*
G01*
X13635600Y-10308200D02*
X13745600Y-10418200D01*
X13745600Y-10308200D02*
X13635600Y-10418200D01*
X13745600Y-10363200D02*
G75*
G03*
X13745600Y-10363200I-55000J0D01*
G01*
X13635600Y-10562200D02*
X13745600Y-10672200D01*
X13745600Y-10562200D02*
X13635600Y-10672200D01*
X13745600Y-10617200D02*
G75*
G03*
X13745600Y-10617200I-55000J0D01*
G01*
X13635600Y-10816200D02*
X13745600Y-10926200D01*
X13745600Y-10816200D02*
X13635600Y-10926200D01*
X13745600Y-10871200D02*
G75*
G03*
X13745600Y-10871200I-55000J0D01*
G01*
X13635600Y-11070200D02*
X13745600Y-11180200D01*
X13745600Y-11070200D02*
X13635600Y-11180200D01*
X13745600Y-11125200D02*
G75*
G03*
X13745600Y-11125200I-55000J0D01*
G01*
X13635600Y-11324200D02*
X13745600Y-11434200D01*
X13745600Y-11324200D02*
X13635600Y-11434200D01*
X13745600Y-11379200D02*
G75*
G03*
X13745600Y-11379200I-55000J0D01*
G01*
X13635600Y-11578200D02*
X13745600Y-11688200D01*
X13745600Y-11578200D02*
X13635600Y-11688200D01*
X13745600Y-11633200D02*
G75*
G03*
X13745600Y-11633200I-55000J0D01*
G01*
X13635600Y-11832200D02*
X13745600Y-11942200D01*
X13745600Y-11832200D02*
X13635600Y-11942200D01*
X13745600Y-11887200D02*
G75*
G03*
X13745600Y-11887200I-55000J0D01*
G01*
X13635600Y-12086200D02*
X13745600Y-12196200D01*
X13745600Y-12086200D02*
X13635600Y-12196200D01*
X13745600Y-12141200D02*
G75*
G03*
X13745600Y-12141200I-55000J0D01*
G01*
X15159600Y-8784200D02*
X15269600Y-8894200D01*
X15269600Y-8784200D02*
X15159600Y-8894200D01*
X15269600Y-8839200D02*
G75*
G03*
X15269600Y-8839200I-55000J0D01*
G01*
X15159600Y-9038200D02*
X15269600Y-9148200D01*
X15269600Y-9038200D02*
X15159600Y-9148200D01*
X15269600Y-9093200D02*
G75*
G03*
X15269600Y-9093200I-55000J0D01*
G01*
X15159600Y-9292200D02*
X15269600Y-9402200D01*
X15269600Y-9292200D02*
X15159600Y-9402200D01*
X15269600Y-9347200D02*
G75*
G03*
X15269600Y-9347200I-55000J0D01*
G01*
X15159600Y-9546200D02*
X15269600Y-9656200D01*
X15269600Y-9546200D02*
X15159600Y-9656200D01*
X15269600Y-9601200D02*
G75*
G03*
X15269600Y-9601200I-55000J0D01*
G01*
X15159600Y-9800200D02*
X15269600Y-9910200D01*
X15269600Y-9800200D02*
X15159600Y-9910200D01*
X15269600Y-9855200D02*
G75*
G03*
X15269600Y-9855200I-55000J0D01*
G01*
X15159600Y-10054200D02*
X15269600Y-10164200D01*
X15269600Y-10054200D02*
X15159600Y-10164200D01*
X15269600Y-10109200D02*
G75*
G03*
X15269600Y-10109200I-55000J0D01*
G01*
X15159600Y-10308200D02*
X15269600Y-10418200D01*
X15269600Y-10308200D02*
X15159600Y-10418200D01*
X15269600Y-10363200D02*
G75*
G03*
X15269600Y-10363200I-55000J0D01*
G01*
X15159600Y-10562200D02*
X15269600Y-10672200D01*
X15269600Y-10562200D02*
X15159600Y-10672200D01*
X15269600Y-10617200D02*
G75*
G03*
X15269600Y-10617200I-55000J0D01*
G01*
X15159600Y-10816200D02*
X15269600Y-10926200D01*
X15269600Y-10816200D02*
X15159600Y-10926200D01*
X15269600Y-10871200D02*
G75*
G03*
X15269600Y-10871200I-55000J0D01*
G01*
X15159600Y-11070200D02*
X15269600Y-11180200D01*
X15269600Y-11070200D02*
X15159600Y-11180200D01*
X15269600Y-11125200D02*
G75*
G03*
X15269600Y-11125200I-55000J0D01*
G01*
X15159600Y-11324200D02*
X15269600Y-11434200D01*
X15269600Y-11324200D02*
X15159600Y-11434200D01*
X15269600Y-11379200D02*
G75*
G03*
X15269600Y-11379200I-55000J0D01*
G01*
X15159600Y-11578200D02*
X15269600Y-11688200D01*
X15269600Y-11578200D02*
X15159600Y-11688200D01*
X15269600Y-11633200D02*
G75*
G03*
X15269600Y-11633200I-55000J0D01*
G01*
X15159600Y-11832200D02*
X15269600Y-11942200D01*
X15269600Y-11832200D02*
X15159600Y-11942200D01*
X15269600Y-11887200D02*
G75*
G03*
X15269600Y-11887200I-55000J0D01*
G01*
X15159600Y-12086200D02*
X15269600Y-12196200D01*
X15269600Y-12086200D02*
X15159600Y-12196200D01*
X15269600Y-12141200D02*
G75*
G03*
X15269600Y-12141200I-55000J0D01*
G01*
D18*
X9313000Y-11830000D02*
X9433000Y-11950000D01*
X9433000Y-11830000D02*
X9313000Y-11950000D01*
X9373000Y-11830000D02*
X9373000Y-11950000D01*
X9313000Y-11890000D02*
X9433000Y-11890000D01*
X9313000Y-12180000D02*
X9433000Y-12300000D01*
X9433000Y-12180000D02*
X9313000Y-12300000D01*
X9373000Y-12180000D02*
X9373000Y-12300000D01*
X9313000Y-12240000D02*
X9433000Y-12240000D01*
D19*
X16156000Y-8826500D02*
X16306000Y-8976500D01*
X16306000Y-8826500D02*
X16156000Y-8976500D01*
X16284033Y-8954534D02*
X16284033Y-8848467D01*
X16177966Y-8848467D01*
X16177966Y-8954534D01*
X16284033Y-8954534D01*
D11*
X16296000Y-8826500D02*
X16166000Y-8826500D01*
X16296000Y-8976500D02*
X16166000Y-8976500D01*
X16166000Y-8826500D02*
G75*
G03*
X16166000Y-8976500I0J-75000D01*
G01*
X16296000Y-8976500D02*
G75*
G03*
X16296000Y-8826500I0J75000D01*
G01*
D19*
X16156000Y-9946500D02*
X16306000Y-10096500D01*
X16306000Y-9946500D02*
X16156000Y-10096500D01*
X16284033Y-10074534D02*
X16284033Y-9968467D01*
X16177966Y-9968467D01*
X16177966Y-10074534D01*
X16284033Y-10074534D01*
D11*
X16296000Y-9946500D02*
X16166000Y-9946500D01*
X16296000Y-10096500D02*
X16166000Y-10096500D01*
X16166000Y-9946500D02*
G75*
G03*
X16166000Y-10096500I0J-75000D01*
G01*
X16296000Y-10096500D02*
G75*
G03*
X16296000Y-9946500I0J75000D01*
G01*
D20*
X9161800Y-8857000D02*
X9481800Y-9177000D01*
X9481800Y-8857000D02*
X9161800Y-9177000D01*
X9321800Y-9177000D02*
X9481800Y-9017000D01*
X9321800Y-8857000D01*
X9161800Y-9017000D01*
X9321800Y-9177000D01*
X9161800Y-12870200D02*
X9481800Y-13190200D01*
X9481800Y-12870200D02*
X9161800Y-13190200D01*
X9321800Y-13190200D02*
X9481800Y-13030200D01*
X9321800Y-12870200D01*
X9161800Y-13030200D01*
X9321800Y-13190200D01*
X17442200Y-8857000D02*
X17762200Y-9177000D01*
X17762200Y-8857000D02*
X17442200Y-9177000D01*
X17602200Y-9177000D02*
X17762200Y-9017000D01*
X17602200Y-8857000D01*
X17442200Y-9017000D01*
X17602200Y-9177000D01*
X17442200Y-12870200D02*
X17762200Y-13190200D01*
X17762200Y-12870200D02*
X17442200Y-13190200D01*
X17602200Y-13190200D02*
X17762200Y-13030200D01*
X17602200Y-12870200D01*
X17442200Y-13030200D01*
X17602200Y-13190200D01*
D11*
X9269619Y-13650476D02*
X9269619Y-13450476D01*
X9317238Y-13450476D01*
X9345810Y-13460000D01*
X9364857Y-13479048D01*
X9374381Y-13498095D01*
X9383905Y-13536190D01*
X9383905Y-13564762D01*
X9374381Y-13602857D01*
X9364857Y-13621905D01*
X9345810Y-13640952D01*
X9317238Y-13650476D01*
X9269619Y-13650476D01*
X9469619Y-13650476D02*
X9469619Y-13517143D01*
X9469619Y-13555238D02*
X9479143Y-13536190D01*
X9488667Y-13526667D01*
X9507714Y-13517143D01*
X9526762Y-13517143D01*
X9593429Y-13650476D02*
X9593429Y-13517143D01*
X9593429Y-13450476D02*
X9583905Y-13460000D01*
X9593429Y-13469524D01*
X9602952Y-13460000D01*
X9593429Y-13450476D01*
X9593429Y-13469524D01*
X9717238Y-13650476D02*
X9698190Y-13640952D01*
X9688667Y-13621905D01*
X9688667Y-13450476D01*
X9822000Y-13650476D02*
X9802952Y-13640952D01*
X9793429Y-13621905D01*
X9793429Y-13450476D01*
X10050571Y-13650476D02*
X10050571Y-13450476D01*
X10117238Y-13593333D01*
X10183905Y-13450476D01*
X10183905Y-13650476D01*
X10364857Y-13650476D02*
X10364857Y-13545714D01*
X10355333Y-13526667D01*
X10336286Y-13517143D01*
X10298190Y-13517143D01*
X10279143Y-13526667D01*
X10364857Y-13640952D02*
X10345810Y-13650476D01*
X10298190Y-13650476D01*
X10279143Y-13640952D01*
X10269619Y-13621905D01*
X10269619Y-13602857D01*
X10279143Y-13583809D01*
X10298190Y-13574286D01*
X10345810Y-13574286D01*
X10364857Y-13564762D01*
X10460095Y-13517143D02*
X10460095Y-13717143D01*
X10460095Y-13526667D02*
X10479143Y-13517143D01*
X10517238Y-13517143D01*
X10536286Y-13526667D01*
X10545810Y-13536190D01*
X10555333Y-13555238D01*
X10555333Y-13612381D01*
X10545810Y-13631428D01*
X10536286Y-13640952D01*
X10517238Y-13650476D01*
X10479143Y-13650476D01*
X10460095Y-13640952D01*
X10641048Y-13631428D02*
X10650571Y-13640952D01*
X10641048Y-13650476D01*
X10631524Y-13640952D01*
X10641048Y-13631428D01*
X10641048Y-13650476D01*
X10641048Y-13526667D02*
X10650571Y-13536190D01*
X10641048Y-13545714D01*
X10631524Y-13536190D01*
X10641048Y-13526667D01*
X10641048Y-13545714D01*
D12*
X8992000Y-13970000D02*
X9012000Y-13990000D01*
X9012000Y-13970000D02*
X8992000Y-13990000D01*
D11*
X9307714Y-13870476D02*
X9326762Y-13870476D01*
X9345810Y-13880000D01*
X9355333Y-13889524D01*
X9364857Y-13908571D01*
X9374381Y-13946667D01*
X9374381Y-13994286D01*
X9364857Y-14032381D01*
X9355333Y-14051428D01*
X9345810Y-14060952D01*
X9326762Y-14070476D01*
X9307714Y-14070476D01*
X9288667Y-14060952D01*
X9279143Y-14051428D01*
X9269619Y-14032381D01*
X9260095Y-13994286D01*
X9260095Y-13946667D01*
X9269619Y-13908571D01*
X9279143Y-13889524D01*
X9288667Y-13880000D01*
X9307714Y-13870476D01*
X9460095Y-14051428D02*
X9469619Y-14060952D01*
X9460095Y-14070476D01*
X9450571Y-14060952D01*
X9460095Y-14051428D01*
X9460095Y-14070476D01*
X9545810Y-13889524D02*
X9555333Y-13880000D01*
X9574381Y-13870476D01*
X9622000Y-13870476D01*
X9641048Y-13880000D01*
X9650571Y-13889524D01*
X9660095Y-13908571D01*
X9660095Y-13927619D01*
X9650571Y-13956190D01*
X9536286Y-14070476D01*
X9660095Y-14070476D01*
X9783905Y-13870476D02*
X9802952Y-13870476D01*
X9822000Y-13880000D01*
X9831524Y-13889524D01*
X9841048Y-13908571D01*
X9850571Y-13946667D01*
X9850571Y-13994286D01*
X9841048Y-14032381D01*
X9831524Y-14051428D01*
X9822000Y-14060952D01*
X9802952Y-14070476D01*
X9783905Y-14070476D01*
X9764857Y-14060952D01*
X9755333Y-14051428D01*
X9745810Y-14032381D01*
X9736286Y-13994286D01*
X9736286Y-13946667D01*
X9745810Y-13908571D01*
X9755333Y-13889524D01*
X9764857Y-13880000D01*
X9783905Y-13870476D01*
X9974381Y-13870476D02*
X9993429Y-13870476D01*
X10012476Y-13880000D01*
X10022000Y-13889524D01*
X10031524Y-13908571D01*
X10041048Y-13946667D01*
X10041048Y-13994286D01*
X10031524Y-14032381D01*
X10022000Y-14051428D01*
X10012476Y-14060952D01*
X9993429Y-14070476D01*
X9974381Y-14070476D01*
X9955333Y-14060952D01*
X9945810Y-14051428D01*
X9936286Y-14032381D01*
X9926762Y-13994286D01*
X9926762Y-13946667D01*
X9936286Y-13908571D01*
X9945810Y-13889524D01*
X9955333Y-13880000D01*
X9974381Y-13870476D01*
X10126762Y-14070476D02*
X10126762Y-13937143D01*
X10126762Y-13956190D02*
X10136286Y-13946667D01*
X10155333Y-13937143D01*
X10183905Y-13937143D01*
X10202952Y-13946667D01*
X10212476Y-13965714D01*
X10212476Y-14070476D01*
X10212476Y-13965714D02*
X10222000Y-13946667D01*
X10241048Y-13937143D01*
X10269619Y-13937143D01*
X10288667Y-13946667D01*
X10298190Y-13965714D01*
X10298190Y-14070476D01*
X10393429Y-14070476D02*
X10393429Y-13937143D01*
X10393429Y-13956190D02*
X10402952Y-13946667D01*
X10422000Y-13937143D01*
X10450571Y-13937143D01*
X10469619Y-13946667D01*
X10479143Y-13965714D01*
X10479143Y-14070476D01*
X10479143Y-13965714D02*
X10488667Y-13946667D01*
X10507714Y-13937143D01*
X10536286Y-13937143D01*
X10555333Y-13946667D01*
X10564857Y-13965714D01*
X10564857Y-14070476D01*
X10955333Y-13860952D02*
X10783905Y-14118095D01*
X11212476Y-13870476D02*
X11231524Y-13870476D01*
X11250571Y-13880000D01*
X11260095Y-13889524D01*
X11269619Y-13908571D01*
X11279143Y-13946667D01*
X11279143Y-13994286D01*
X11269619Y-14032381D01*
X11260095Y-14051428D01*
X11250571Y-14060952D01*
X11231524Y-14070476D01*
X11212476Y-14070476D01*
X11193428Y-14060952D01*
X11183905Y-14051428D01*
X11174381Y-14032381D01*
X11164857Y-13994286D01*
X11164857Y-13946667D01*
X11174381Y-13908571D01*
X11183905Y-13889524D01*
X11193428Y-13880000D01*
X11212476Y-13870476D01*
X11364857Y-14051428D02*
X11374381Y-14060952D01*
X11364857Y-14070476D01*
X11355333Y-14060952D01*
X11364857Y-14051428D01*
X11364857Y-14070476D01*
X11498190Y-13870476D02*
X11517238Y-13870476D01*
X11536286Y-13880000D01*
X11545809Y-13889524D01*
X11555333Y-13908571D01*
X11564857Y-13946667D01*
X11564857Y-13994286D01*
X11555333Y-14032381D01*
X11545809Y-14051428D01*
X11536286Y-14060952D01*
X11517238Y-14070476D01*
X11498190Y-14070476D01*
X11479143Y-14060952D01*
X11469619Y-14051428D01*
X11460095Y-14032381D01*
X11450571Y-13994286D01*
X11450571Y-13946667D01*
X11460095Y-13908571D01*
X11469619Y-13889524D01*
X11479143Y-13880000D01*
X11498190Y-13870476D01*
X11688667Y-13870476D02*
X11707714Y-13870476D01*
X11726762Y-13880000D01*
X11736286Y-13889524D01*
X11745809Y-13908571D01*
X11755333Y-13946667D01*
X11755333Y-13994286D01*
X11745809Y-14032381D01*
X11736286Y-14051428D01*
X11726762Y-14060952D01*
X11707714Y-14070476D01*
X11688667Y-14070476D01*
X11669619Y-14060952D01*
X11660095Y-14051428D01*
X11650571Y-14032381D01*
X11641048Y-13994286D01*
X11641048Y-13946667D01*
X11650571Y-13908571D01*
X11660095Y-13889524D01*
X11669619Y-13880000D01*
X11688667Y-13870476D01*
X11822000Y-13870476D02*
X11955333Y-13870476D01*
X11869619Y-14070476D01*
X12041048Y-14070476D02*
X12079143Y-14070476D01*
X12098190Y-14060952D01*
X12107714Y-14051428D01*
X12126762Y-14022857D01*
X12136286Y-13984762D01*
X12136286Y-13908571D01*
X12126762Y-13889524D01*
X12117238Y-13880000D01*
X12098190Y-13870476D01*
X12060095Y-13870476D01*
X12041048Y-13880000D01*
X12031524Y-13889524D01*
X12022000Y-13908571D01*
X12022000Y-13956190D01*
X12031524Y-13975238D01*
X12041048Y-13984762D01*
X12060095Y-13994286D01*
X12098190Y-13994286D01*
X12117238Y-13984762D01*
X12126762Y-13975238D01*
X12136286Y-13956190D01*
X12212476Y-13870476D02*
X12212476Y-13908571D01*
X12288667Y-13870476D02*
X12288667Y-13908571D01*
X12583905Y-14146667D02*
X12574381Y-14137143D01*
X12555333Y-14108571D01*
X12545809Y-14089524D01*
X12536286Y-14060952D01*
X12526762Y-14013333D01*
X12526762Y-13975238D01*
X12536286Y-13927619D01*
X12545809Y-13899048D01*
X12555333Y-13880000D01*
X12574381Y-13851428D01*
X12583905Y-13841905D01*
X12745809Y-13870476D02*
X12707714Y-13870476D01*
X12688667Y-13880000D01*
X12679143Y-13889524D01*
X12660095Y-13918095D01*
X12650571Y-13956190D01*
X12650571Y-14032381D01*
X12660095Y-14051428D01*
X12669619Y-14060952D01*
X12688667Y-14070476D01*
X12726762Y-14070476D01*
X12745809Y-14060952D01*
X12755333Y-14051428D01*
X12764857Y-14032381D01*
X12764857Y-13984762D01*
X12755333Y-13965714D01*
X12745809Y-13956190D01*
X12726762Y-13946667D01*
X12688667Y-13946667D01*
X12669619Y-13956190D01*
X12660095Y-13965714D01*
X12650571Y-13984762D01*
X13002952Y-14070476D02*
X13002952Y-13870476D01*
X13088667Y-14070476D02*
X13088667Y-13965714D01*
X13079143Y-13946667D01*
X13060095Y-13937143D01*
X13031524Y-13937143D01*
X13012476Y-13946667D01*
X13002952Y-13956190D01*
X13212476Y-14070476D02*
X13193428Y-14060952D01*
X13183905Y-14051428D01*
X13174381Y-14032381D01*
X13174381Y-13975238D01*
X13183905Y-13956190D01*
X13193428Y-13946667D01*
X13212476Y-13937143D01*
X13241048Y-13937143D01*
X13260095Y-13946667D01*
X13269619Y-13956190D01*
X13279143Y-13975238D01*
X13279143Y-14032381D01*
X13269619Y-14051428D01*
X13260095Y-14060952D01*
X13241048Y-14070476D01*
X13212476Y-14070476D01*
X13393428Y-14070476D02*
X13374381Y-14060952D01*
X13364857Y-14041905D01*
X13364857Y-13870476D01*
X13545809Y-14060952D02*
X13526762Y-14070476D01*
X13488667Y-14070476D01*
X13469619Y-14060952D01*
X13460095Y-14041905D01*
X13460095Y-13965714D01*
X13469619Y-13946667D01*
X13488667Y-13937143D01*
X13526762Y-13937143D01*
X13545809Y-13946667D01*
X13555333Y-13965714D01*
X13555333Y-13984762D01*
X13460095Y-14003809D01*
X13631524Y-14060952D02*
X13650571Y-14070476D01*
X13688667Y-14070476D01*
X13707714Y-14060952D01*
X13717238Y-14041905D01*
X13717238Y-14032381D01*
X13707714Y-14013333D01*
X13688667Y-14003809D01*
X13660095Y-14003809D01*
X13641048Y-13994286D01*
X13631524Y-13975238D01*
X13631524Y-13965714D01*
X13641048Y-13946667D01*
X13660095Y-13937143D01*
X13688667Y-13937143D01*
X13707714Y-13946667D01*
X13783905Y-14146667D02*
X13793428Y-14137143D01*
X13812476Y-14108571D01*
X13822000Y-14089524D01*
X13831524Y-14060952D01*
X13841048Y-14013333D01*
X13841048Y-13975238D01*
X13831524Y-13927619D01*
X13822000Y-13899048D01*
X13812476Y-13880000D01*
X13793428Y-13851428D01*
X13783905Y-13841905D01*
D13*
X9012000Y-14244000D02*
G75*
G03*
X9012000Y-14244000I-20000J0D01*
G01*
D11*
X9307714Y-14134476D02*
X9326762Y-14134476D01*
X9345810Y-14144000D01*
X9355333Y-14153524D01*
X9364857Y-14172571D01*
X9374381Y-14210667D01*
X9374381Y-14258286D01*
X9364857Y-14296381D01*
X9355333Y-14315428D01*
X9345810Y-14324952D01*
X9326762Y-14334476D01*
X9307714Y-14334476D01*
X9288667Y-14324952D01*
X9279143Y-14315428D01*
X9269619Y-14296381D01*
X9260095Y-14258286D01*
X9260095Y-14210667D01*
X9269619Y-14172571D01*
X9279143Y-14153524D01*
X9288667Y-14144000D01*
X9307714Y-14134476D01*
X9460095Y-14315428D02*
X9469619Y-14324952D01*
X9460095Y-14334476D01*
X9450571Y-14324952D01*
X9460095Y-14315428D01*
X9460095Y-14334476D01*
X9641048Y-14201143D02*
X9641048Y-14334476D01*
X9593429Y-14124952D02*
X9545810Y-14267809D01*
X9669619Y-14267809D01*
X9783905Y-14134476D02*
X9802952Y-14134476D01*
X9822000Y-14144000D01*
X9831524Y-14153524D01*
X9841048Y-14172571D01*
X9850571Y-14210667D01*
X9850571Y-14258286D01*
X9841048Y-14296381D01*
X9831524Y-14315428D01*
X9822000Y-14324952D01*
X9802952Y-14334476D01*
X9783905Y-14334476D01*
X9764857Y-14324952D01*
X9755333Y-14315428D01*
X9745810Y-14296381D01*
X9736286Y-14258286D01*
X9736286Y-14210667D01*
X9745810Y-14172571D01*
X9755333Y-14153524D01*
X9764857Y-14144000D01*
X9783905Y-14134476D01*
X9974381Y-14134476D02*
X9993429Y-14134476D01*
X10012476Y-14144000D01*
X10022000Y-14153524D01*
X10031524Y-14172571D01*
X10041048Y-14210667D01*
X10041048Y-14258286D01*
X10031524Y-14296381D01*
X10022000Y-14315428D01*
X10012476Y-14324952D01*
X9993429Y-14334476D01*
X9974381Y-14334476D01*
X9955333Y-14324952D01*
X9945810Y-14315428D01*
X9936286Y-14296381D01*
X9926762Y-14258286D01*
X9926762Y-14210667D01*
X9936286Y-14172571D01*
X9945810Y-14153524D01*
X9955333Y-14144000D01*
X9974381Y-14134476D01*
X10126762Y-14334476D02*
X10126762Y-14201143D01*
X10126762Y-14220190D02*
X10136286Y-14210667D01*
X10155333Y-14201143D01*
X10183905Y-14201143D01*
X10202952Y-14210667D01*
X10212476Y-14229714D01*
X10212476Y-14334476D01*
X10212476Y-14229714D02*
X10222000Y-14210667D01*
X10241048Y-14201143D01*
X10269619Y-14201143D01*
X10288667Y-14210667D01*
X10298190Y-14229714D01*
X10298190Y-14334476D01*
X10393429Y-14334476D02*
X10393429Y-14201143D01*
X10393429Y-14220190D02*
X10402952Y-14210667D01*
X10422000Y-14201143D01*
X10450571Y-14201143D01*
X10469619Y-14210667D01*
X10479143Y-14229714D01*
X10479143Y-14334476D01*
X10479143Y-14229714D02*
X10488667Y-14210667D01*
X10507714Y-14201143D01*
X10536286Y-14201143D01*
X10555333Y-14210667D01*
X10564857Y-14229714D01*
X10564857Y-14334476D01*
X10955333Y-14124952D02*
X10783905Y-14382095D01*
X11212476Y-14134476D02*
X11231524Y-14134476D01*
X11250571Y-14144000D01*
X11260095Y-14153524D01*
X11269619Y-14172571D01*
X11279143Y-14210667D01*
X11279143Y-14258286D01*
X11269619Y-14296381D01*
X11260095Y-14315428D01*
X11250571Y-14324952D01*
X11231524Y-14334476D01*
X11212476Y-14334476D01*
X11193428Y-14324952D01*
X11183905Y-14315428D01*
X11174381Y-14296381D01*
X11164857Y-14258286D01*
X11164857Y-14210667D01*
X11174381Y-14172571D01*
X11183905Y-14153524D01*
X11193428Y-14144000D01*
X11212476Y-14134476D01*
X11364857Y-14315428D02*
X11374381Y-14324952D01*
X11364857Y-14334476D01*
X11355333Y-14324952D01*
X11364857Y-14315428D01*
X11364857Y-14334476D01*
X11498190Y-14134476D02*
X11517238Y-14134476D01*
X11536286Y-14144000D01*
X11545809Y-14153524D01*
X11555333Y-14172571D01*
X11564857Y-14210667D01*
X11564857Y-14258286D01*
X11555333Y-14296381D01*
X11545809Y-14315428D01*
X11536286Y-14324952D01*
X11517238Y-14334476D01*
X11498190Y-14334476D01*
X11479143Y-14324952D01*
X11469619Y-14315428D01*
X11460095Y-14296381D01*
X11450571Y-14258286D01*
X11450571Y-14210667D01*
X11460095Y-14172571D01*
X11469619Y-14153524D01*
X11479143Y-14144000D01*
X11498190Y-14134476D01*
X11755333Y-14334476D02*
X11641048Y-14334476D01*
X11698190Y-14334476D02*
X11698190Y-14134476D01*
X11679143Y-14163048D01*
X11660095Y-14182095D01*
X11641048Y-14191619D01*
X11936286Y-14134476D02*
X11841048Y-14134476D01*
X11831524Y-14229714D01*
X11841048Y-14220190D01*
X11860095Y-14210667D01*
X11907714Y-14210667D01*
X11926762Y-14220190D01*
X11936286Y-14229714D01*
X11945809Y-14248762D01*
X11945809Y-14296381D01*
X11936286Y-14315428D01*
X11926762Y-14324952D01*
X11907714Y-14334476D01*
X11860095Y-14334476D01*
X11841048Y-14324952D01*
X11831524Y-14315428D01*
X12012476Y-14134476D02*
X12145809Y-14134476D01*
X12060095Y-14334476D01*
X12212476Y-14134476D02*
X12212476Y-14172571D01*
X12288667Y-14134476D02*
X12288667Y-14172571D01*
X12583905Y-14410667D02*
X12574381Y-14401143D01*
X12555333Y-14372571D01*
X12545809Y-14353524D01*
X12536286Y-14324952D01*
X12526762Y-14277333D01*
X12526762Y-14239238D01*
X12536286Y-14191619D01*
X12545809Y-14163048D01*
X12555333Y-14144000D01*
X12574381Y-14115428D01*
X12583905Y-14105905D01*
X12764857Y-14334476D02*
X12650571Y-14334476D01*
X12707714Y-14334476D02*
X12707714Y-14134476D01*
X12688667Y-14163048D01*
X12669619Y-14182095D01*
X12650571Y-14191619D01*
X12879143Y-14220190D02*
X12860095Y-14210667D01*
X12850571Y-14201143D01*
X12841048Y-14182095D01*
X12841048Y-14172571D01*
X12850571Y-14153524D01*
X12860095Y-14144000D01*
X12879143Y-14134476D01*
X12917238Y-14134476D01*
X12936286Y-14144000D01*
X12945809Y-14153524D01*
X12955333Y-14172571D01*
X12955333Y-14182095D01*
X12945809Y-14201143D01*
X12936286Y-14210667D01*
X12917238Y-14220190D01*
X12879143Y-14220190D01*
X12860095Y-14229714D01*
X12850571Y-14239238D01*
X12841048Y-14258286D01*
X12841048Y-14296381D01*
X12850571Y-14315428D01*
X12860095Y-14324952D01*
X12879143Y-14334476D01*
X12917238Y-14334476D01*
X12936286Y-14324952D01*
X12945809Y-14315428D01*
X12955333Y-14296381D01*
X12955333Y-14258286D01*
X12945809Y-14239238D01*
X12936286Y-14229714D01*
X12917238Y-14220190D01*
X13031524Y-14153524D02*
X13041048Y-14144000D01*
X13060095Y-14134476D01*
X13107714Y-14134476D01*
X13126762Y-14144000D01*
X13136286Y-14153524D01*
X13145809Y-14172571D01*
X13145809Y-14191619D01*
X13136286Y-14220190D01*
X13022000Y-14334476D01*
X13145809Y-14334476D01*
X13383905Y-14334476D02*
X13383905Y-14134476D01*
X13469619Y-14334476D02*
X13469619Y-14229714D01*
X13460095Y-14210667D01*
X13441048Y-14201143D01*
X13412476Y-14201143D01*
X13393428Y-14210667D01*
X13383905Y-14220190D01*
X13593428Y-14334476D02*
X13574381Y-14324952D01*
X13564857Y-14315428D01*
X13555333Y-14296381D01*
X13555333Y-14239238D01*
X13564857Y-14220190D01*
X13574381Y-14210667D01*
X13593428Y-14201143D01*
X13622000Y-14201143D01*
X13641048Y-14210667D01*
X13650571Y-14220190D01*
X13660095Y-14239238D01*
X13660095Y-14296381D01*
X13650571Y-14315428D01*
X13641048Y-14324952D01*
X13622000Y-14334476D01*
X13593428Y-14334476D01*
X13774381Y-14334476D02*
X13755333Y-14324952D01*
X13745809Y-14305905D01*
X13745809Y-14134476D01*
X13926762Y-14324952D02*
X13907714Y-14334476D01*
X13869619Y-14334476D01*
X13850571Y-14324952D01*
X13841048Y-14305905D01*
X13841048Y-14229714D01*
X13850571Y-14210667D01*
X13869619Y-14201143D01*
X13907714Y-14201143D01*
X13926762Y-14210667D01*
X13936286Y-14229714D01*
X13936286Y-14248762D01*
X13841048Y-14267809D01*
X14012476Y-14324952D02*
X14031524Y-14334476D01*
X14069619Y-14334476D01*
X14088667Y-14324952D01*
X14098190Y-14305905D01*
X14098190Y-14296381D01*
X14088667Y-14277333D01*
X14069619Y-14267809D01*
X14041048Y-14267809D01*
X14022000Y-14258286D01*
X14012476Y-14239238D01*
X14012476Y-14229714D01*
X14022000Y-14210667D01*
X14041048Y-14201143D01*
X14069619Y-14201143D01*
X14088667Y-14210667D01*
X14164857Y-14410667D02*
X14174381Y-14401143D01*
X14193428Y-14372571D01*
X14202952Y-14353524D01*
X14212476Y-14324952D01*
X14222000Y-14277333D01*
X14222000Y-14239238D01*
X14212476Y-14191619D01*
X14202952Y-14163048D01*
X14193428Y-14144000D01*
X14174381Y-14115428D01*
X14164857Y-14105905D01*
D14*
X8974500Y-14470500D02*
X8974500Y-14545500D01*
X8937000Y-14508000D02*
X9012000Y-14508000D01*
D11*
X9307714Y-14398476D02*
X9326762Y-14398476D01*
X9345810Y-14408000D01*
X9355333Y-14417524D01*
X9364857Y-14436571D01*
X9374381Y-14474667D01*
X9374381Y-14522286D01*
X9364857Y-14560381D01*
X9355333Y-14579428D01*
X9345810Y-14588952D01*
X9326762Y-14598476D01*
X9307714Y-14598476D01*
X9288667Y-14588952D01*
X9279143Y-14579428D01*
X9269619Y-14560381D01*
X9260095Y-14522286D01*
X9260095Y-14474667D01*
X9269619Y-14436571D01*
X9279143Y-14417524D01*
X9288667Y-14408000D01*
X9307714Y-14398476D01*
X9460095Y-14579428D02*
X9469619Y-14588952D01*
X9460095Y-14598476D01*
X9450571Y-14588952D01*
X9460095Y-14579428D01*
X9460095Y-14598476D01*
X9536286Y-14398476D02*
X9669619Y-14398476D01*
X9583905Y-14598476D01*
X9841048Y-14398476D02*
X9745810Y-14398476D01*
X9736286Y-14493714D01*
X9745810Y-14484190D01*
X9764857Y-14474667D01*
X9812476Y-14474667D01*
X9831524Y-14484190D01*
X9841048Y-14493714D01*
X9850571Y-14512762D01*
X9850571Y-14560381D01*
X9841048Y-14579428D01*
X9831524Y-14588952D01*
X9812476Y-14598476D01*
X9764857Y-14598476D01*
X9745810Y-14588952D01*
X9736286Y-14579428D01*
X9974381Y-14398476D02*
X9993429Y-14398476D01*
X10012476Y-14408000D01*
X10022000Y-14417524D01*
X10031524Y-14436571D01*
X10041048Y-14474667D01*
X10041048Y-14522286D01*
X10031524Y-14560381D01*
X10022000Y-14579428D01*
X10012476Y-14588952D01*
X9993429Y-14598476D01*
X9974381Y-14598476D01*
X9955333Y-14588952D01*
X9945810Y-14579428D01*
X9936286Y-14560381D01*
X9926762Y-14522286D01*
X9926762Y-14474667D01*
X9936286Y-14436571D01*
X9945810Y-14417524D01*
X9955333Y-14408000D01*
X9974381Y-14398476D01*
X10126762Y-14598476D02*
X10126762Y-14465143D01*
X10126762Y-14484190D02*
X10136286Y-14474667D01*
X10155333Y-14465143D01*
X10183905Y-14465143D01*
X10202952Y-14474667D01*
X10212476Y-14493714D01*
X10212476Y-14598476D01*
X10212476Y-14493714D02*
X10222000Y-14474667D01*
X10241048Y-14465143D01*
X10269619Y-14465143D01*
X10288667Y-14474667D01*
X10298190Y-14493714D01*
X10298190Y-14598476D01*
X10393429Y-14598476D02*
X10393429Y-14465143D01*
X10393429Y-14484190D02*
X10402952Y-14474667D01*
X10422000Y-14465143D01*
X10450571Y-14465143D01*
X10469619Y-14474667D01*
X10479143Y-14493714D01*
X10479143Y-14598476D01*
X10479143Y-14493714D02*
X10488667Y-14474667D01*
X10507714Y-14465143D01*
X10536286Y-14465143D01*
X10555333Y-14474667D01*
X10564857Y-14493714D01*
X10564857Y-14598476D01*
X10955333Y-14388952D02*
X10783905Y-14646095D01*
X11212476Y-14398476D02*
X11231524Y-14398476D01*
X11250571Y-14408000D01*
X11260095Y-14417524D01*
X11269619Y-14436571D01*
X11279143Y-14474667D01*
X11279143Y-14522286D01*
X11269619Y-14560381D01*
X11260095Y-14579428D01*
X11250571Y-14588952D01*
X11231524Y-14598476D01*
X11212476Y-14598476D01*
X11193428Y-14588952D01*
X11183905Y-14579428D01*
X11174381Y-14560381D01*
X11164857Y-14522286D01*
X11164857Y-14474667D01*
X11174381Y-14436571D01*
X11183905Y-14417524D01*
X11193428Y-14408000D01*
X11212476Y-14398476D01*
X11364857Y-14579428D02*
X11374381Y-14588952D01*
X11364857Y-14598476D01*
X11355333Y-14588952D01*
X11364857Y-14579428D01*
X11364857Y-14598476D01*
X11498190Y-14398476D02*
X11517238Y-14398476D01*
X11536286Y-14408000D01*
X11545809Y-14417524D01*
X11555333Y-14436571D01*
X11564857Y-14474667D01*
X11564857Y-14522286D01*
X11555333Y-14560381D01*
X11545809Y-14579428D01*
X11536286Y-14588952D01*
X11517238Y-14598476D01*
X11498190Y-14598476D01*
X11479143Y-14588952D01*
X11469619Y-14579428D01*
X11460095Y-14560381D01*
X11450571Y-14522286D01*
X11450571Y-14474667D01*
X11460095Y-14436571D01*
X11469619Y-14417524D01*
X11479143Y-14408000D01*
X11498190Y-14398476D01*
X11641048Y-14417524D02*
X11650571Y-14408000D01*
X11669619Y-14398476D01*
X11717238Y-14398476D01*
X11736286Y-14408000D01*
X11745809Y-14417524D01*
X11755333Y-14436571D01*
X11755333Y-14455619D01*
X11745809Y-14484190D01*
X11631524Y-14598476D01*
X11755333Y-14598476D01*
X11850571Y-14598476D02*
X11888667Y-14598476D01*
X11907714Y-14588952D01*
X11917238Y-14579428D01*
X11936286Y-14550857D01*
X11945809Y-14512762D01*
X11945809Y-14436571D01*
X11936286Y-14417524D01*
X11926762Y-14408000D01*
X11907714Y-14398476D01*
X11869619Y-14398476D01*
X11850571Y-14408000D01*
X11841048Y-14417524D01*
X11831524Y-14436571D01*
X11831524Y-14484190D01*
X11841048Y-14503238D01*
X11850571Y-14512762D01*
X11869619Y-14522286D01*
X11907714Y-14522286D01*
X11926762Y-14512762D01*
X11936286Y-14503238D01*
X11945809Y-14484190D01*
X12126762Y-14398476D02*
X12031524Y-14398476D01*
X12022000Y-14493714D01*
X12031524Y-14484190D01*
X12050571Y-14474667D01*
X12098190Y-14474667D01*
X12117238Y-14484190D01*
X12126762Y-14493714D01*
X12136286Y-14512762D01*
X12136286Y-14560381D01*
X12126762Y-14579428D01*
X12117238Y-14588952D01*
X12098190Y-14598476D01*
X12050571Y-14598476D01*
X12031524Y-14588952D01*
X12022000Y-14579428D01*
X12212476Y-14398476D02*
X12212476Y-14436571D01*
X12288667Y-14398476D02*
X12288667Y-14436571D01*
X12583905Y-14674667D02*
X12574381Y-14665143D01*
X12555333Y-14636571D01*
X12545809Y-14617524D01*
X12536286Y-14588952D01*
X12526762Y-14541333D01*
X12526762Y-14503238D01*
X12536286Y-14455619D01*
X12545809Y-14427048D01*
X12555333Y-14408000D01*
X12574381Y-14379428D01*
X12583905Y-14369905D01*
X12650571Y-14417524D02*
X12660095Y-14408000D01*
X12679143Y-14398476D01*
X12726762Y-14398476D01*
X12745809Y-14408000D01*
X12755333Y-14417524D01*
X12764857Y-14436571D01*
X12764857Y-14455619D01*
X12755333Y-14484190D01*
X12641048Y-14598476D01*
X12764857Y-14598476D01*
X12936286Y-14465143D02*
X12936286Y-14598476D01*
X12888667Y-14388952D02*
X12841048Y-14531809D01*
X12964857Y-14531809D01*
X13193428Y-14598476D02*
X13193428Y-14398476D01*
X13279143Y-14598476D02*
X13279143Y-14493714D01*
X13269619Y-14474667D01*
X13250571Y-14465143D01*
X13222000Y-14465143D01*
X13202952Y-14474667D01*
X13193428Y-14484190D01*
X13402952Y-14598476D02*
X13383905Y-14588952D01*
X13374381Y-14579428D01*
X13364857Y-14560381D01*
X13364857Y-14503238D01*
X13374381Y-14484190D01*
X13383905Y-14474667D01*
X13402952Y-14465143D01*
X13431524Y-14465143D01*
X13450571Y-14474667D01*
X13460095Y-14484190D01*
X13469619Y-14503238D01*
X13469619Y-14560381D01*
X13460095Y-14579428D01*
X13450571Y-14588952D01*
X13431524Y-14598476D01*
X13402952Y-14598476D01*
X13583905Y-14598476D02*
X13564857Y-14588952D01*
X13555333Y-14569905D01*
X13555333Y-14398476D01*
X13736286Y-14588952D02*
X13717238Y-14598476D01*
X13679143Y-14598476D01*
X13660095Y-14588952D01*
X13650571Y-14569905D01*
X13650571Y-14493714D01*
X13660095Y-14474667D01*
X13679143Y-14465143D01*
X13717238Y-14465143D01*
X13736286Y-14474667D01*
X13745809Y-14493714D01*
X13745809Y-14512762D01*
X13650571Y-14531809D01*
X13822000Y-14588952D02*
X13841048Y-14598476D01*
X13879143Y-14598476D01*
X13898190Y-14588952D01*
X13907714Y-14569905D01*
X13907714Y-14560381D01*
X13898190Y-14541333D01*
X13879143Y-14531809D01*
X13850571Y-14531809D01*
X13831524Y-14522286D01*
X13822000Y-14503238D01*
X13822000Y-14493714D01*
X13831524Y-14474667D01*
X13850571Y-14465143D01*
X13879143Y-14465143D01*
X13898190Y-14474667D01*
X13974381Y-14674667D02*
X13983905Y-14665143D01*
X14002952Y-14636571D01*
X14012476Y-14617524D01*
X14022000Y-14588952D01*
X14031524Y-14541333D01*
X14031524Y-14503238D01*
X14022000Y-14455619D01*
X14012476Y-14427048D01*
X14002952Y-14408000D01*
X13983905Y-14379428D01*
X13974381Y-14369905D01*
D15*
X8999259Y-14802759D02*
X8999259Y-14741241D01*
X8937741Y-14741241D01*
X8937741Y-14802759D01*
X8999259Y-14802759D01*
D11*
X9307714Y-14662476D02*
X9326762Y-14662476D01*
X9345810Y-14672000D01*
X9355333Y-14681524D01*
X9364857Y-14700571D01*
X9374381Y-14738667D01*
X9374381Y-14786286D01*
X9364857Y-14824381D01*
X9355333Y-14843428D01*
X9345810Y-14852952D01*
X9326762Y-14862476D01*
X9307714Y-14862476D01*
X9288667Y-14852952D01*
X9279143Y-14843428D01*
X9269619Y-14824381D01*
X9260095Y-14786286D01*
X9260095Y-14738667D01*
X9269619Y-14700571D01*
X9279143Y-14681524D01*
X9288667Y-14672000D01*
X9307714Y-14662476D01*
X9460095Y-14843428D02*
X9469619Y-14852952D01*
X9460095Y-14862476D01*
X9450571Y-14852952D01*
X9460095Y-14843428D01*
X9460095Y-14862476D01*
X9583905Y-14748190D02*
X9564857Y-14738667D01*
X9555333Y-14729143D01*
X9545810Y-14710095D01*
X9545810Y-14700571D01*
X9555333Y-14681524D01*
X9564857Y-14672000D01*
X9583905Y-14662476D01*
X9622000Y-14662476D01*
X9641048Y-14672000D01*
X9650571Y-14681524D01*
X9660095Y-14700571D01*
X9660095Y-14710095D01*
X9650571Y-14729143D01*
X9641048Y-14738667D01*
X9622000Y-14748190D01*
X9583905Y-14748190D01*
X9564857Y-14757714D01*
X9555333Y-14767238D01*
X9545810Y-14786286D01*
X9545810Y-14824381D01*
X9555333Y-14843428D01*
X9564857Y-14852952D01*
X9583905Y-14862476D01*
X9622000Y-14862476D01*
X9641048Y-14852952D01*
X9650571Y-14843428D01*
X9660095Y-14824381D01*
X9660095Y-14786286D01*
X9650571Y-14767238D01*
X9641048Y-14757714D01*
X9622000Y-14748190D01*
X9726762Y-14662476D02*
X9860095Y-14662476D01*
X9774381Y-14862476D01*
X9974381Y-14662476D02*
X9993429Y-14662476D01*
X10012476Y-14672000D01*
X10022000Y-14681524D01*
X10031524Y-14700571D01*
X10041048Y-14738667D01*
X10041048Y-14786286D01*
X10031524Y-14824381D01*
X10022000Y-14843428D01*
X10012476Y-14852952D01*
X9993429Y-14862476D01*
X9974381Y-14862476D01*
X9955333Y-14852952D01*
X9945810Y-14843428D01*
X9936286Y-14824381D01*
X9926762Y-14786286D01*
X9926762Y-14738667D01*
X9936286Y-14700571D01*
X9945810Y-14681524D01*
X9955333Y-14672000D01*
X9974381Y-14662476D01*
X10126762Y-14862476D02*
X10126762Y-14729143D01*
X10126762Y-14748190D02*
X10136286Y-14738667D01*
X10155333Y-14729143D01*
X10183905Y-14729143D01*
X10202952Y-14738667D01*
X10212476Y-14757714D01*
X10212476Y-14862476D01*
X10212476Y-14757714D02*
X10222000Y-14738667D01*
X10241048Y-14729143D01*
X10269619Y-14729143D01*
X10288667Y-14738667D01*
X10298190Y-14757714D01*
X10298190Y-14862476D01*
X10393429Y-14862476D02*
X10393429Y-14729143D01*
X10393429Y-14748190D02*
X10402952Y-14738667D01*
X10422000Y-14729143D01*
X10450571Y-14729143D01*
X10469619Y-14738667D01*
X10479143Y-14757714D01*
X10479143Y-14862476D01*
X10479143Y-14757714D02*
X10488667Y-14738667D01*
X10507714Y-14729143D01*
X10536286Y-14729143D01*
X10555333Y-14738667D01*
X10564857Y-14757714D01*
X10564857Y-14862476D01*
X10955333Y-14652952D02*
X10783905Y-14910095D01*
X11212476Y-14662476D02*
X11231524Y-14662476D01*
X11250571Y-14672000D01*
X11260095Y-14681524D01*
X11269619Y-14700571D01*
X11279143Y-14738667D01*
X11279143Y-14786286D01*
X11269619Y-14824381D01*
X11260095Y-14843428D01*
X11250571Y-14852952D01*
X11231524Y-14862476D01*
X11212476Y-14862476D01*
X11193428Y-14852952D01*
X11183905Y-14843428D01*
X11174381Y-14824381D01*
X11164857Y-14786286D01*
X11164857Y-14738667D01*
X11174381Y-14700571D01*
X11183905Y-14681524D01*
X11193428Y-14672000D01*
X11212476Y-14662476D01*
X11364857Y-14843428D02*
X11374381Y-14852952D01*
X11364857Y-14862476D01*
X11355333Y-14852952D01*
X11364857Y-14843428D01*
X11364857Y-14862476D01*
X11498190Y-14662476D02*
X11517238Y-14662476D01*
X11536286Y-14672000D01*
X11545809Y-14681524D01*
X11555333Y-14700571D01*
X11564857Y-14738667D01*
X11564857Y-14786286D01*
X11555333Y-14824381D01*
X11545809Y-14843428D01*
X11536286Y-14852952D01*
X11517238Y-14862476D01*
X11498190Y-14862476D01*
X11479143Y-14852952D01*
X11469619Y-14843428D01*
X11460095Y-14824381D01*
X11450571Y-14786286D01*
X11450571Y-14738667D01*
X11460095Y-14700571D01*
X11469619Y-14681524D01*
X11479143Y-14672000D01*
X11498190Y-14662476D01*
X11631524Y-14662476D02*
X11755333Y-14662476D01*
X11688667Y-14738667D01*
X11717238Y-14738667D01*
X11736286Y-14748190D01*
X11745809Y-14757714D01*
X11755333Y-14776762D01*
X11755333Y-14824381D01*
X11745809Y-14843428D01*
X11736286Y-14852952D01*
X11717238Y-14862476D01*
X11660095Y-14862476D01*
X11641048Y-14852952D01*
X11631524Y-14843428D01*
X11926762Y-14729143D02*
X11926762Y-14862476D01*
X11879143Y-14652952D02*
X11831524Y-14795809D01*
X11955333Y-14795809D01*
X12012476Y-14662476D02*
X12136286Y-14662476D01*
X12069619Y-14738667D01*
X12098190Y-14738667D01*
X12117238Y-14748190D01*
X12126762Y-14757714D01*
X12136286Y-14776762D01*
X12136286Y-14824381D01*
X12126762Y-14843428D01*
X12117238Y-14852952D01*
X12098190Y-14862476D01*
X12041048Y-14862476D01*
X12022000Y-14852952D01*
X12012476Y-14843428D01*
X12212476Y-14662476D02*
X12212476Y-14700571D01*
X12288667Y-14662476D02*
X12288667Y-14700571D01*
X12583905Y-14938667D02*
X12574381Y-14929143D01*
X12555333Y-14900571D01*
X12545809Y-14881524D01*
X12536286Y-14852952D01*
X12526762Y-14805333D01*
X12526762Y-14767238D01*
X12536286Y-14719619D01*
X12545809Y-14691048D01*
X12555333Y-14672000D01*
X12574381Y-14643428D01*
X12583905Y-14633905D01*
X12650571Y-14681524D02*
X12660095Y-14672000D01*
X12679143Y-14662476D01*
X12726762Y-14662476D01*
X12745809Y-14672000D01*
X12755333Y-14681524D01*
X12764857Y-14700571D01*
X12764857Y-14719619D01*
X12755333Y-14748190D01*
X12641048Y-14862476D01*
X12764857Y-14862476D01*
X13002952Y-14862476D02*
X13002952Y-14662476D01*
X13088667Y-14862476D02*
X13088667Y-14757714D01*
X13079143Y-14738667D01*
X13060095Y-14729143D01*
X13031524Y-14729143D01*
X13012476Y-14738667D01*
X13002952Y-14748190D01*
X13212476Y-14862476D02*
X13193428Y-14852952D01*
X13183905Y-14843428D01*
X13174381Y-14824381D01*
X13174381Y-14767238D01*
X13183905Y-14748190D01*
X13193428Y-14738667D01*
X13212476Y-14729143D01*
X13241048Y-14729143D01*
X13260095Y-14738667D01*
X13269619Y-14748190D01*
X13279143Y-14767238D01*
X13279143Y-14824381D01*
X13269619Y-14843428D01*
X13260095Y-14852952D01*
X13241048Y-14862476D01*
X13212476Y-14862476D01*
X13393428Y-14862476D02*
X13374381Y-14852952D01*
X13364857Y-14833905D01*
X13364857Y-14662476D01*
X13545809Y-14852952D02*
X13526762Y-14862476D01*
X13488667Y-14862476D01*
X13469619Y-14852952D01*
X13460095Y-14833905D01*
X13460095Y-14757714D01*
X13469619Y-14738667D01*
X13488667Y-14729143D01*
X13526762Y-14729143D01*
X13545809Y-14738667D01*
X13555333Y-14757714D01*
X13555333Y-14776762D01*
X13460095Y-14795809D01*
X13631524Y-14852952D02*
X13650571Y-14862476D01*
X13688667Y-14862476D01*
X13707714Y-14852952D01*
X13717238Y-14833905D01*
X13717238Y-14824381D01*
X13707714Y-14805333D01*
X13688667Y-14795809D01*
X13660095Y-14795809D01*
X13641048Y-14786286D01*
X13631524Y-14767238D01*
X13631524Y-14757714D01*
X13641048Y-14738667D01*
X13660095Y-14729143D01*
X13688667Y-14729143D01*
X13707714Y-14738667D01*
X13783905Y-14938667D02*
X13793428Y-14929143D01*
X13812476Y-14900571D01*
X13822000Y-14881524D01*
X13831524Y-14852952D01*
X13841048Y-14805333D01*
X13841048Y-14767238D01*
X13831524Y-14719619D01*
X13822000Y-14691048D01*
X13812476Y-14672000D01*
X13793428Y-14643428D01*
X13783905Y-14633905D01*
D16*
X8962000Y-15086000D02*
X9012000Y-15036000D01*
X8962000Y-14986000D01*
X8912000Y-15036000D01*
X8962000Y-15086000D01*
D11*
X9374381Y-15126476D02*
X9260095Y-15126476D01*
X9317238Y-15126476D02*
X9317238Y-14926476D01*
X9298190Y-14955048D01*
X9279143Y-14974095D01*
X9260095Y-14983619D01*
X9460095Y-15107428D02*
X9469619Y-15116952D01*
X9460095Y-15126476D01*
X9450571Y-15116952D01*
X9460095Y-15107428D01*
X9460095Y-15126476D01*
X9593429Y-14926476D02*
X9612476Y-14926476D01*
X9631524Y-14936000D01*
X9641048Y-14945524D01*
X9650571Y-14964571D01*
X9660095Y-15002667D01*
X9660095Y-15050286D01*
X9650571Y-15088381D01*
X9641048Y-15107428D01*
X9631524Y-15116952D01*
X9612476Y-15126476D01*
X9593429Y-15126476D01*
X9574381Y-15116952D01*
X9564857Y-15107428D01*
X9555333Y-15088381D01*
X9545810Y-15050286D01*
X9545810Y-15002667D01*
X9555333Y-14964571D01*
X9564857Y-14945524D01*
X9574381Y-14936000D01*
X9593429Y-14926476D01*
X9783905Y-14926476D02*
X9802952Y-14926476D01*
X9822000Y-14936000D01*
X9831524Y-14945524D01*
X9841048Y-14964571D01*
X9850571Y-15002667D01*
X9850571Y-15050286D01*
X9841048Y-15088381D01*
X9831524Y-15107428D01*
X9822000Y-15116952D01*
X9802952Y-15126476D01*
X9783905Y-15126476D01*
X9764857Y-15116952D01*
X9755333Y-15107428D01*
X9745810Y-15088381D01*
X9736286Y-15050286D01*
X9736286Y-15002667D01*
X9745810Y-14964571D01*
X9755333Y-14945524D01*
X9764857Y-14936000D01*
X9783905Y-14926476D01*
X9974381Y-14926476D02*
X9993429Y-14926476D01*
X10012476Y-14936000D01*
X10022000Y-14945524D01*
X10031524Y-14964571D01*
X10041048Y-15002667D01*
X10041048Y-15050286D01*
X10031524Y-15088381D01*
X10022000Y-15107428D01*
X10012476Y-15116952D01*
X9993429Y-15126476D01*
X9974381Y-15126476D01*
X9955333Y-15116952D01*
X9945810Y-15107428D01*
X9936286Y-15088381D01*
X9926762Y-15050286D01*
X9926762Y-15002667D01*
X9936286Y-14964571D01*
X9945810Y-14945524D01*
X9955333Y-14936000D01*
X9974381Y-14926476D01*
X10126762Y-15126476D02*
X10126762Y-14993143D01*
X10126762Y-15012190D02*
X10136286Y-15002667D01*
X10155333Y-14993143D01*
X10183905Y-14993143D01*
X10202952Y-15002667D01*
X10212476Y-15021714D01*
X10212476Y-15126476D01*
X10212476Y-15021714D02*
X10222000Y-15002667D01*
X10241048Y-14993143D01*
X10269619Y-14993143D01*
X10288667Y-15002667D01*
X10298190Y-15021714D01*
X10298190Y-15126476D01*
X10393429Y-15126476D02*
X10393429Y-14993143D01*
X10393429Y-15012190D02*
X10402952Y-15002667D01*
X10422000Y-14993143D01*
X10450571Y-14993143D01*
X10469619Y-15002667D01*
X10479143Y-15021714D01*
X10479143Y-15126476D01*
X10479143Y-15021714D02*
X10488667Y-15002667D01*
X10507714Y-14993143D01*
X10536286Y-14993143D01*
X10555333Y-15002667D01*
X10564857Y-15021714D01*
X10564857Y-15126476D01*
X10955333Y-14916952D02*
X10783905Y-15174095D01*
X11212476Y-14926476D02*
X11231524Y-14926476D01*
X11250571Y-14936000D01*
X11260095Y-14945524D01*
X11269619Y-14964571D01*
X11279143Y-15002667D01*
X11279143Y-15050286D01*
X11269619Y-15088381D01*
X11260095Y-15107428D01*
X11250571Y-15116952D01*
X11231524Y-15126476D01*
X11212476Y-15126476D01*
X11193428Y-15116952D01*
X11183905Y-15107428D01*
X11174381Y-15088381D01*
X11164857Y-15050286D01*
X11164857Y-15002667D01*
X11174381Y-14964571D01*
X11183905Y-14945524D01*
X11193428Y-14936000D01*
X11212476Y-14926476D01*
X11364857Y-15107428D02*
X11374381Y-15116952D01*
X11364857Y-15126476D01*
X11355333Y-15116952D01*
X11364857Y-15107428D01*
X11364857Y-15126476D01*
X11498190Y-14926476D02*
X11517238Y-14926476D01*
X11536286Y-14936000D01*
X11545809Y-14945524D01*
X11555333Y-14964571D01*
X11564857Y-15002667D01*
X11564857Y-15050286D01*
X11555333Y-15088381D01*
X11545809Y-15107428D01*
X11536286Y-15116952D01*
X11517238Y-15126476D01*
X11498190Y-15126476D01*
X11479143Y-15116952D01*
X11469619Y-15107428D01*
X11460095Y-15088381D01*
X11450571Y-15050286D01*
X11450571Y-15002667D01*
X11460095Y-14964571D01*
X11469619Y-14945524D01*
X11479143Y-14936000D01*
X11498190Y-14926476D01*
X11631524Y-14926476D02*
X11755333Y-14926476D01*
X11688667Y-15002667D01*
X11717238Y-15002667D01*
X11736286Y-15012190D01*
X11745809Y-15021714D01*
X11755333Y-15040762D01*
X11755333Y-15088381D01*
X11745809Y-15107428D01*
X11736286Y-15116952D01*
X11717238Y-15126476D01*
X11660095Y-15126476D01*
X11641048Y-15116952D01*
X11631524Y-15107428D01*
X11850571Y-15126476D02*
X11888667Y-15126476D01*
X11907714Y-15116952D01*
X11917238Y-15107428D01*
X11936286Y-15078857D01*
X11945809Y-15040762D01*
X11945809Y-14964571D01*
X11936286Y-14945524D01*
X11926762Y-14936000D01*
X11907714Y-14926476D01*
X11869619Y-14926476D01*
X11850571Y-14936000D01*
X11841048Y-14945524D01*
X11831524Y-14964571D01*
X11831524Y-15012190D01*
X11841048Y-15031238D01*
X11850571Y-15040762D01*
X11869619Y-15050286D01*
X11907714Y-15050286D01*
X11926762Y-15040762D01*
X11936286Y-15031238D01*
X11945809Y-15012190D01*
X12117238Y-14993143D02*
X12117238Y-15126476D01*
X12069619Y-14916952D02*
X12022000Y-15059809D01*
X12145809Y-15059809D01*
X12212476Y-14926476D02*
X12212476Y-14964571D01*
X12288667Y-14926476D02*
X12288667Y-14964571D01*
X12583905Y-15202667D02*
X12574381Y-15193143D01*
X12555333Y-15164571D01*
X12545809Y-15145524D01*
X12536286Y-15116952D01*
X12526762Y-15069333D01*
X12526762Y-15031238D01*
X12536286Y-14983619D01*
X12545809Y-14955048D01*
X12555333Y-14936000D01*
X12574381Y-14907428D01*
X12583905Y-14897905D01*
X12764857Y-15126476D02*
X12650571Y-15126476D01*
X12707714Y-15126476D02*
X12707714Y-14926476D01*
X12688667Y-14955048D01*
X12669619Y-14974095D01*
X12650571Y-14983619D01*
X12936286Y-14926476D02*
X12898190Y-14926476D01*
X12879143Y-14936000D01*
X12869619Y-14945524D01*
X12850571Y-14974095D01*
X12841048Y-15012190D01*
X12841048Y-15088381D01*
X12850571Y-15107428D01*
X12860095Y-15116952D01*
X12879143Y-15126476D01*
X12917238Y-15126476D01*
X12936286Y-15116952D01*
X12945809Y-15107428D01*
X12955333Y-15088381D01*
X12955333Y-15040762D01*
X12945809Y-15021714D01*
X12936286Y-15012190D01*
X12917238Y-15002667D01*
X12879143Y-15002667D01*
X12860095Y-15012190D01*
X12850571Y-15021714D01*
X12841048Y-15040762D01*
X13193428Y-15126476D02*
X13193428Y-14926476D01*
X13279143Y-15126476D02*
X13279143Y-15021714D01*
X13269619Y-15002667D01*
X13250571Y-14993143D01*
X13222000Y-14993143D01*
X13202952Y-15002667D01*
X13193428Y-15012190D01*
X13402952Y-15126476D02*
X13383905Y-15116952D01*
X13374381Y-15107428D01*
X13364857Y-15088381D01*
X13364857Y-15031238D01*
X13374381Y-15012190D01*
X13383905Y-15002667D01*
X13402952Y-14993143D01*
X13431524Y-14993143D01*
X13450571Y-15002667D01*
X13460095Y-15012190D01*
X13469619Y-15031238D01*
X13469619Y-15088381D01*
X13460095Y-15107428D01*
X13450571Y-15116952D01*
X13431524Y-15126476D01*
X13402952Y-15126476D01*
X13583905Y-15126476D02*
X13564857Y-15116952D01*
X13555333Y-15097905D01*
X13555333Y-14926476D01*
X13736286Y-15116952D02*
X13717238Y-15126476D01*
X13679143Y-15126476D01*
X13660095Y-15116952D01*
X13650571Y-15097905D01*
X13650571Y-15021714D01*
X13660095Y-15002667D01*
X13679143Y-14993143D01*
X13717238Y-14993143D01*
X13736286Y-15002667D01*
X13745809Y-15021714D01*
X13745809Y-15040762D01*
X13650571Y-15059809D01*
X13822000Y-15116952D02*
X13841048Y-15126476D01*
X13879143Y-15126476D01*
X13898190Y-15116952D01*
X13907714Y-15097905D01*
X13907714Y-15088381D01*
X13898190Y-15069333D01*
X13879143Y-15059809D01*
X13850571Y-15059809D01*
X13831524Y-15050286D01*
X13822000Y-15031238D01*
X13822000Y-15021714D01*
X13831524Y-15002667D01*
X13850571Y-14993143D01*
X13879143Y-14993143D01*
X13898190Y-15002667D01*
X13974381Y-15202667D02*
X13983905Y-15193143D01*
X14002952Y-15164571D01*
X14012476Y-15145524D01*
X14022000Y-15116952D01*
X14031524Y-15069333D01*
X14031524Y-15031238D01*
X14022000Y-14983619D01*
X14012476Y-14955048D01*
X14002952Y-14936000D01*
X13983905Y-14907428D01*
X13974381Y-14897905D01*
D17*
X8902000Y-15245000D02*
X9012000Y-15355000D01*
X9012000Y-15245000D02*
X8902000Y-15355000D01*
X9012000Y-15300000D02*
G75*
G03*
X9012000Y-15300000I-55000J0D01*
G01*
D11*
X9374381Y-15390476D02*
X9260095Y-15390476D01*
X9317238Y-15390476D02*
X9317238Y-15190476D01*
X9298190Y-15219048D01*
X9279143Y-15238095D01*
X9260095Y-15247619D01*
X9460095Y-15371428D02*
X9469619Y-15380952D01*
X9460095Y-15390476D01*
X9450571Y-15380952D01*
X9460095Y-15371428D01*
X9460095Y-15390476D01*
X9660095Y-15390476D02*
X9545810Y-15390476D01*
X9602952Y-15390476D02*
X9602952Y-15190476D01*
X9583905Y-15219048D01*
X9564857Y-15238095D01*
X9545810Y-15247619D01*
X9783905Y-15190476D02*
X9802952Y-15190476D01*
X9822000Y-15200000D01*
X9831524Y-15209524D01*
X9841048Y-15228571D01*
X9850571Y-15266667D01*
X9850571Y-15314286D01*
X9841048Y-15352381D01*
X9831524Y-15371428D01*
X9822000Y-15380952D01*
X9802952Y-15390476D01*
X9783905Y-15390476D01*
X9764857Y-15380952D01*
X9755333Y-15371428D01*
X9745810Y-15352381D01*
X9736286Y-15314286D01*
X9736286Y-15266667D01*
X9745810Y-15228571D01*
X9755333Y-15209524D01*
X9764857Y-15200000D01*
X9783905Y-15190476D01*
X9974381Y-15190476D02*
X9993429Y-15190476D01*
X10012476Y-15200000D01*
X10022000Y-15209524D01*
X10031524Y-15228571D01*
X10041048Y-15266667D01*
X10041048Y-15314286D01*
X10031524Y-15352381D01*
X10022000Y-15371428D01*
X10012476Y-15380952D01*
X9993429Y-15390476D01*
X9974381Y-15390476D01*
X9955333Y-15380952D01*
X9945810Y-15371428D01*
X9936286Y-15352381D01*
X9926762Y-15314286D01*
X9926762Y-15266667D01*
X9936286Y-15228571D01*
X9945810Y-15209524D01*
X9955333Y-15200000D01*
X9974381Y-15190476D01*
X10126762Y-15390476D02*
X10126762Y-15257143D01*
X10126762Y-15276190D02*
X10136286Y-15266667D01*
X10155333Y-15257143D01*
X10183905Y-15257143D01*
X10202952Y-15266667D01*
X10212476Y-15285714D01*
X10212476Y-15390476D01*
X10212476Y-15285714D02*
X10222000Y-15266667D01*
X10241048Y-15257143D01*
X10269619Y-15257143D01*
X10288667Y-15266667D01*
X10298190Y-15285714D01*
X10298190Y-15390476D01*
X10393429Y-15390476D02*
X10393429Y-15257143D01*
X10393429Y-15276190D02*
X10402952Y-15266667D01*
X10422000Y-15257143D01*
X10450571Y-15257143D01*
X10469619Y-15266667D01*
X10479143Y-15285714D01*
X10479143Y-15390476D01*
X10479143Y-15285714D02*
X10488667Y-15266667D01*
X10507714Y-15257143D01*
X10536286Y-15257143D01*
X10555333Y-15266667D01*
X10564857Y-15285714D01*
X10564857Y-15390476D01*
X10955333Y-15180952D02*
X10783905Y-15438095D01*
X11212476Y-15190476D02*
X11231524Y-15190476D01*
X11250571Y-15200000D01*
X11260095Y-15209524D01*
X11269619Y-15228571D01*
X11279143Y-15266667D01*
X11279143Y-15314286D01*
X11269619Y-15352381D01*
X11260095Y-15371428D01*
X11250571Y-15380952D01*
X11231524Y-15390476D01*
X11212476Y-15390476D01*
X11193428Y-15380952D01*
X11183905Y-15371428D01*
X11174381Y-15352381D01*
X11164857Y-15314286D01*
X11164857Y-15266667D01*
X11174381Y-15228571D01*
X11183905Y-15209524D01*
X11193428Y-15200000D01*
X11212476Y-15190476D01*
X11364857Y-15371428D02*
X11374381Y-15380952D01*
X11364857Y-15390476D01*
X11355333Y-15380952D01*
X11364857Y-15371428D01*
X11364857Y-15390476D01*
X11498190Y-15190476D02*
X11517238Y-15190476D01*
X11536286Y-15200000D01*
X11545809Y-15209524D01*
X11555333Y-15228571D01*
X11564857Y-15266667D01*
X11564857Y-15314286D01*
X11555333Y-15352381D01*
X11545809Y-15371428D01*
X11536286Y-15380952D01*
X11517238Y-15390476D01*
X11498190Y-15390476D01*
X11479143Y-15380952D01*
X11469619Y-15371428D01*
X11460095Y-15352381D01*
X11450571Y-15314286D01*
X11450571Y-15266667D01*
X11460095Y-15228571D01*
X11469619Y-15209524D01*
X11479143Y-15200000D01*
X11498190Y-15190476D01*
X11736286Y-15257143D02*
X11736286Y-15390476D01*
X11688667Y-15180952D02*
X11641048Y-15323809D01*
X11764857Y-15323809D01*
X11822000Y-15190476D02*
X11945809Y-15190476D01*
X11879143Y-15266667D01*
X11907714Y-15266667D01*
X11926762Y-15276190D01*
X11936286Y-15285714D01*
X11945809Y-15304762D01*
X11945809Y-15352381D01*
X11936286Y-15371428D01*
X11926762Y-15380952D01*
X11907714Y-15390476D01*
X11850571Y-15390476D01*
X11831524Y-15380952D01*
X11822000Y-15371428D01*
X12012476Y-15190476D02*
X12136286Y-15190476D01*
X12069619Y-15266667D01*
X12098190Y-15266667D01*
X12117238Y-15276190D01*
X12126762Y-15285714D01*
X12136286Y-15304762D01*
X12136286Y-15352381D01*
X12126762Y-15371428D01*
X12117238Y-15380952D01*
X12098190Y-15390476D01*
X12041048Y-15390476D01*
X12022000Y-15380952D01*
X12012476Y-15371428D01*
X12212476Y-15190476D02*
X12212476Y-15228571D01*
X12288667Y-15190476D02*
X12288667Y-15228571D01*
X12583905Y-15466667D02*
X12574381Y-15457143D01*
X12555333Y-15428571D01*
X12545809Y-15409524D01*
X12536286Y-15380952D01*
X12526762Y-15333333D01*
X12526762Y-15295238D01*
X12536286Y-15247619D01*
X12545809Y-15219048D01*
X12555333Y-15200000D01*
X12574381Y-15171428D01*
X12583905Y-15161905D01*
X12650571Y-15209524D02*
X12660095Y-15200000D01*
X12679143Y-15190476D01*
X12726762Y-15190476D01*
X12745809Y-15200000D01*
X12755333Y-15209524D01*
X12764857Y-15228571D01*
X12764857Y-15247619D01*
X12755333Y-15276190D01*
X12641048Y-15390476D01*
X12764857Y-15390476D01*
X12879143Y-15276190D02*
X12860095Y-15266667D01*
X12850571Y-15257143D01*
X12841048Y-15238095D01*
X12841048Y-15228571D01*
X12850571Y-15209524D01*
X12860095Y-15200000D01*
X12879143Y-15190476D01*
X12917238Y-15190476D01*
X12936286Y-15200000D01*
X12945809Y-15209524D01*
X12955333Y-15228571D01*
X12955333Y-15238095D01*
X12945809Y-15257143D01*
X12936286Y-15266667D01*
X12917238Y-15276190D01*
X12879143Y-15276190D01*
X12860095Y-15285714D01*
X12850571Y-15295238D01*
X12841048Y-15314286D01*
X12841048Y-15352381D01*
X12850571Y-15371428D01*
X12860095Y-15380952D01*
X12879143Y-15390476D01*
X12917238Y-15390476D01*
X12936286Y-15380952D01*
X12945809Y-15371428D01*
X12955333Y-15352381D01*
X12955333Y-15314286D01*
X12945809Y-15295238D01*
X12936286Y-15285714D01*
X12917238Y-15276190D01*
X13193428Y-15390476D02*
X13193428Y-15190476D01*
X13279143Y-15390476D02*
X13279143Y-15285714D01*
X13269619Y-15266667D01*
X13250571Y-15257143D01*
X13222000Y-15257143D01*
X13202952Y-15266667D01*
X13193428Y-15276190D01*
X13402952Y-15390476D02*
X13383905Y-15380952D01*
X13374381Y-15371428D01*
X13364857Y-15352381D01*
X13364857Y-15295238D01*
X13374381Y-15276190D01*
X13383905Y-15266667D01*
X13402952Y-15257143D01*
X13431524Y-15257143D01*
X13450571Y-15266667D01*
X13460095Y-15276190D01*
X13469619Y-15295238D01*
X13469619Y-15352381D01*
X13460095Y-15371428D01*
X13450571Y-15380952D01*
X13431524Y-15390476D01*
X13402952Y-15390476D01*
X13583905Y-15390476D02*
X13564857Y-15380952D01*
X13555333Y-15361905D01*
X13555333Y-15190476D01*
X13736286Y-15380952D02*
X13717238Y-15390476D01*
X13679143Y-15390476D01*
X13660095Y-15380952D01*
X13650571Y-15361905D01*
X13650571Y-15285714D01*
X13660095Y-15266667D01*
X13679143Y-15257143D01*
X13717238Y-15257143D01*
X13736286Y-15266667D01*
X13745809Y-15285714D01*
X13745809Y-15304762D01*
X13650571Y-15323809D01*
X13822000Y-15380952D02*
X13841048Y-15390476D01*
X13879143Y-15390476D01*
X13898190Y-15380952D01*
X13907714Y-15361905D01*
X13907714Y-15352381D01*
X13898190Y-15333333D01*
X13879143Y-15323809D01*
X13850571Y-15323809D01*
X13831524Y-15314286D01*
X13822000Y-15295238D01*
X13822000Y-15285714D01*
X13831524Y-15266667D01*
X13850571Y-15257143D01*
X13879143Y-15257143D01*
X13898190Y-15266667D01*
X13974381Y-15466667D02*
X13983905Y-15457143D01*
X14002952Y-15428571D01*
X14012476Y-15409524D01*
X14022000Y-15380952D01*
X14031524Y-15333333D01*
X14031524Y-15295238D01*
X14022000Y-15247619D01*
X14012476Y-15219048D01*
X14002952Y-15200000D01*
X13983905Y-15171428D01*
X13974381Y-15161905D01*
D18*
X8892000Y-15504000D02*
X9012000Y-15624000D01*
X9012000Y-15504000D02*
X8892000Y-15624000D01*
X8952000Y-15504000D02*
X8952000Y-15624000D01*
X8892000Y-15564000D02*
X9012000Y-15564000D01*
D11*
X9374381Y-15654476D02*
X9260095Y-15654476D01*
X9317238Y-15654476D02*
X9317238Y-15454476D01*
X9298190Y-15483048D01*
X9279143Y-15502095D01*
X9260095Y-15511619D01*
X9460095Y-15635428D02*
X9469619Y-15644952D01*
X9460095Y-15654476D01*
X9450571Y-15644952D01*
X9460095Y-15635428D01*
X9460095Y-15654476D01*
X9545810Y-15473524D02*
X9555333Y-15464000D01*
X9574381Y-15454476D01*
X9622000Y-15454476D01*
X9641048Y-15464000D01*
X9650571Y-15473524D01*
X9660095Y-15492571D01*
X9660095Y-15511619D01*
X9650571Y-15540190D01*
X9536286Y-15654476D01*
X9660095Y-15654476D01*
X9783905Y-15454476D02*
X9802952Y-15454476D01*
X9822000Y-15464000D01*
X9831524Y-15473524D01*
X9841048Y-15492571D01*
X9850571Y-15530667D01*
X9850571Y-15578286D01*
X9841048Y-15616381D01*
X9831524Y-15635428D01*
X9822000Y-15644952D01*
X9802952Y-15654476D01*
X9783905Y-15654476D01*
X9764857Y-15644952D01*
X9755333Y-15635428D01*
X9745810Y-15616381D01*
X9736286Y-15578286D01*
X9736286Y-15530667D01*
X9745810Y-15492571D01*
X9755333Y-15473524D01*
X9764857Y-15464000D01*
X9783905Y-15454476D01*
X9974381Y-15454476D02*
X9993429Y-15454476D01*
X10012476Y-15464000D01*
X10022000Y-15473524D01*
X10031524Y-15492571D01*
X10041048Y-15530667D01*
X10041048Y-15578286D01*
X10031524Y-15616381D01*
X10022000Y-15635428D01*
X10012476Y-15644952D01*
X9993429Y-15654476D01*
X9974381Y-15654476D01*
X9955333Y-15644952D01*
X9945810Y-15635428D01*
X9936286Y-15616381D01*
X9926762Y-15578286D01*
X9926762Y-15530667D01*
X9936286Y-15492571D01*
X9945810Y-15473524D01*
X9955333Y-15464000D01*
X9974381Y-15454476D01*
X10126762Y-15654476D02*
X10126762Y-15521143D01*
X10126762Y-15540190D02*
X10136286Y-15530667D01*
X10155333Y-15521143D01*
X10183905Y-15521143D01*
X10202952Y-15530667D01*
X10212476Y-15549714D01*
X10212476Y-15654476D01*
X10212476Y-15549714D02*
X10222000Y-15530667D01*
X10241048Y-15521143D01*
X10269619Y-15521143D01*
X10288667Y-15530667D01*
X10298190Y-15549714D01*
X10298190Y-15654476D01*
X10393429Y-15654476D02*
X10393429Y-15521143D01*
X10393429Y-15540190D02*
X10402952Y-15530667D01*
X10422000Y-15521143D01*
X10450571Y-15521143D01*
X10469619Y-15530667D01*
X10479143Y-15549714D01*
X10479143Y-15654476D01*
X10479143Y-15549714D02*
X10488667Y-15530667D01*
X10507714Y-15521143D01*
X10536286Y-15521143D01*
X10555333Y-15530667D01*
X10564857Y-15549714D01*
X10564857Y-15654476D01*
X10955333Y-15444952D02*
X10783905Y-15702095D01*
X11212476Y-15454476D02*
X11231524Y-15454476D01*
X11250571Y-15464000D01*
X11260095Y-15473524D01*
X11269619Y-15492571D01*
X11279143Y-15530667D01*
X11279143Y-15578286D01*
X11269619Y-15616381D01*
X11260095Y-15635428D01*
X11250571Y-15644952D01*
X11231524Y-15654476D01*
X11212476Y-15654476D01*
X11193428Y-15644952D01*
X11183905Y-15635428D01*
X11174381Y-15616381D01*
X11164857Y-15578286D01*
X11164857Y-15530667D01*
X11174381Y-15492571D01*
X11183905Y-15473524D01*
X11193428Y-15464000D01*
X11212476Y-15454476D01*
X11364857Y-15635428D02*
X11374381Y-15644952D01*
X11364857Y-15654476D01*
X11355333Y-15644952D01*
X11364857Y-15635428D01*
X11364857Y-15654476D01*
X11498190Y-15454476D02*
X11517238Y-15454476D01*
X11536286Y-15464000D01*
X11545809Y-15473524D01*
X11555333Y-15492571D01*
X11564857Y-15530667D01*
X11564857Y-15578286D01*
X11555333Y-15616381D01*
X11545809Y-15635428D01*
X11536286Y-15644952D01*
X11517238Y-15654476D01*
X11498190Y-15654476D01*
X11479143Y-15644952D01*
X11469619Y-15635428D01*
X11460095Y-15616381D01*
X11450571Y-15578286D01*
X11450571Y-15530667D01*
X11460095Y-15492571D01*
X11469619Y-15473524D01*
X11479143Y-15464000D01*
X11498190Y-15454476D01*
X11736286Y-15521143D02*
X11736286Y-15654476D01*
X11688667Y-15444952D02*
X11641048Y-15587809D01*
X11764857Y-15587809D01*
X11822000Y-15454476D02*
X11955333Y-15454476D01*
X11869619Y-15654476D01*
X12022000Y-15473524D02*
X12031524Y-15464000D01*
X12050571Y-15454476D01*
X12098190Y-15454476D01*
X12117238Y-15464000D01*
X12126762Y-15473524D01*
X12136286Y-15492571D01*
X12136286Y-15511619D01*
X12126762Y-15540190D01*
X12012476Y-15654476D01*
X12136286Y-15654476D01*
X12212476Y-15454476D02*
X12212476Y-15492571D01*
X12288667Y-15454476D02*
X12288667Y-15492571D01*
X12583905Y-15730667D02*
X12574381Y-15721143D01*
X12555333Y-15692571D01*
X12545809Y-15673524D01*
X12536286Y-15644952D01*
X12526762Y-15597333D01*
X12526762Y-15559238D01*
X12536286Y-15511619D01*
X12545809Y-15483048D01*
X12555333Y-15464000D01*
X12574381Y-15435428D01*
X12583905Y-15425905D01*
X12650571Y-15473524D02*
X12660095Y-15464000D01*
X12679143Y-15454476D01*
X12726762Y-15454476D01*
X12745809Y-15464000D01*
X12755333Y-15473524D01*
X12764857Y-15492571D01*
X12764857Y-15511619D01*
X12755333Y-15540190D01*
X12641048Y-15654476D01*
X12764857Y-15654476D01*
X13002952Y-15654476D02*
X13002952Y-15454476D01*
X13088667Y-15654476D02*
X13088667Y-15549714D01*
X13079143Y-15530667D01*
X13060095Y-15521143D01*
X13031524Y-15521143D01*
X13012476Y-15530667D01*
X13002952Y-15540190D01*
X13212476Y-15654476D02*
X13193428Y-15644952D01*
X13183905Y-15635428D01*
X13174381Y-15616381D01*
X13174381Y-15559238D01*
X13183905Y-15540190D01*
X13193428Y-15530667D01*
X13212476Y-15521143D01*
X13241048Y-15521143D01*
X13260095Y-15530667D01*
X13269619Y-15540190D01*
X13279143Y-15559238D01*
X13279143Y-15616381D01*
X13269619Y-15635428D01*
X13260095Y-15644952D01*
X13241048Y-15654476D01*
X13212476Y-15654476D01*
X13393428Y-15654476D02*
X13374381Y-15644952D01*
X13364857Y-15625905D01*
X13364857Y-15454476D01*
X13545809Y-15644952D02*
X13526762Y-15654476D01*
X13488667Y-15654476D01*
X13469619Y-15644952D01*
X13460095Y-15625905D01*
X13460095Y-15549714D01*
X13469619Y-15530667D01*
X13488667Y-15521143D01*
X13526762Y-15521143D01*
X13545809Y-15530667D01*
X13555333Y-15549714D01*
X13555333Y-15568762D01*
X13460095Y-15587809D01*
X13631524Y-15644952D02*
X13650571Y-15654476D01*
X13688667Y-15654476D01*
X13707714Y-15644952D01*
X13717238Y-15625905D01*
X13717238Y-15616381D01*
X13707714Y-15597333D01*
X13688667Y-15587809D01*
X13660095Y-15587809D01*
X13641048Y-15578286D01*
X13631524Y-15559238D01*
X13631524Y-15549714D01*
X13641048Y-15530667D01*
X13660095Y-15521143D01*
X13688667Y-15521143D01*
X13707714Y-15530667D01*
X13783905Y-15730667D02*
X13793428Y-15721143D01*
X13812476Y-15692571D01*
X13822000Y-15673524D01*
X13831524Y-15644952D01*
X13841048Y-15597333D01*
X13841048Y-15559238D01*
X13831524Y-15511619D01*
X13822000Y-15483048D01*
X13812476Y-15464000D01*
X13793428Y-15435428D01*
X13783905Y-15425905D01*
D19*
X8862000Y-15753000D02*
X9012000Y-15903000D01*
X9012000Y-15753000D02*
X8862000Y-15903000D01*
X8990034Y-15881033D02*
X8990034Y-15774966D01*
X8883967Y-15774966D01*
X8883967Y-15881033D01*
X8990034Y-15881033D01*
D11*
X9374381Y-15918476D02*
X9260095Y-15918476D01*
X9317238Y-15918476D02*
X9317238Y-15718476D01*
X9298190Y-15747048D01*
X9279143Y-15766095D01*
X9260095Y-15775619D01*
X9460095Y-15899428D02*
X9469619Y-15908952D01*
X9460095Y-15918476D01*
X9450571Y-15908952D01*
X9460095Y-15899428D01*
X9460095Y-15918476D01*
X9650571Y-15718476D02*
X9555333Y-15718476D01*
X9545810Y-15813714D01*
X9555333Y-15804190D01*
X9574381Y-15794667D01*
X9622000Y-15794667D01*
X9641048Y-15804190D01*
X9650571Y-15813714D01*
X9660095Y-15832762D01*
X9660095Y-15880381D01*
X9650571Y-15899428D01*
X9641048Y-15908952D01*
X9622000Y-15918476D01*
X9574381Y-15918476D01*
X9555333Y-15908952D01*
X9545810Y-15899428D01*
X9783905Y-15718476D02*
X9802952Y-15718476D01*
X9822000Y-15728000D01*
X9831524Y-15737524D01*
X9841048Y-15756571D01*
X9850571Y-15794667D01*
X9850571Y-15842286D01*
X9841048Y-15880381D01*
X9831524Y-15899428D01*
X9822000Y-15908952D01*
X9802952Y-15918476D01*
X9783905Y-15918476D01*
X9764857Y-15908952D01*
X9755333Y-15899428D01*
X9745810Y-15880381D01*
X9736286Y-15842286D01*
X9736286Y-15794667D01*
X9745810Y-15756571D01*
X9755333Y-15737524D01*
X9764857Y-15728000D01*
X9783905Y-15718476D01*
X9974381Y-15718476D02*
X9993429Y-15718476D01*
X10012476Y-15728000D01*
X10022000Y-15737524D01*
X10031524Y-15756571D01*
X10041048Y-15794667D01*
X10041048Y-15842286D01*
X10031524Y-15880381D01*
X10022000Y-15899428D01*
X10012476Y-15908952D01*
X9993429Y-15918476D01*
X9974381Y-15918476D01*
X9955333Y-15908952D01*
X9945810Y-15899428D01*
X9936286Y-15880381D01*
X9926762Y-15842286D01*
X9926762Y-15794667D01*
X9936286Y-15756571D01*
X9945810Y-15737524D01*
X9955333Y-15728000D01*
X9974381Y-15718476D01*
X10126762Y-15918476D02*
X10126762Y-15785143D01*
X10126762Y-15804190D02*
X10136286Y-15794667D01*
X10155333Y-15785143D01*
X10183905Y-15785143D01*
X10202952Y-15794667D01*
X10212476Y-15813714D01*
X10212476Y-15918476D01*
X10212476Y-15813714D02*
X10222000Y-15794667D01*
X10241048Y-15785143D01*
X10269619Y-15785143D01*
X10288667Y-15794667D01*
X10298190Y-15813714D01*
X10298190Y-15918476D01*
X10393429Y-15918476D02*
X10393429Y-15785143D01*
X10393429Y-15804190D02*
X10402952Y-15794667D01*
X10422000Y-15785143D01*
X10450571Y-15785143D01*
X10469619Y-15794667D01*
X10479143Y-15813714D01*
X10479143Y-15918476D01*
X10479143Y-15813714D02*
X10488667Y-15794667D01*
X10507714Y-15785143D01*
X10536286Y-15785143D01*
X10555333Y-15794667D01*
X10564857Y-15813714D01*
X10564857Y-15918476D01*
X10955333Y-15708952D02*
X10783905Y-15966095D01*
X11212476Y-15718476D02*
X11231524Y-15718476D01*
X11250571Y-15728000D01*
X11260095Y-15737524D01*
X11269619Y-15756571D01*
X11279143Y-15794667D01*
X11279143Y-15842286D01*
X11269619Y-15880381D01*
X11260095Y-15899428D01*
X11250571Y-15908952D01*
X11231524Y-15918476D01*
X11212476Y-15918476D01*
X11193428Y-15908952D01*
X11183905Y-15899428D01*
X11174381Y-15880381D01*
X11164857Y-15842286D01*
X11164857Y-15794667D01*
X11174381Y-15756571D01*
X11183905Y-15737524D01*
X11193428Y-15728000D01*
X11212476Y-15718476D01*
X11364857Y-15899428D02*
X11374381Y-15908952D01*
X11364857Y-15918476D01*
X11355333Y-15908952D01*
X11364857Y-15899428D01*
X11364857Y-15918476D01*
X11498190Y-15718476D02*
X11517238Y-15718476D01*
X11536286Y-15728000D01*
X11545809Y-15737524D01*
X11555333Y-15756571D01*
X11564857Y-15794667D01*
X11564857Y-15842286D01*
X11555333Y-15880381D01*
X11545809Y-15899428D01*
X11536286Y-15908952D01*
X11517238Y-15918476D01*
X11498190Y-15918476D01*
X11479143Y-15908952D01*
X11469619Y-15899428D01*
X11460095Y-15880381D01*
X11450571Y-15842286D01*
X11450571Y-15794667D01*
X11460095Y-15756571D01*
X11469619Y-15737524D01*
X11479143Y-15728000D01*
X11498190Y-15718476D01*
X11745809Y-15718476D02*
X11650571Y-15718476D01*
X11641048Y-15813714D01*
X11650571Y-15804190D01*
X11669619Y-15794667D01*
X11717238Y-15794667D01*
X11736286Y-15804190D01*
X11745809Y-15813714D01*
X11755333Y-15832762D01*
X11755333Y-15880381D01*
X11745809Y-15899428D01*
X11736286Y-15908952D01*
X11717238Y-15918476D01*
X11669619Y-15918476D01*
X11650571Y-15908952D01*
X11641048Y-15899428D01*
X11850571Y-15918476D02*
X11888667Y-15918476D01*
X11907714Y-15908952D01*
X11917238Y-15899428D01*
X11936286Y-15870857D01*
X11945809Y-15832762D01*
X11945809Y-15756571D01*
X11936286Y-15737524D01*
X11926762Y-15728000D01*
X11907714Y-15718476D01*
X11869619Y-15718476D01*
X11850571Y-15728000D01*
X11841048Y-15737524D01*
X11831524Y-15756571D01*
X11831524Y-15804190D01*
X11841048Y-15823238D01*
X11850571Y-15832762D01*
X11869619Y-15842286D01*
X11907714Y-15842286D01*
X11926762Y-15832762D01*
X11936286Y-15823238D01*
X11945809Y-15804190D01*
X12136286Y-15918476D02*
X12022000Y-15918476D01*
X12079143Y-15918476D02*
X12079143Y-15718476D01*
X12060095Y-15747048D01*
X12041048Y-15766095D01*
X12022000Y-15775619D01*
X12212476Y-15718476D02*
X12212476Y-15756571D01*
X12288667Y-15718476D02*
X12288667Y-15756571D01*
X12583905Y-15994667D02*
X12574381Y-15985143D01*
X12555333Y-15956571D01*
X12545809Y-15937524D01*
X12536286Y-15908952D01*
X12526762Y-15861333D01*
X12526762Y-15823238D01*
X12536286Y-15775619D01*
X12545809Y-15747048D01*
X12555333Y-15728000D01*
X12574381Y-15699428D01*
X12583905Y-15689905D01*
X12698190Y-15718476D02*
X12717238Y-15718476D01*
X12736286Y-15728000D01*
X12745809Y-15737524D01*
X12755333Y-15756571D01*
X12764857Y-15794667D01*
X12764857Y-15842286D01*
X12755333Y-15880381D01*
X12745809Y-15899428D01*
X12736286Y-15908952D01*
X12717238Y-15918476D01*
X12698190Y-15918476D01*
X12679143Y-15908952D01*
X12669619Y-15899428D01*
X12660095Y-15880381D01*
X12650571Y-15842286D01*
X12650571Y-15794667D01*
X12660095Y-15756571D01*
X12669619Y-15737524D01*
X12679143Y-15728000D01*
X12698190Y-15718476D01*
X13002952Y-15918476D02*
X13002952Y-15718476D01*
X13088667Y-15918476D02*
X13088667Y-15813714D01*
X13079143Y-15794667D01*
X13060095Y-15785143D01*
X13031524Y-15785143D01*
X13012476Y-15794667D01*
X13002952Y-15804190D01*
X13212476Y-15918476D02*
X13193428Y-15908952D01*
X13183905Y-15899428D01*
X13174381Y-15880381D01*
X13174381Y-15823238D01*
X13183905Y-15804190D01*
X13193428Y-15794667D01*
X13212476Y-15785143D01*
X13241048Y-15785143D01*
X13260095Y-15794667D01*
X13269619Y-15804190D01*
X13279143Y-15823238D01*
X13279143Y-15880381D01*
X13269619Y-15899428D01*
X13260095Y-15908952D01*
X13241048Y-15918476D01*
X13212476Y-15918476D01*
X13393428Y-15918476D02*
X13374381Y-15908952D01*
X13364857Y-15889905D01*
X13364857Y-15718476D01*
X13545809Y-15908952D02*
X13526762Y-15918476D01*
X13488667Y-15918476D01*
X13469619Y-15908952D01*
X13460095Y-15889905D01*
X13460095Y-15813714D01*
X13469619Y-15794667D01*
X13488667Y-15785143D01*
X13526762Y-15785143D01*
X13545809Y-15794667D01*
X13555333Y-15813714D01*
X13555333Y-15832762D01*
X13460095Y-15851809D01*
X13631524Y-15908952D02*
X13650571Y-15918476D01*
X13688667Y-15918476D01*
X13707714Y-15908952D01*
X13717238Y-15889905D01*
X13717238Y-15880381D01*
X13707714Y-15861333D01*
X13688667Y-15851809D01*
X13660095Y-15851809D01*
X13641048Y-15842286D01*
X13631524Y-15823238D01*
X13631524Y-15813714D01*
X13641048Y-15794667D01*
X13660095Y-15785143D01*
X13688667Y-15785143D01*
X13707714Y-15794667D01*
X13955333Y-15842286D02*
X14107714Y-15842286D01*
X14031524Y-15918476D02*
X14031524Y-15766095D01*
X14345809Y-15737524D02*
X14355333Y-15728000D01*
X14374381Y-15718476D01*
X14422000Y-15718476D01*
X14441048Y-15728000D01*
X14450571Y-15737524D01*
X14460095Y-15756571D01*
X14460095Y-15775619D01*
X14450571Y-15804190D01*
X14336286Y-15918476D01*
X14460095Y-15918476D01*
X14688667Y-15908952D02*
X14707714Y-15918476D01*
X14745809Y-15918476D01*
X14764857Y-15908952D01*
X14774381Y-15889905D01*
X14774381Y-15880381D01*
X14764857Y-15861333D01*
X14745809Y-15851809D01*
X14717238Y-15851809D01*
X14698190Y-15842286D01*
X14688667Y-15823238D01*
X14688667Y-15813714D01*
X14698190Y-15794667D01*
X14717238Y-15785143D01*
X14745809Y-15785143D01*
X14764857Y-15794667D01*
X14888667Y-15918476D02*
X14869619Y-15908952D01*
X14860095Y-15889905D01*
X14860095Y-15718476D01*
X14993428Y-15918476D02*
X14974381Y-15908952D01*
X14964857Y-15899428D01*
X14955333Y-15880381D01*
X14955333Y-15823238D01*
X14964857Y-15804190D01*
X14974381Y-15794667D01*
X14993428Y-15785143D01*
X15022000Y-15785143D01*
X15041048Y-15794667D01*
X15050571Y-15804190D01*
X15060095Y-15823238D01*
X15060095Y-15880381D01*
X15050571Y-15899428D01*
X15041048Y-15908952D01*
X15022000Y-15918476D01*
X14993428Y-15918476D01*
X15117238Y-15785143D02*
X15193428Y-15785143D01*
X15145809Y-15718476D02*
X15145809Y-15889905D01*
X15155333Y-15908952D01*
X15174381Y-15918476D01*
X15193428Y-15918476D01*
X15250571Y-15908952D02*
X15269619Y-15918476D01*
X15307714Y-15918476D01*
X15326762Y-15908952D01*
X15336286Y-15889905D01*
X15336286Y-15880381D01*
X15326762Y-15861333D01*
X15307714Y-15851809D01*
X15279143Y-15851809D01*
X15260095Y-15842286D01*
X15250571Y-15823238D01*
X15250571Y-15813714D01*
X15260095Y-15794667D01*
X15279143Y-15785143D01*
X15307714Y-15785143D01*
X15326762Y-15794667D01*
X15402952Y-15994667D02*
X15412476Y-15985143D01*
X15431524Y-15956571D01*
X15441048Y-15937524D01*
X15450571Y-15908952D01*
X15460095Y-15861333D01*
X15460095Y-15823238D01*
X15450571Y-15775619D01*
X15441048Y-15747048D01*
X15431524Y-15728000D01*
X15412476Y-15699428D01*
X15402952Y-15689905D01*
X8812000Y-15998000D02*
X9012000Y-16198000D01*
X9012000Y-15998000D02*
X8812000Y-16198000D01*
X8912000Y-16198000D02*
X9012000Y-16098000D01*
X8912000Y-15998000D01*
X8812000Y-16098000D01*
X8912000Y-16198000D01*
X9250571Y-15988476D02*
X9374381Y-15988476D01*
X9307714Y-16064667D01*
X9336286Y-16064667D01*
X9355333Y-16074190D01*
X9364857Y-16083714D01*
X9374381Y-16102762D01*
X9374381Y-16150381D01*
X9364857Y-16169428D01*
X9355333Y-16178952D01*
X9336286Y-16188476D01*
X9279143Y-16188476D01*
X9260095Y-16178952D01*
X9250571Y-16169428D01*
X9460095Y-16169428D02*
X9469619Y-16178952D01*
X9460095Y-16188476D01*
X9450571Y-16178952D01*
X9460095Y-16169428D01*
X9460095Y-16188476D01*
X9545810Y-16007524D02*
X9555333Y-15998000D01*
X9574381Y-15988476D01*
X9622000Y-15988476D01*
X9641048Y-15998000D01*
X9650571Y-16007524D01*
X9660095Y-16026571D01*
X9660095Y-16045619D01*
X9650571Y-16074190D01*
X9536286Y-16188476D01*
X9660095Y-16188476D01*
X9783905Y-15988476D02*
X9802952Y-15988476D01*
X9822000Y-15998000D01*
X9831524Y-16007524D01*
X9841048Y-16026571D01*
X9850571Y-16064667D01*
X9850571Y-16112286D01*
X9841048Y-16150381D01*
X9831524Y-16169428D01*
X9822000Y-16178952D01*
X9802952Y-16188476D01*
X9783905Y-16188476D01*
X9764857Y-16178952D01*
X9755333Y-16169428D01*
X9745810Y-16150381D01*
X9736286Y-16112286D01*
X9736286Y-16064667D01*
X9745810Y-16026571D01*
X9755333Y-16007524D01*
X9764857Y-15998000D01*
X9783905Y-15988476D01*
X9974381Y-15988476D02*
X9993429Y-15988476D01*
X10012476Y-15998000D01*
X10022000Y-16007524D01*
X10031524Y-16026571D01*
X10041048Y-16064667D01*
X10041048Y-16112286D01*
X10031524Y-16150381D01*
X10022000Y-16169428D01*
X10012476Y-16178952D01*
X9993429Y-16188476D01*
X9974381Y-16188476D01*
X9955333Y-16178952D01*
X9945810Y-16169428D01*
X9936286Y-16150381D01*
X9926762Y-16112286D01*
X9926762Y-16064667D01*
X9936286Y-16026571D01*
X9945810Y-16007524D01*
X9955333Y-15998000D01*
X9974381Y-15988476D01*
X10126762Y-16188476D02*
X10126762Y-16055143D01*
X10126762Y-16074190D02*
X10136286Y-16064667D01*
X10155333Y-16055143D01*
X10183905Y-16055143D01*
X10202952Y-16064667D01*
X10212476Y-16083714D01*
X10212476Y-16188476D01*
X10212476Y-16083714D02*
X10222000Y-16064667D01*
X10241048Y-16055143D01*
X10269619Y-16055143D01*
X10288667Y-16064667D01*
X10298190Y-16083714D01*
X10298190Y-16188476D01*
X10393429Y-16188476D02*
X10393429Y-16055143D01*
X10393429Y-16074190D02*
X10402952Y-16064667D01*
X10422000Y-16055143D01*
X10450571Y-16055143D01*
X10469619Y-16064667D01*
X10479143Y-16083714D01*
X10479143Y-16188476D01*
X10479143Y-16083714D02*
X10488667Y-16064667D01*
X10507714Y-16055143D01*
X10536286Y-16055143D01*
X10555333Y-16064667D01*
X10564857Y-16083714D01*
X10564857Y-16188476D01*
X10955333Y-15978952D02*
X10783905Y-16236095D01*
X11212476Y-15988476D02*
X11231524Y-15988476D01*
X11250571Y-15998000D01*
X11260095Y-16007524D01*
X11269619Y-16026571D01*
X11279143Y-16064667D01*
X11279143Y-16112286D01*
X11269619Y-16150381D01*
X11260095Y-16169428D01*
X11250571Y-16178952D01*
X11231524Y-16188476D01*
X11212476Y-16188476D01*
X11193428Y-16178952D01*
X11183905Y-16169428D01*
X11174381Y-16150381D01*
X11164857Y-16112286D01*
X11164857Y-16064667D01*
X11174381Y-16026571D01*
X11183905Y-16007524D01*
X11193428Y-15998000D01*
X11212476Y-15988476D01*
X11364857Y-16169428D02*
X11374381Y-16178952D01*
X11364857Y-16188476D01*
X11355333Y-16178952D01*
X11364857Y-16169428D01*
X11364857Y-16188476D01*
X11564857Y-16188476D02*
X11450571Y-16188476D01*
X11507714Y-16188476D02*
X11507714Y-15988476D01*
X11488667Y-16017048D01*
X11469619Y-16036095D01*
X11450571Y-16045619D01*
X11641048Y-16007524D02*
X11650571Y-15998000D01*
X11669619Y-15988476D01*
X11717238Y-15988476D01*
X11736286Y-15998000D01*
X11745809Y-16007524D01*
X11755333Y-16026571D01*
X11755333Y-16045619D01*
X11745809Y-16074190D01*
X11631524Y-16188476D01*
X11755333Y-16188476D01*
X11926762Y-15988476D02*
X11888667Y-15988476D01*
X11869619Y-15998000D01*
X11860095Y-16007524D01*
X11841048Y-16036095D01*
X11831524Y-16074190D01*
X11831524Y-16150381D01*
X11841048Y-16169428D01*
X11850571Y-16178952D01*
X11869619Y-16188476D01*
X11907714Y-16188476D01*
X11926762Y-16178952D01*
X11936286Y-16169428D01*
X11945809Y-16150381D01*
X11945809Y-16102762D01*
X11936286Y-16083714D01*
X11926762Y-16074190D01*
X11907714Y-16064667D01*
X11869619Y-16064667D01*
X11850571Y-16074190D01*
X11841048Y-16083714D01*
X11831524Y-16102762D01*
X12069619Y-15988476D02*
X12088667Y-15988476D01*
X12107714Y-15998000D01*
X12117238Y-16007524D01*
X12126762Y-16026571D01*
X12136286Y-16064667D01*
X12136286Y-16112286D01*
X12126762Y-16150381D01*
X12117238Y-16169428D01*
X12107714Y-16178952D01*
X12088667Y-16188476D01*
X12069619Y-16188476D01*
X12050571Y-16178952D01*
X12041048Y-16169428D01*
X12031524Y-16150381D01*
X12022000Y-16112286D01*
X12022000Y-16064667D01*
X12031524Y-16026571D01*
X12041048Y-16007524D01*
X12050571Y-15998000D01*
X12069619Y-15988476D01*
X12212476Y-15988476D02*
X12212476Y-16026571D01*
X12288667Y-15988476D02*
X12288667Y-16026571D01*
X12583905Y-16264667D02*
X12574381Y-16255143D01*
X12555333Y-16226571D01*
X12545809Y-16207524D01*
X12536286Y-16178952D01*
X12526762Y-16131333D01*
X12526762Y-16093238D01*
X12536286Y-16045619D01*
X12545809Y-16017048D01*
X12555333Y-15998000D01*
X12574381Y-15969428D01*
X12583905Y-15959905D01*
X12745809Y-16055143D02*
X12745809Y-16188476D01*
X12698190Y-15978952D02*
X12650571Y-16121809D01*
X12774381Y-16121809D01*
X13002952Y-16188476D02*
X13002952Y-15988476D01*
X13088667Y-16188476D02*
X13088667Y-16083714D01*
X13079143Y-16064667D01*
X13060095Y-16055143D01*
X13031524Y-16055143D01*
X13012476Y-16064667D01*
X13002952Y-16074190D01*
X13212476Y-16188476D02*
X13193428Y-16178952D01*
X13183905Y-16169428D01*
X13174381Y-16150381D01*
X13174381Y-16093238D01*
X13183905Y-16074190D01*
X13193428Y-16064667D01*
X13212476Y-16055143D01*
X13241048Y-16055143D01*
X13260095Y-16064667D01*
X13269619Y-16074190D01*
X13279143Y-16093238D01*
X13279143Y-16150381D01*
X13269619Y-16169428D01*
X13260095Y-16178952D01*
X13241048Y-16188476D01*
X13212476Y-16188476D01*
X13393428Y-16188476D02*
X13374381Y-16178952D01*
X13364857Y-16159905D01*
X13364857Y-15988476D01*
X13545809Y-16178952D02*
X13526762Y-16188476D01*
X13488667Y-16188476D01*
X13469619Y-16178952D01*
X13460095Y-16159905D01*
X13460095Y-16083714D01*
X13469619Y-16064667D01*
X13488667Y-16055143D01*
X13526762Y-16055143D01*
X13545809Y-16064667D01*
X13555333Y-16083714D01*
X13555333Y-16102762D01*
X13460095Y-16121809D01*
X13631524Y-16178952D02*
X13650571Y-16188476D01*
X13688667Y-16188476D01*
X13707714Y-16178952D01*
X13717238Y-16159905D01*
X13717238Y-16150381D01*
X13707714Y-16131333D01*
X13688667Y-16121809D01*
X13660095Y-16121809D01*
X13641048Y-16112286D01*
X13631524Y-16093238D01*
X13631524Y-16083714D01*
X13641048Y-16064667D01*
X13660095Y-16055143D01*
X13688667Y-16055143D01*
X13707714Y-16064667D01*
X13783905Y-16264667D02*
X13793428Y-16255143D01*
X13812476Y-16226571D01*
X13822000Y-16207524D01*
X13831524Y-16178952D01*
X13841048Y-16131333D01*
X13841048Y-16093238D01*
X13831524Y-16045619D01*
X13822000Y-16017048D01*
X13812476Y-15998000D01*
X13793428Y-15969428D01*
X13783905Y-15959905D01*
M02*
