%TF.GenerationSoftware,KiCad,Pcbnew,(6.0.6)*%
%TF.CreationDate,2022-06-26T20:30:04-07:00*%
%TF.ProjectId,led_controller-rounded,6c65645f-636f-46e7-9472-6f6c6c65722d,rev?*%
%TF.SameCoordinates,Original*%
%TF.FileFunction,Legend,Top*%
%TF.FilePolarity,Positive*%
%FSLAX46Y46*%
G04 Gerber Fmt 4.6, Leading zero omitted, Abs format (unit mm)*
G04 Created by KiCad (PCBNEW (6.0.6)) date 2022-06-26 20:30:04*
%MOMM*%
%LPD*%
G01*
G04 APERTURE LIST*
G04 Aperture macros list*
%AMRoundRect*
0 Rectangle with rounded corners*
0 $1 Rounding radius*
0 $2 $3 $4 $5 $6 $7 $8 $9 X,Y pos of 4 corners*
0 Add a 4 corners polygon primitive as box body*
4,1,4,$2,$3,$4,$5,$6,$7,$8,$9,$2,$3,0*
0 Add four circle primitives for the rounded corners*
1,1,$1+$1,$2,$3*
1,1,$1+$1,$4,$5*
1,1,$1+$1,$6,$7*
1,1,$1+$1,$8,$9*
0 Add four rect primitives between the rounded corners*
20,1,$1+$1,$2,$3,$4,$5,0*
20,1,$1+$1,$4,$5,$6,$7,0*
20,1,$1+$1,$6,$7,$8,$9,0*
20,1,$1+$1,$8,$9,$2,$3,0*%
G04 Aperture macros list end*
%ADD10C,0.508000*%
%ADD11C,0.150000*%
%ADD12C,0.120000*%
%ADD13C,0.254000*%
%ADD14C,0.127000*%
%ADD15C,0.300000*%
%ADD16C,0.200000*%
%ADD17RoundRect,0.250000X0.450000X-0.350000X0.450000X0.350000X-0.450000X0.350000X-0.450000X-0.350000X0*%
%ADD18RoundRect,0.250000X-0.350000X-0.625000X0.350000X-0.625000X0.350000X0.625000X-0.350000X0.625000X0*%
%ADD19O,1.200000X1.750000*%
%ADD20RoundRect,0.250000X-0.350000X-0.450000X0.350000X-0.450000X0.350000X0.450000X-0.350000X0.450000X0*%
%ADD21R,2.500000X2.500000*%
%ADD22C,2.500000*%
%ADD23RoundRect,0.250000X0.475000X-0.337500X0.475000X0.337500X-0.475000X0.337500X-0.475000X-0.337500X0*%
%ADD24RoundRect,0.250000X0.350000X0.450000X-0.350000X0.450000X-0.350000X-0.450000X0.350000X-0.450000X0*%
%ADD25C,4.500000*%
%ADD26RoundRect,0.250000X-0.337500X-0.475000X0.337500X-0.475000X0.337500X0.475000X-0.337500X0.475000X0*%
%ADD27C,2.540000*%
%ADD28C,1.700000*%
%ADD29O,1.700000X1.700000*%
%ADD30RoundRect,0.250000X-0.450000X0.350000X-0.450000X-0.350000X0.450000X-0.350000X0.450000X0.350000X0*%
%ADD31R,2.000000X2.000000*%
%ADD32C,2.000000*%
%ADD33R,3.200000X2.000000*%
%ADD34C,1.600000*%
%ADD35R,1.378000X1.378000*%
%ADD36C,1.378000*%
%ADD37RoundRect,0.250000X-0.475000X0.337500X-0.475000X-0.337500X0.475000X-0.337500X0.475000X0.337500X0*%
%ADD38R,2.200000X2.800000*%
%ADD39R,2.800000X2.800000*%
%ADD40R,2.600000X2.800000*%
G04 APERTURE END LIST*
D10*
X96012000Y-130302000D02*
G75*
G03*
X96012000Y-130302000I-2794000J0D01*
G01*
X178816000Y-90170000D02*
G75*
G03*
X178816000Y-90170000I-2794000J0D01*
G01*
X96012000Y-90170000D02*
G75*
G03*
X96012000Y-90170000I-2794000J0D01*
G01*
X178816000Y-130302000D02*
G75*
G03*
X178816000Y-130302000I-2794000J0D01*
G01*
D11*
X161227833Y-112958380D02*
X160894500Y-112482190D01*
X160656404Y-112958380D02*
X160656404Y-111958380D01*
X161037357Y-111958380D01*
X161132595Y-112006000D01*
X161180214Y-112053619D01*
X161227833Y-112148857D01*
X161227833Y-112291714D01*
X161180214Y-112386952D01*
X161132595Y-112434571D01*
X161037357Y-112482190D01*
X160656404Y-112482190D01*
X162180214Y-112958380D02*
X161608785Y-112958380D01*
X161894500Y-112958380D02*
X161894500Y-111958380D01*
X161799261Y-112101238D01*
X161704023Y-112196476D01*
X161608785Y-112244095D01*
X129525476Y-130516380D02*
X129525476Y-131230666D01*
X129477857Y-131373523D01*
X129382619Y-131468761D01*
X129239762Y-131516380D01*
X129144524Y-131516380D01*
X130430238Y-130516380D02*
X130239762Y-130516380D01*
X130144524Y-130564000D01*
X130096905Y-130611619D01*
X130001667Y-130754476D01*
X129954048Y-130944952D01*
X129954048Y-131325904D01*
X130001667Y-131421142D01*
X130049286Y-131468761D01*
X130144524Y-131516380D01*
X130335000Y-131516380D01*
X130430238Y-131468761D01*
X130477857Y-131421142D01*
X130525476Y-131325904D01*
X130525476Y-131087809D01*
X130477857Y-130992571D01*
X130430238Y-130944952D01*
X130335000Y-130897333D01*
X130144524Y-130897333D01*
X130049286Y-130944952D01*
X130001667Y-130992571D01*
X129954048Y-131087809D01*
X170521333Y-112466380D02*
X170188000Y-111990190D01*
X169949904Y-112466380D02*
X169949904Y-111466380D01*
X170330857Y-111466380D01*
X170426095Y-111514000D01*
X170473714Y-111561619D01*
X170521333Y-111656857D01*
X170521333Y-111799714D01*
X170473714Y-111894952D01*
X170426095Y-111942571D01*
X170330857Y-111990190D01*
X169949904Y-111990190D01*
X170902285Y-111561619D02*
X170949904Y-111514000D01*
X171045142Y-111466380D01*
X171283238Y-111466380D01*
X171378476Y-111514000D01*
X171426095Y-111561619D01*
X171473714Y-111656857D01*
X171473714Y-111752095D01*
X171426095Y-111894952D01*
X170854666Y-112466380D01*
X171473714Y-112466380D01*
X96186666Y-122642380D02*
X96186666Y-123356666D01*
X96139047Y-123499523D01*
X96043809Y-123594761D01*
X95900952Y-123642380D01*
X95805714Y-123642380D01*
X97186666Y-123642380D02*
X96615238Y-123642380D01*
X96900952Y-123642380D02*
X96900952Y-122642380D01*
X96805714Y-122785238D01*
X96710476Y-122880476D01*
X96615238Y-122928095D01*
X101951588Y-130516380D02*
X101951588Y-131230666D01*
X101903969Y-131373523D01*
X101808731Y-131468761D01*
X101665874Y-131516380D01*
X101570636Y-131516380D01*
X102332541Y-130516380D02*
X102951588Y-130516380D01*
X102618255Y-130897333D01*
X102761112Y-130897333D01*
X102856350Y-130944952D01*
X102903969Y-130992571D01*
X102951588Y-131087809D01*
X102951588Y-131325904D01*
X102903969Y-131421142D01*
X102856350Y-131468761D01*
X102761112Y-131516380D01*
X102475398Y-131516380D01*
X102380160Y-131468761D01*
X102332541Y-131421142D01*
X125931142Y-117228857D02*
X125978761Y-117276476D01*
X126026380Y-117419333D01*
X126026380Y-117514571D01*
X125978761Y-117657428D01*
X125883523Y-117752666D01*
X125788285Y-117800285D01*
X125597809Y-117847904D01*
X125454952Y-117847904D01*
X125264476Y-117800285D01*
X125169238Y-117752666D01*
X125074000Y-117657428D01*
X125026380Y-117514571D01*
X125026380Y-117419333D01*
X125074000Y-117276476D01*
X125121619Y-117228857D01*
X126026380Y-116276476D02*
X126026380Y-116847904D01*
X126026380Y-116562190D02*
X125026380Y-116562190D01*
X125169238Y-116657428D01*
X125264476Y-116752666D01*
X125312095Y-116847904D01*
X125026380Y-115943142D02*
X125026380Y-115324095D01*
X125407333Y-115657428D01*
X125407333Y-115514571D01*
X125454952Y-115419333D01*
X125502571Y-115371714D01*
X125597809Y-115324095D01*
X125835904Y-115324095D01*
X125931142Y-115371714D01*
X125978761Y-115419333D01*
X126026380Y-115514571D01*
X126026380Y-115800285D01*
X125978761Y-115895523D01*
X125931142Y-115943142D01*
X159560880Y-114212666D02*
X159084690Y-114546000D01*
X159560880Y-114784095D02*
X158560880Y-114784095D01*
X158560880Y-114403142D01*
X158608500Y-114307904D01*
X158656119Y-114260285D01*
X158751357Y-114212666D01*
X158894214Y-114212666D01*
X158989452Y-114260285D01*
X159037071Y-114307904D01*
X159084690Y-114403142D01*
X159084690Y-114784095D01*
X158894214Y-113355523D02*
X159560880Y-113355523D01*
X158513261Y-113593619D02*
X159227547Y-113831714D01*
X159227547Y-113212666D01*
X165814476Y-130516380D02*
X165814476Y-131230666D01*
X165766857Y-131373523D01*
X165671619Y-131468761D01*
X165528761Y-131516380D01*
X165433523Y-131516380D01*
X166814476Y-131516380D02*
X166243047Y-131516380D01*
X166528761Y-131516380D02*
X166528761Y-130516380D01*
X166433523Y-130659238D01*
X166338285Y-130754476D01*
X166243047Y-130802095D01*
X167433523Y-130516380D02*
X167528761Y-130516380D01*
X167624000Y-130564000D01*
X167671619Y-130611619D01*
X167719238Y-130706857D01*
X167766857Y-130897333D01*
X167766857Y-131135428D01*
X167719238Y-131325904D01*
X167671619Y-131421142D01*
X167624000Y-131468761D01*
X167528761Y-131516380D01*
X167433523Y-131516380D01*
X167338285Y-131468761D01*
X167290666Y-131421142D01*
X167243047Y-131325904D01*
X167195428Y-131135428D01*
X167195428Y-130897333D01*
X167243047Y-130706857D01*
X167290666Y-130611619D01*
X167338285Y-130564000D01*
X167433523Y-130516380D01*
X159465642Y-111784666D02*
X159513261Y-111832285D01*
X159560880Y-111975142D01*
X159560880Y-112070380D01*
X159513261Y-112213238D01*
X159418023Y-112308476D01*
X159322785Y-112356095D01*
X159132309Y-112403714D01*
X158989452Y-112403714D01*
X158798976Y-112356095D01*
X158703738Y-112308476D01*
X158608500Y-112213238D01*
X158560880Y-112070380D01*
X158560880Y-111975142D01*
X158608500Y-111832285D01*
X158656119Y-111784666D01*
X158560880Y-111451333D02*
X158560880Y-110784666D01*
X159560880Y-111213238D01*
X126960380Y-106933904D02*
X127769904Y-106933904D01*
X127865142Y-106886285D01*
X127912761Y-106838666D01*
X127960380Y-106743428D01*
X127960380Y-106552952D01*
X127912761Y-106457714D01*
X127865142Y-106410095D01*
X127769904Y-106362476D01*
X126960380Y-106362476D01*
X127293714Y-105457714D02*
X127960380Y-105457714D01*
X126912761Y-105695809D02*
X127627047Y-105933904D01*
X127627047Y-105314857D01*
X138716772Y-130516380D02*
X138716772Y-131230666D01*
X138669153Y-131373523D01*
X138573915Y-131468761D01*
X138431058Y-131516380D01*
X138335820Y-131516380D01*
X139097725Y-130516380D02*
X139764391Y-130516380D01*
X139335820Y-131516380D01*
X155296333Y-106116380D02*
X154963000Y-105640190D01*
X154724904Y-106116380D02*
X154724904Y-105116380D01*
X155105857Y-105116380D01*
X155201095Y-105164000D01*
X155248714Y-105211619D01*
X155296333Y-105306857D01*
X155296333Y-105449714D01*
X155248714Y-105544952D01*
X155201095Y-105592571D01*
X155105857Y-105640190D01*
X154724904Y-105640190D01*
X156153476Y-105116380D02*
X155963000Y-105116380D01*
X155867761Y-105164000D01*
X155820142Y-105211619D01*
X155724904Y-105354476D01*
X155677285Y-105544952D01*
X155677285Y-105925904D01*
X155724904Y-106021142D01*
X155772523Y-106068761D01*
X155867761Y-106116380D01*
X156058238Y-106116380D01*
X156153476Y-106068761D01*
X156201095Y-106021142D01*
X156248714Y-105925904D01*
X156248714Y-105687809D01*
X156201095Y-105592571D01*
X156153476Y-105544952D01*
X156058238Y-105497333D01*
X155867761Y-105497333D01*
X155772523Y-105544952D01*
X155724904Y-105592571D01*
X155677285Y-105687809D01*
X147908068Y-130516380D02*
X147908068Y-131230666D01*
X147860449Y-131373523D01*
X147765211Y-131468761D01*
X147622354Y-131516380D01*
X147527116Y-131516380D01*
X148527116Y-130944952D02*
X148431878Y-130897333D01*
X148384259Y-130849714D01*
X148336640Y-130754476D01*
X148336640Y-130706857D01*
X148384259Y-130611619D01*
X148431878Y-130564000D01*
X148527116Y-130516380D01*
X148717592Y-130516380D01*
X148812830Y-130564000D01*
X148860449Y-130611619D01*
X148908068Y-130706857D01*
X148908068Y-130754476D01*
X148860449Y-130849714D01*
X148812830Y-130897333D01*
X148717592Y-130944952D01*
X148527116Y-130944952D01*
X148431878Y-130992571D01*
X148384259Y-131040190D01*
X148336640Y-131135428D01*
X148336640Y-131325904D01*
X148384259Y-131421142D01*
X148431878Y-131468761D01*
X148527116Y-131516380D01*
X148717592Y-131516380D01*
X148812830Y-131468761D01*
X148860449Y-131421142D01*
X148908068Y-131325904D01*
X148908068Y-131135428D01*
X148860449Y-131040190D01*
X148812830Y-130992571D01*
X148717592Y-130944952D01*
X111142884Y-130516380D02*
X111142884Y-131230666D01*
X111095265Y-131373523D01*
X111000027Y-131468761D01*
X110857170Y-131516380D01*
X110761932Y-131516380D01*
X112047646Y-130849714D02*
X112047646Y-131516380D01*
X111809551Y-130468761D02*
X111571456Y-131183047D01*
X112190503Y-131183047D01*
X159465642Y-119038666D02*
X159513261Y-119086285D01*
X159560880Y-119229142D01*
X159560880Y-119324380D01*
X159513261Y-119467238D01*
X159418023Y-119562476D01*
X159322785Y-119610095D01*
X159132309Y-119657714D01*
X158989452Y-119657714D01*
X158798976Y-119610095D01*
X158703738Y-119562476D01*
X158608500Y-119467238D01*
X158560880Y-119324380D01*
X158560880Y-119229142D01*
X158608500Y-119086285D01*
X158656119Y-119038666D01*
X159560880Y-118086285D02*
X159560880Y-118657714D01*
X159560880Y-118372000D02*
X158560880Y-118372000D01*
X158703738Y-118467238D01*
X158798976Y-118562476D01*
X158846595Y-118657714D01*
X165036666Y-99464761D02*
X165179523Y-99512380D01*
X165417619Y-99512380D01*
X165512857Y-99464761D01*
X165560476Y-99417142D01*
X165608095Y-99321904D01*
X165608095Y-99226666D01*
X165560476Y-99131428D01*
X165512857Y-99083809D01*
X165417619Y-99036190D01*
X165227142Y-98988571D01*
X165131904Y-98940952D01*
X165084285Y-98893333D01*
X165036666Y-98798095D01*
X165036666Y-98702857D01*
X165084285Y-98607619D01*
X165131904Y-98560000D01*
X165227142Y-98512380D01*
X165465238Y-98512380D01*
X165608095Y-98560000D01*
X165941428Y-98512380D02*
X166179523Y-99512380D01*
X166370000Y-98798095D01*
X166560476Y-99512380D01*
X166798571Y-98512380D01*
X167703333Y-99512380D02*
X167131904Y-99512380D01*
X167417619Y-99512380D02*
X167417619Y-98512380D01*
X167322380Y-98655238D01*
X167227142Y-98750476D01*
X167131904Y-98798095D01*
X143764095Y-104354380D02*
X143764095Y-105163904D01*
X143811714Y-105259142D01*
X143859333Y-105306761D01*
X143954571Y-105354380D01*
X144145047Y-105354380D01*
X144240285Y-105306761D01*
X144287904Y-105259142D01*
X144335523Y-105163904D01*
X144335523Y-104354380D01*
X144716476Y-104354380D02*
X145335523Y-104354380D01*
X145002190Y-104735333D01*
X145145047Y-104735333D01*
X145240285Y-104782952D01*
X145287904Y-104830571D01*
X145335523Y-104925809D01*
X145335523Y-105163904D01*
X145287904Y-105259142D01*
X145240285Y-105306761D01*
X145145047Y-105354380D01*
X144859333Y-105354380D01*
X144764095Y-105306761D01*
X144716476Y-105259142D01*
X170902012Y-110688541D02*
X170902012Y-109688187D01*
X171235463Y-110402725D01*
X171568915Y-109688187D01*
X171568915Y-110688541D01*
X172045274Y-110688541D02*
X172045274Y-109688187D01*
X172616905Y-110688541D02*
X172188182Y-110116910D01*
X172616905Y-109688187D02*
X172045274Y-110259817D01*
X173569623Y-110688541D02*
X172997992Y-110688541D01*
X173283807Y-110688541D02*
X173283807Y-109688187D01*
X173188536Y-109831094D01*
X173093264Y-109926366D01*
X172997992Y-109974002D01*
X160361333Y-106021142D02*
X160313714Y-106068761D01*
X160170857Y-106116380D01*
X160075619Y-106116380D01*
X159932761Y-106068761D01*
X159837523Y-105973523D01*
X159789904Y-105878285D01*
X159742285Y-105687809D01*
X159742285Y-105544952D01*
X159789904Y-105354476D01*
X159837523Y-105259238D01*
X159932761Y-105164000D01*
X160075619Y-105116380D01*
X160170857Y-105116380D01*
X160313714Y-105164000D01*
X160361333Y-105211619D01*
X160932761Y-105544952D02*
X160837523Y-105497333D01*
X160789904Y-105449714D01*
X160742285Y-105354476D01*
X160742285Y-105306857D01*
X160789904Y-105211619D01*
X160837523Y-105164000D01*
X160932761Y-105116380D01*
X161123238Y-105116380D01*
X161218476Y-105164000D01*
X161266095Y-105211619D01*
X161313714Y-105306857D01*
X161313714Y-105354476D01*
X161266095Y-105449714D01*
X161218476Y-105497333D01*
X161123238Y-105544952D01*
X160932761Y-105544952D01*
X160837523Y-105592571D01*
X160789904Y-105640190D01*
X160742285Y-105735428D01*
X160742285Y-105925904D01*
X160789904Y-106021142D01*
X160837523Y-106068761D01*
X160932761Y-106116380D01*
X161123238Y-106116380D01*
X161218476Y-106068761D01*
X161266095Y-106021142D01*
X161313714Y-105925904D01*
X161313714Y-105735428D01*
X161266095Y-105640190D01*
X161218476Y-105592571D01*
X161123238Y-105544952D01*
X163155333Y-107799142D02*
X163107714Y-107846761D01*
X162964857Y-107894380D01*
X162869619Y-107894380D01*
X162726761Y-107846761D01*
X162631523Y-107751523D01*
X162583904Y-107656285D01*
X162536285Y-107465809D01*
X162536285Y-107322952D01*
X162583904Y-107132476D01*
X162631523Y-107037238D01*
X162726761Y-106942000D01*
X162869619Y-106894380D01*
X162964857Y-106894380D01*
X163107714Y-106942000D01*
X163155333Y-106989619D01*
X163536285Y-106989619D02*
X163583904Y-106942000D01*
X163679142Y-106894380D01*
X163917238Y-106894380D01*
X164012476Y-106942000D01*
X164060095Y-106989619D01*
X164107714Y-107084857D01*
X164107714Y-107180095D01*
X164060095Y-107322952D01*
X163488666Y-107894380D01*
X164107714Y-107894380D01*
X159560880Y-116610666D02*
X159084690Y-116944000D01*
X159560880Y-117182095D02*
X158560880Y-117182095D01*
X158560880Y-116801142D01*
X158608500Y-116705904D01*
X158656119Y-116658285D01*
X158751357Y-116610666D01*
X158894214Y-116610666D01*
X158989452Y-116658285D01*
X159037071Y-116705904D01*
X159084690Y-116801142D01*
X159084690Y-117182095D01*
X158560880Y-115705904D02*
X158560880Y-116182095D01*
X159037071Y-116229714D01*
X158989452Y-116182095D01*
X158941833Y-116086857D01*
X158941833Y-115848761D01*
X158989452Y-115753523D01*
X159037071Y-115705904D01*
X159132309Y-115658285D01*
X159370404Y-115658285D01*
X159465642Y-115705904D01*
X159513261Y-115753523D01*
X159560880Y-115848761D01*
X159560880Y-116086857D01*
X159513261Y-116182095D01*
X159465642Y-116229714D01*
X120334180Y-130516380D02*
X120334180Y-131230666D01*
X120286561Y-131373523D01*
X120191323Y-131468761D01*
X120048466Y-131516380D01*
X119953228Y-131516380D01*
X121286561Y-130516380D02*
X120810371Y-130516380D01*
X120762752Y-130992571D01*
X120810371Y-130944952D01*
X120905609Y-130897333D01*
X121143704Y-130897333D01*
X121238942Y-130944952D01*
X121286561Y-130992571D01*
X121334180Y-131087809D01*
X121334180Y-131325904D01*
X121286561Y-131421142D01*
X121238942Y-131468761D01*
X121143704Y-131516380D01*
X120905609Y-131516380D01*
X120810371Y-131468761D01*
X120762752Y-131421142D01*
X160726380Y-122086666D02*
X160250190Y-122420000D01*
X160726380Y-122658095D02*
X159726380Y-122658095D01*
X159726380Y-122277142D01*
X159774000Y-122181904D01*
X159821619Y-122134285D01*
X159916857Y-122086666D01*
X160059714Y-122086666D01*
X160154952Y-122134285D01*
X160202571Y-122181904D01*
X160250190Y-122277142D01*
X160250190Y-122658095D01*
X160154952Y-121515238D02*
X160107333Y-121610476D01*
X160059714Y-121658095D01*
X159964476Y-121705714D01*
X159916857Y-121705714D01*
X159821619Y-121658095D01*
X159774000Y-121610476D01*
X159726380Y-121515238D01*
X159726380Y-121324761D01*
X159774000Y-121229523D01*
X159821619Y-121181904D01*
X159916857Y-121134285D01*
X159964476Y-121134285D01*
X160059714Y-121181904D01*
X160107333Y-121229523D01*
X160154952Y-121324761D01*
X160154952Y-121515238D01*
X160202571Y-121610476D01*
X160250190Y-121658095D01*
X160345428Y-121705714D01*
X160535904Y-121705714D01*
X160631142Y-121658095D01*
X160678761Y-121610476D01*
X160726380Y-121515238D01*
X160726380Y-121324761D01*
X160678761Y-121229523D01*
X160631142Y-121181904D01*
X160535904Y-121134285D01*
X160345428Y-121134285D01*
X160250190Y-121181904D01*
X160202571Y-121229523D01*
X160154952Y-121324761D01*
X179752102Y-113243453D02*
X179752102Y-113958948D01*
X179704402Y-114102047D01*
X179609003Y-114197447D01*
X179465904Y-114245146D01*
X179370505Y-114245146D01*
X180181399Y-113338853D02*
X180229099Y-113291153D01*
X180324498Y-113243453D01*
X180562996Y-113243453D01*
X180658396Y-113291153D01*
X180706095Y-113338853D01*
X180753795Y-113434252D01*
X180753795Y-113529651D01*
X180706095Y-113672750D01*
X180133699Y-114245146D01*
X180753795Y-114245146D01*
X157821333Y-106116380D02*
X157488000Y-105640190D01*
X157249904Y-106116380D02*
X157249904Y-105116380D01*
X157630857Y-105116380D01*
X157726095Y-105164000D01*
X157773714Y-105211619D01*
X157821333Y-105306857D01*
X157821333Y-105449714D01*
X157773714Y-105544952D01*
X157726095Y-105592571D01*
X157630857Y-105640190D01*
X157249904Y-105640190D01*
X158154666Y-105116380D02*
X158821333Y-105116380D01*
X158392761Y-106116380D01*
X157146666Y-130558380D02*
X157146666Y-131272666D01*
X157099047Y-131415523D01*
X157003809Y-131510761D01*
X156860952Y-131558380D01*
X156765714Y-131558380D01*
X157670476Y-131558380D02*
X157860952Y-131558380D01*
X157956190Y-131510761D01*
X158003809Y-131463142D01*
X158099047Y-131320285D01*
X158146666Y-131129809D01*
X158146666Y-130748857D01*
X158099047Y-130653619D01*
X158051428Y-130606000D01*
X157956190Y-130558380D01*
X157765714Y-130558380D01*
X157670476Y-130606000D01*
X157622857Y-130653619D01*
X157575238Y-130748857D01*
X157575238Y-130986952D01*
X157622857Y-131082190D01*
X157670476Y-131129809D01*
X157765714Y-131177428D01*
X157956190Y-131177428D01*
X158051428Y-131129809D01*
X158099047Y-131082190D01*
X158146666Y-130986952D01*
D12*
X160659500Y-115289064D02*
X160659500Y-114834936D01*
X162129500Y-115289064D02*
X162129500Y-114834936D01*
X127058810Y-131026000D02*
X127058810Y-133286000D01*
X127558810Y-129426000D02*
X126558810Y-129426000D01*
X126718810Y-127066000D02*
X126718810Y-125466000D01*
X132158810Y-129426000D02*
X133158810Y-129426000D01*
X132158810Y-131026000D02*
X132158810Y-129426000D01*
X132998810Y-125466000D02*
X132998810Y-127066000D01*
X126998810Y-127066000D02*
X126718810Y-127066000D01*
X133918810Y-125466000D02*
X132998810Y-125466000D01*
X127558810Y-131026000D02*
X127558810Y-133286000D01*
X125798810Y-127066000D02*
X126718810Y-127066000D01*
X131358810Y-128926000D02*
X131358810Y-133286000D01*
X125798810Y-125466000D02*
X125798810Y-133286000D01*
X132998810Y-127066000D02*
X132718810Y-127066000D01*
X128358810Y-128926000D02*
X131358810Y-128926000D01*
X126558810Y-131026000D02*
X127558810Y-131026000D01*
X126718810Y-125466000D02*
X125798810Y-125466000D01*
X127558810Y-131026000D02*
X127558810Y-129426000D01*
X133158810Y-129426000D02*
X133158810Y-131026000D01*
X133918810Y-127066000D02*
X132998810Y-127066000D01*
X126998810Y-127066000D02*
X126998810Y-125851000D01*
X125798810Y-133286000D02*
X133918810Y-133286000D01*
X126558810Y-129426000D02*
X126558810Y-131026000D01*
X128358810Y-133286000D02*
X128358810Y-128926000D01*
X133918810Y-133286000D02*
X133918810Y-125466000D01*
X133158810Y-131026000D02*
X132158810Y-131026000D01*
X170460936Y-114527000D02*
X170915064Y-114527000D01*
X170460936Y-113057000D02*
X170915064Y-113057000D01*
G36*
X90242926Y-124512793D02*
G01*
X97717074Y-124512793D01*
X97717074Y-125931207D01*
X90242926Y-125931207D01*
X90242926Y-125666624D01*
X93573203Y-125666624D01*
X93931631Y-125666624D01*
X93985659Y-125661818D01*
X94037361Y-125647400D01*
X94084877Y-125623991D01*
X94126348Y-125592210D01*
X94160919Y-125552212D01*
X94187739Y-125504153D01*
X94204948Y-125448808D01*
X94210684Y-125386951D01*
X94204948Y-125325637D01*
X94187739Y-125270679D01*
X94160919Y-125222775D01*
X94126348Y-125182623D01*
X94084877Y-125150609D01*
X94037361Y-125127122D01*
X93985659Y-125112704D01*
X93931631Y-125107898D01*
X93769160Y-125107898D01*
X93785283Y-124955350D01*
X94174097Y-124955350D01*
X94174097Y-124777376D01*
X94256572Y-124777376D01*
X94547407Y-125666624D01*
X94725381Y-125666624D01*
X95017456Y-124777376D01*
X94814058Y-124777376D01*
X94636084Y-125370828D01*
X94458730Y-124777376D01*
X94256572Y-124777376D01*
X94174097Y-124777376D01*
X93625293Y-124777376D01*
X93573203Y-125285872D01*
X93931631Y-125285872D01*
X93967908Y-125292383D01*
X94000774Y-125311607D01*
X94024338Y-125343233D01*
X94033330Y-125386951D01*
X94024338Y-125433460D01*
X94000774Y-125465086D01*
X93967908Y-125483069D01*
X93931631Y-125488650D01*
X93573203Y-125488650D01*
X93573203Y-125666624D01*
X90242926Y-125666624D01*
X90242926Y-125301995D01*
X92942544Y-125301995D01*
X93118657Y-125301995D01*
X93118657Y-125471287D01*
X93287949Y-125471287D01*
X93287949Y-125301995D01*
X93463442Y-125301995D01*
X93463442Y-125133323D01*
X93287949Y-125133323D01*
X93287949Y-124950389D01*
X93118657Y-124950389D01*
X93118657Y-125133323D01*
X92942544Y-125133323D01*
X92942544Y-125301995D01*
X90242926Y-125301995D01*
X90242926Y-124512793D01*
G37*
X97570000Y-117150000D02*
X90280000Y-117150000D01*
X90280000Y-117150000D02*
X90280000Y-124150000D01*
X90730000Y-117150000D02*
X90730000Y-124150000D01*
X97570000Y-117150000D02*
X97570000Y-124150000D01*
X97570000Y-124150000D02*
X90280000Y-124150000D01*
X100784922Y-133286000D02*
X100784922Y-128926000D01*
X104584922Y-131026000D02*
X104584922Y-129426000D01*
X99144922Y-127066000D02*
X99144922Y-125466000D01*
X99144922Y-125466000D02*
X98224922Y-125466000D01*
X106344922Y-133286000D02*
X106344922Y-125466000D01*
X105424922Y-127066000D02*
X105144922Y-127066000D01*
X105584922Y-131026000D02*
X104584922Y-131026000D01*
X98224922Y-125466000D02*
X98224922Y-133286000D01*
X99424922Y-127066000D02*
X99144922Y-127066000D01*
X99484922Y-131026000D02*
X99484922Y-133286000D01*
X98984922Y-131026000D02*
X99984922Y-131026000D01*
X98224922Y-127066000D02*
X99144922Y-127066000D01*
X99984922Y-131026000D02*
X99984922Y-133286000D01*
X103784922Y-128926000D02*
X103784922Y-133286000D01*
X106344922Y-127066000D02*
X105424922Y-127066000D01*
X106344922Y-125466000D02*
X105424922Y-125466000D01*
X98984922Y-129426000D02*
X98984922Y-131026000D01*
X100784922Y-128926000D02*
X103784922Y-128926000D01*
X104584922Y-129426000D02*
X105584922Y-129426000D01*
X105584922Y-129426000D02*
X105584922Y-131026000D01*
X99984922Y-129426000D02*
X98984922Y-129426000D01*
X99424922Y-127066000D02*
X99424922Y-125851000D01*
X98224922Y-133286000D02*
X106344922Y-133286000D01*
X105424922Y-125466000D02*
X105424922Y-127066000D01*
X99984922Y-131026000D02*
X99984922Y-129426000D01*
X126519000Y-116847252D02*
X126519000Y-116324748D01*
X127989000Y-116847252D02*
X127989000Y-116324748D01*
X156795564Y-113311000D02*
X156341436Y-113311000D01*
X156795564Y-114781000D02*
X156341436Y-114781000D01*
X168924000Y-129426000D02*
X169924000Y-129426000D01*
X164324000Y-129426000D02*
X163324000Y-129426000D01*
X163484000Y-125466000D02*
X162564000Y-125466000D01*
X164324000Y-131026000D02*
X164324000Y-129426000D01*
X169764000Y-127066000D02*
X169484000Y-127066000D01*
X170684000Y-127066000D02*
X169764000Y-127066000D01*
X169924000Y-129426000D02*
X169924000Y-131026000D01*
X163324000Y-131026000D02*
X164324000Y-131026000D01*
X165124000Y-133286000D02*
X165124000Y-128926000D01*
X165124000Y-128926000D02*
X168124000Y-128926000D01*
X170684000Y-125466000D02*
X169764000Y-125466000D01*
X169924000Y-131026000D02*
X168924000Y-131026000D01*
X162564000Y-125466000D02*
X162564000Y-133286000D01*
X162564000Y-133286000D02*
X170684000Y-133286000D01*
X168124000Y-128926000D02*
X168124000Y-133286000D01*
X170684000Y-133286000D02*
X170684000Y-125466000D01*
X163324000Y-129426000D02*
X163324000Y-131026000D01*
X163764000Y-127066000D02*
X163764000Y-125851000D01*
X163824000Y-131026000D02*
X163824000Y-133286000D01*
X164324000Y-131026000D02*
X164324000Y-133286000D01*
X163764000Y-127066000D02*
X163484000Y-127066000D01*
X169764000Y-125466000D02*
X169764000Y-127066000D01*
X168924000Y-131026000D02*
X168924000Y-129426000D01*
X163484000Y-127066000D02*
X163484000Y-125466000D01*
X162564000Y-127066000D02*
X163484000Y-127066000D01*
G36*
X94417753Y-107754738D02*
G01*
X94657069Y-107947619D01*
X94797563Y-108202412D01*
X94847569Y-108457206D01*
X94847569Y-109495431D01*
X94797563Y-109750225D01*
X94657069Y-110005019D01*
X94421325Y-110195519D01*
X94080806Y-110262194D01*
X91266169Y-110262194D01*
X91094719Y-110191947D01*
X91037569Y-109981206D01*
X91094719Y-109766894D01*
X91266169Y-109695456D01*
X94042706Y-109695456D01*
X94266544Y-109624019D01*
X94366556Y-109376369D01*
X94366556Y-108576269D01*
X94266544Y-108328619D01*
X94042706Y-108257181D01*
X91266169Y-108257181D01*
X91094719Y-108186934D01*
X91037569Y-107976194D01*
X91094719Y-107761881D01*
X91266169Y-107690444D01*
X94080806Y-107690444D01*
X94417753Y-107754738D01*
G37*
G36*
X94742794Y-110702725D02*
G01*
X94861856Y-110886081D01*
X94878525Y-110955138D01*
X94885669Y-111024194D01*
X94840425Y-111145638D01*
X94723744Y-111224219D01*
X94728506Y-111224219D01*
X91528106Y-112271969D01*
X94728506Y-113314956D01*
X94723744Y-113314956D01*
X94840425Y-113393538D01*
X94885669Y-113514981D01*
X94878525Y-113588800D01*
X94861856Y-113662619D01*
X94861856Y-113657856D01*
X94742794Y-113843594D01*
X94557056Y-113857881D01*
X91256644Y-112772031D01*
X91128056Y-112688688D01*
X91066144Y-112548194D01*
X91044712Y-112391031D01*
X91037569Y-112271969D01*
X91044712Y-112152906D01*
X91061381Y-111995744D01*
X91132819Y-111864775D01*
X91256644Y-111767144D01*
X91584780Y-111660178D01*
X91913869Y-111552641D01*
X92243910Y-111444532D01*
X92574904Y-111335852D01*
X93238796Y-111117348D01*
X93569790Y-111008668D01*
X93899831Y-110900559D01*
X94228920Y-110793022D01*
X94557056Y-110686056D01*
X94742794Y-110702725D01*
G37*
G36*
X94828519Y-104356694D02*
G01*
X94823756Y-104356694D01*
X94890431Y-104542431D01*
X94782794Y-104715587D01*
X93275944Y-105613994D01*
X93275944Y-105980706D01*
X93211650Y-106106913D01*
X93037819Y-106152156D01*
X92855653Y-106102150D01*
X92794931Y-105952131D01*
X92794931Y-105394919D01*
X92694919Y-105147269D01*
X92475844Y-105075831D01*
X91861481Y-105075831D01*
X91642406Y-105147269D01*
X91542394Y-105394919D01*
X91542394Y-106399806D01*
X94647544Y-106399806D01*
X94818994Y-106470053D01*
X94876144Y-106680794D01*
X94818994Y-106891534D01*
X94647544Y-106961781D01*
X91347131Y-106961781D01*
X91118531Y-106873675D01*
X91061381Y-106661744D01*
X91061381Y-105275856D01*
X91113769Y-105018681D01*
X91247119Y-104761506D01*
X91247119Y-104766269D01*
X91482862Y-104575769D01*
X91818619Y-104509094D01*
X92513944Y-104509094D01*
X92850891Y-104573388D01*
X93090206Y-104766269D01*
X93161644Y-104878188D01*
X93228319Y-104999631D01*
X94485619Y-104237631D01*
X94547531Y-104209056D01*
X94609444Y-104194769D01*
X94828519Y-104356694D01*
G37*
G36*
X94780894Y-104718644D02*
G01*
X94782794Y-104715587D01*
X94785656Y-104713881D01*
X94780894Y-104718644D01*
G37*
G36*
X94828519Y-97860644D02*
G01*
X94823756Y-97860644D01*
X94890431Y-98046381D01*
X94782794Y-98219537D01*
X93275944Y-99117944D01*
X93275944Y-99484656D01*
X93211650Y-99610862D01*
X93037819Y-99656106D01*
X92855653Y-99606100D01*
X92794931Y-99456081D01*
X92794931Y-98898869D01*
X92694919Y-98651219D01*
X92475844Y-98579781D01*
X91861481Y-98579781D01*
X91642406Y-98651219D01*
X91542394Y-98898869D01*
X91542394Y-99903756D01*
X94647544Y-99903756D01*
X94818994Y-99974003D01*
X94876144Y-100184744D01*
X94818994Y-100395484D01*
X94647544Y-100465731D01*
X91347131Y-100465731D01*
X91118531Y-100377625D01*
X91061381Y-100165694D01*
X91061381Y-98779806D01*
X91113769Y-98522631D01*
X91247119Y-98265456D01*
X91247119Y-98270219D01*
X91482862Y-98079719D01*
X91818619Y-98013044D01*
X92513944Y-98013044D01*
X92850891Y-98077337D01*
X93090206Y-98270219D01*
X93161644Y-98382137D01*
X93228319Y-98503581D01*
X94485619Y-97741581D01*
X94547531Y-97713006D01*
X94609444Y-97698719D01*
X94828519Y-97860644D01*
G37*
G36*
X94780894Y-98222594D02*
G01*
X94782794Y-98219537D01*
X94785656Y-98217831D01*
X94780894Y-98222594D01*
G37*
G36*
X91247119Y-101437281D02*
G01*
X91247119Y-101442044D01*
X91482862Y-101251544D01*
X91818619Y-101184869D01*
X94080806Y-101184869D01*
X94417753Y-101249162D01*
X94657069Y-101442044D01*
X94797563Y-101696837D01*
X94847569Y-101951631D01*
X94847569Y-102989856D01*
X94797563Y-103244650D01*
X94657069Y-103499444D01*
X94421325Y-103689944D01*
X94080806Y-103756619D01*
X91818619Y-103756619D01*
X91482862Y-103689944D01*
X91247119Y-103499444D01*
X91247119Y-103504206D01*
X91113769Y-103247031D01*
X91061381Y-102989856D01*
X91061381Y-102870794D01*
X91542394Y-102870794D01*
X91642406Y-103118444D01*
X91861481Y-103189881D01*
X94042706Y-103189881D01*
X94266544Y-103118444D01*
X94366556Y-102870794D01*
X94366556Y-102070694D01*
X94266544Y-101823044D01*
X94042706Y-101751606D01*
X91861481Y-101751606D01*
X91642406Y-101823044D01*
X91542394Y-102070694D01*
X91542394Y-102870794D01*
X91061381Y-102870794D01*
X91061381Y-101951631D01*
X91113769Y-101694456D01*
X91247119Y-101437281D01*
G37*
G36*
X93959363Y-95753237D02*
G01*
X94066519Y-96012794D01*
X93959363Y-96269969D01*
X93699806Y-96374744D01*
X93440250Y-96269969D01*
X93333094Y-96012794D01*
X93440250Y-95753237D01*
X93699806Y-95646081D01*
X93959363Y-95753237D01*
G37*
G36*
X94742794Y-94434025D02*
G01*
X94861856Y-94617381D01*
X94878525Y-94686437D01*
X94885669Y-94755494D01*
X94840425Y-94876937D01*
X94723744Y-94955519D01*
X94728506Y-94955519D01*
X91528106Y-96003269D01*
X94728506Y-97046256D01*
X94723744Y-97046256D01*
X94840425Y-97124837D01*
X94885669Y-97246281D01*
X94878525Y-97320100D01*
X94861856Y-97393919D01*
X94861856Y-97389156D01*
X94742794Y-97574894D01*
X94557056Y-97589181D01*
X91256644Y-96503331D01*
X91128056Y-96419987D01*
X91066144Y-96279494D01*
X91044712Y-96122331D01*
X91037569Y-96003269D01*
X91044712Y-95884206D01*
X91061381Y-95727044D01*
X91132819Y-95596075D01*
X91256644Y-95498444D01*
X91584780Y-95391478D01*
X91913869Y-95283941D01*
X92243910Y-95175832D01*
X92574904Y-95067152D01*
X93238796Y-94848648D01*
X93569790Y-94739968D01*
X93899831Y-94631859D01*
X94228920Y-94524322D01*
X94557056Y-94417356D01*
X94742794Y-94434025D01*
G37*
G36*
X93959363Y-112021938D02*
G01*
X94066519Y-112281494D01*
X93959363Y-112538669D01*
X93699806Y-112643444D01*
X93440250Y-112538669D01*
X93333094Y-112281494D01*
X93440250Y-112021938D01*
X93699806Y-111914781D01*
X93959363Y-112021938D01*
G37*
X156307248Y-110883000D02*
X156829752Y-110883000D01*
X156307248Y-112353000D02*
X156829752Y-112353000D01*
D13*
X98933000Y-119507000D02*
X98933000Y-92837000D01*
X129413000Y-119507000D02*
X98933000Y-119507000D01*
X133223000Y-119507000D02*
X133223000Y-92837000D01*
X129413000Y-92837000D02*
X98933000Y-92837000D01*
X128778000Y-93472000D02*
X103378000Y-93472000D01*
X103378000Y-93472000D02*
X103378000Y-118872000D01*
X103378000Y-118872000D02*
X128778000Y-118872000D01*
X128778000Y-118872000D02*
X128778000Y-93472000D01*
X102743000Y-89662000D02*
G75*
G03*
X102743000Y-89662000I-1905000J0D01*
G01*
X133223000Y-122682000D02*
G75*
G03*
X133223000Y-122682000I-1905000J0D01*
G01*
X133223000Y-89662000D02*
G75*
G03*
X133223000Y-89662000I-1905000J0D01*
G01*
X102743000Y-122682000D02*
G75*
G03*
X102743000Y-122682000I-1905000J0D01*
G01*
D12*
X141350106Y-129426000D02*
X142350106Y-129426000D01*
X137550106Y-133286000D02*
X137550106Y-128926000D01*
X142190106Y-125466000D02*
X142190106Y-127066000D01*
X135750106Y-129426000D02*
X135750106Y-131026000D01*
X143110106Y-125466000D02*
X142190106Y-125466000D01*
X135910106Y-127066000D02*
X135910106Y-125466000D01*
X140550106Y-128926000D02*
X140550106Y-133286000D01*
X136750106Y-129426000D02*
X135750106Y-129426000D01*
X142350106Y-131026000D02*
X141350106Y-131026000D01*
X137550106Y-128926000D02*
X140550106Y-128926000D01*
X134990106Y-133286000D02*
X143110106Y-133286000D01*
X136190106Y-127066000D02*
X135910106Y-127066000D01*
X135910106Y-125466000D02*
X134990106Y-125466000D01*
X143110106Y-127066000D02*
X142190106Y-127066000D01*
X136750106Y-131026000D02*
X136750106Y-133286000D01*
X136750106Y-131026000D02*
X136750106Y-129426000D01*
X136250106Y-131026000D02*
X136250106Y-133286000D01*
X142350106Y-129426000D02*
X142350106Y-131026000D01*
X143110106Y-133286000D02*
X143110106Y-125466000D01*
X136190106Y-127066000D02*
X136190106Y-125851000D01*
X134990106Y-125466000D02*
X134990106Y-133286000D01*
X135750106Y-131026000D02*
X136750106Y-131026000D01*
X141350106Y-131026000D02*
X141350106Y-129426000D01*
X142190106Y-127066000D02*
X141910106Y-127066000D01*
X134990106Y-127066000D02*
X135910106Y-127066000D01*
X156183000Y-107976936D02*
X156183000Y-108431064D01*
X154713000Y-107976936D02*
X154713000Y-108431064D01*
X145941402Y-131026000D02*
X145941402Y-133286000D01*
X146741402Y-133286000D02*
X146741402Y-128926000D01*
X152301402Y-133286000D02*
X152301402Y-125466000D01*
X146741402Y-128926000D02*
X149741402Y-128926000D01*
X144181402Y-127066000D02*
X145101402Y-127066000D01*
X144941402Y-131026000D02*
X145941402Y-131026000D01*
X150541402Y-131026000D02*
X150541402Y-129426000D01*
X144941402Y-129426000D02*
X144941402Y-131026000D01*
X151381402Y-125466000D02*
X151381402Y-127066000D01*
X145381402Y-127066000D02*
X145381402Y-125851000D01*
X152301402Y-125466000D02*
X151381402Y-125466000D01*
X145101402Y-125466000D02*
X144181402Y-125466000D01*
X145381402Y-127066000D02*
X145101402Y-127066000D01*
X144181402Y-133286000D02*
X152301402Y-133286000D01*
X145441402Y-131026000D02*
X145441402Y-133286000D01*
X151381402Y-127066000D02*
X151101402Y-127066000D01*
X145941402Y-131026000D02*
X145941402Y-129426000D01*
X151541402Y-131026000D02*
X150541402Y-131026000D01*
X151541402Y-129426000D02*
X151541402Y-131026000D01*
X150541402Y-129426000D02*
X151541402Y-129426000D01*
X144181402Y-125466000D02*
X144181402Y-133286000D01*
X149741402Y-128926000D02*
X149741402Y-133286000D01*
X145941402Y-129426000D02*
X144941402Y-129426000D01*
X152301402Y-127066000D02*
X151381402Y-127066000D01*
X145101402Y-127066000D02*
X145101402Y-125466000D01*
X115536218Y-127066000D02*
X114616218Y-127066000D01*
X114616218Y-125466000D02*
X114616218Y-127066000D01*
X108676218Y-131026000D02*
X108676218Y-133286000D01*
X109976218Y-133286000D02*
X109976218Y-128926000D01*
X114616218Y-127066000D02*
X114336218Y-127066000D01*
X115536218Y-125466000D02*
X114616218Y-125466000D01*
X109176218Y-131026000D02*
X109176218Y-133286000D01*
X107416218Y-133286000D02*
X115536218Y-133286000D01*
X113776218Y-131026000D02*
X113776218Y-129426000D01*
X108336218Y-125466000D02*
X107416218Y-125466000D01*
X108176218Y-131026000D02*
X109176218Y-131026000D01*
X113776218Y-129426000D02*
X114776218Y-129426000D01*
X114776218Y-131026000D02*
X113776218Y-131026000D01*
X109176218Y-129426000D02*
X108176218Y-129426000D01*
X108616218Y-127066000D02*
X108336218Y-127066000D01*
X108616218Y-127066000D02*
X108616218Y-125851000D01*
X114776218Y-129426000D02*
X114776218Y-131026000D01*
X109176218Y-131026000D02*
X109176218Y-129426000D01*
X109976218Y-128926000D02*
X112976218Y-128926000D01*
X115536218Y-133286000D02*
X115536218Y-125466000D01*
X107416218Y-127066000D02*
X108336218Y-127066000D01*
X112976218Y-128926000D02*
X112976218Y-133286000D01*
X108176218Y-129426000D02*
X108176218Y-131026000D01*
X107416218Y-125466000D02*
X107416218Y-133286000D01*
X108336218Y-127066000D02*
X108336218Y-125466000D01*
X156307248Y-118249000D02*
X156829752Y-118249000D01*
X156307248Y-119719000D02*
X156829752Y-119719000D01*
X170110000Y-98715000D02*
X169510000Y-98715000D01*
X156210000Y-88715000D02*
X160310000Y-88715000D01*
X162310000Y-95115000D02*
X162310000Y-94115000D01*
X156210000Y-91115000D02*
X156210000Y-88715000D01*
X156210000Y-95915000D02*
X156210000Y-93315000D01*
X168410000Y-100515000D02*
X168410000Y-88715000D01*
X164310000Y-88715000D02*
X168410000Y-88715000D01*
X169510000Y-98715000D02*
X169810000Y-98415000D01*
X169810000Y-98415000D02*
X170110000Y-98715000D01*
X160310000Y-100515000D02*
X156210000Y-100515000D01*
X164310000Y-100515000D02*
X168410000Y-100515000D01*
X162810000Y-94615000D02*
X161810000Y-94615000D01*
X156210000Y-100515000D02*
X156210000Y-98115000D01*
X165310000Y-94615000D02*
G75*
G03*
X165310000Y-94615000I-3000000J0D01*
G01*
D11*
X148336000Y-92202000D02*
X148336000Y-87122000D01*
X135636000Y-87122000D02*
X153416000Y-87122000D01*
X153416000Y-122682000D02*
X135636000Y-122682000D01*
X140716000Y-92202000D02*
X148336000Y-92202000D01*
X135636000Y-122682000D02*
X135636000Y-87122000D01*
X140716000Y-92202000D02*
X140716000Y-87122000D01*
X153416000Y-87122000D02*
X153416000Y-122682000D01*
D14*
X177062000Y-107188000D02*
G75*
G03*
X177062000Y-107188000I-4850000J0D01*
G01*
D15*
X166869000Y-105447000D02*
G75*
G03*
X166869000Y-105447000I-100000J0D01*
G01*
G36*
X94829793Y-115811970D02*
G01*
X94880100Y-115827783D01*
X94965056Y-115885144D01*
X95022107Y-115969790D01*
X95037687Y-116019864D01*
X95042881Y-116073349D01*
X95037687Y-116126912D01*
X95022107Y-116177219D01*
X94965056Y-116262175D01*
X94880100Y-116319226D01*
X94829793Y-116334806D01*
X94776230Y-116340000D01*
X94687554Y-116340000D01*
X94687554Y-115806699D01*
X94776230Y-115806699D01*
X94829793Y-115811970D01*
G37*
G36*
X90242926Y-115354220D02*
G01*
X97717074Y-115354220D01*
X97717074Y-116801780D01*
X90242926Y-116801780D01*
X90242926Y-116077070D01*
X92739146Y-116077070D01*
X92743254Y-116139237D01*
X92755579Y-116199233D01*
X92775345Y-116256206D01*
X92801777Y-116309304D01*
X92834644Y-116358138D01*
X92873711Y-116402321D01*
X92918049Y-116441234D01*
X92966729Y-116474255D01*
X93019516Y-116500920D01*
X93076179Y-116520764D01*
X93135943Y-116533089D01*
X93198032Y-116537197D01*
X93278958Y-116530143D01*
X93323714Y-116517973D01*
X93632114Y-116517973D01*
X93810088Y-116517973D01*
X93810088Y-115932583D01*
X94153013Y-116517973D01*
X94343389Y-116517973D01*
X94508340Y-116517973D01*
X94776230Y-116517973D01*
X94836459Y-116514020D01*
X94894363Y-116502160D01*
X94949321Y-116483014D01*
X95000713Y-116457202D01*
X95047997Y-116425188D01*
X95090630Y-116387438D01*
X95128147Y-116344650D01*
X95160083Y-116297521D01*
X95185895Y-116246362D01*
X95205042Y-116191481D01*
X95216901Y-116133578D01*
X95220854Y-116073349D01*
X95216901Y-116013120D01*
X95205042Y-115955217D01*
X95185895Y-115900336D01*
X95160083Y-115849177D01*
X95128147Y-115802048D01*
X95090630Y-115759260D01*
X95047997Y-115721510D01*
X95000713Y-115689497D01*
X94949321Y-115663684D01*
X94894363Y-115644538D01*
X94836459Y-115632678D01*
X94776230Y-115628725D01*
X94508340Y-115628725D01*
X94508340Y-116517973D01*
X94343389Y-116517973D01*
X94343389Y-115628725D01*
X94165415Y-115628725D01*
X94165415Y-116214736D01*
X93822490Y-115628725D01*
X93632114Y-115628725D01*
X93632114Y-116517973D01*
X93323714Y-116517973D01*
X93356782Y-116508981D01*
X93429491Y-116474642D01*
X93495068Y-116428056D01*
X93495068Y-116077070D01*
X93323296Y-116077070D01*
X93323296Y-116330078D01*
X93263145Y-116352402D01*
X93198032Y-116360463D01*
X93141524Y-116354882D01*
X93088582Y-116338139D01*
X93040600Y-116311784D01*
X92998975Y-116277368D01*
X92964558Y-116235665D01*
X92938203Y-116187451D01*
X92921460Y-116134121D01*
X92915879Y-116077070D01*
X92921460Y-116020562D01*
X92938203Y-115967619D01*
X92964558Y-115919715D01*
X92998975Y-115878322D01*
X93040600Y-115844138D01*
X93088582Y-115817861D01*
X93141524Y-115801118D01*
X93198032Y-115795537D01*
X93254928Y-115801350D01*
X93309033Y-115818791D01*
X93358643Y-115846464D01*
X93402051Y-115882973D01*
X93495068Y-115727944D01*
X93429491Y-115681358D01*
X93356782Y-115647019D01*
X93278958Y-115625857D01*
X93198032Y-115618803D01*
X93135943Y-115622911D01*
X93076179Y-115635236D01*
X93019516Y-115655003D01*
X92966729Y-115681435D01*
X92918049Y-115714224D01*
X92873711Y-115753059D01*
X92834644Y-115797242D01*
X92801777Y-115846076D01*
X92775345Y-115899019D01*
X92755579Y-115955527D01*
X92743254Y-116015058D01*
X92739146Y-116077070D01*
X90242926Y-116077070D01*
X90242926Y-115354220D01*
G37*
G36*
X97549494Y-102231428D02*
G01*
X97568544Y-102296912D01*
X97566956Y-102329456D01*
X97558225Y-102356444D01*
X97537588Y-102375494D01*
X97501869Y-102382637D01*
X97154206Y-102384225D01*
X97154206Y-102704900D01*
X97162144Y-102758875D01*
X97187544Y-102789037D01*
X97229613Y-102807294D01*
X97263744Y-102812850D01*
X97325656Y-102812850D01*
X97388363Y-102788244D01*
X97409794Y-102703312D01*
X97409794Y-102525512D01*
X97428447Y-102481459D01*
X97484406Y-102466775D01*
X97537588Y-102481062D01*
X97559019Y-102525512D01*
X97559019Y-102733475D01*
X97545525Y-102827137D01*
X97506631Y-102912862D01*
X97508219Y-102912862D01*
X97438369Y-102971203D01*
X97327244Y-102990650D01*
X97249456Y-102990650D01*
X97135950Y-102967631D01*
X97058956Y-102903337D01*
X97058956Y-102904925D01*
X97018475Y-102820787D01*
X97004981Y-102735062D01*
X97004981Y-102384225D01*
X96857344Y-102384225D01*
X96785112Y-102408831D01*
X96752569Y-102492175D01*
X96752569Y-102677912D01*
X96781937Y-102761256D01*
X96850994Y-102784275D01*
X96863694Y-102784275D01*
X96925606Y-102806500D01*
X96946244Y-102873175D01*
X96925606Y-102939850D01*
X96863694Y-102962075D01*
X96849406Y-102962075D01*
X96739869Y-102939056D01*
X96665256Y-102876350D01*
X96665256Y-102877937D01*
X96620806Y-102791419D01*
X96603344Y-102704900D01*
X96603344Y-102463600D01*
X96620806Y-102378669D01*
X96665256Y-102293737D01*
X96665256Y-102295325D01*
X96743837Y-102231825D01*
X96855756Y-102209600D01*
X97492344Y-102209600D01*
X97549494Y-102231428D01*
G37*
G36*
X96717644Y-108569125D02*
G01*
X96736694Y-108640563D01*
X96717644Y-108710809D01*
X96660494Y-108734225D01*
X96565244Y-108734225D01*
X96492219Y-108758038D01*
X96458881Y-108840588D01*
X96458881Y-109107288D01*
X96492219Y-109189838D01*
X96565244Y-109213650D01*
X97292319Y-109213650D01*
X97366931Y-109189838D01*
X97400269Y-109107288D01*
X97400269Y-108840588D01*
X97366931Y-108758038D01*
X97292319Y-108734225D01*
X97200244Y-108734225D01*
X97144284Y-108710809D01*
X97125631Y-108640563D01*
X97144284Y-108569125D01*
X97200244Y-108545313D01*
X97305019Y-108545313D01*
X97417334Y-108566744D01*
X97497106Y-108631038D01*
X97543938Y-108715969D01*
X97560606Y-108800900D01*
X97560606Y-109146975D01*
X97543938Y-109231906D01*
X97497106Y-109316838D01*
X97418525Y-109380338D01*
X97305019Y-109402563D01*
X96550956Y-109402563D01*
X96439037Y-109380338D01*
X96360456Y-109316838D01*
X96360456Y-109318425D01*
X96316006Y-109232700D01*
X96298544Y-109146975D01*
X96298544Y-108800900D01*
X96316006Y-108715175D01*
X96360456Y-108629450D01*
X96360456Y-108631038D01*
X96439037Y-108567538D01*
X96550956Y-108545313D01*
X96660494Y-108545313D01*
X96717644Y-108569125D01*
G37*
G36*
X97540763Y-106095800D02*
G01*
X97559019Y-106140250D01*
X97559019Y-106710163D01*
X97543938Y-106789538D01*
X97498694Y-106821288D01*
X97408206Y-106810175D01*
X96752569Y-106321225D01*
X96752569Y-106753025D01*
X96677956Y-106813350D01*
X96621997Y-106798269D01*
X96603344Y-106753025D01*
X96603344Y-106202163D01*
X96620012Y-106121994D01*
X96665256Y-106089450D01*
X96716056Y-106090244D01*
X96754156Y-106102150D01*
X97409794Y-106589513D01*
X97409794Y-106140250D01*
X97484406Y-106083100D01*
X97540763Y-106095800D01*
G37*
G36*
X97419319Y-106962575D02*
G01*
X97498694Y-107026075D01*
X97498694Y-107024488D01*
X97542350Y-107108625D01*
X97559019Y-107194350D01*
X97559019Y-107449938D01*
X97542350Y-107534869D01*
X97498694Y-107619800D01*
X97498694Y-107618213D01*
X97419319Y-107681713D01*
X97306606Y-107703938D01*
X96670019Y-107703938D01*
X96612869Y-107682109D01*
X96593819Y-107616625D01*
X96612869Y-107551141D01*
X96670019Y-107529313D01*
X97293906Y-107529313D01*
X97371694Y-107507088D01*
X97409794Y-107421363D01*
X97409794Y-107222925D01*
X97372265Y-107140050D01*
X97293906Y-107114975D01*
X96670019Y-107114975D01*
X96612869Y-107093147D01*
X96593819Y-107027663D01*
X96612869Y-106962178D01*
X96670019Y-106940350D01*
X97306606Y-106940350D01*
X97419319Y-106962575D01*
G37*
G36*
X97549494Y-110118128D02*
G01*
X97568544Y-110183613D01*
X97549494Y-110249097D01*
X97492344Y-110270925D01*
X96868456Y-110270925D01*
X96790098Y-110296000D01*
X96752569Y-110378875D01*
X96752569Y-110577313D01*
X96790669Y-110663038D01*
X96868456Y-110685263D01*
X97492344Y-110685263D01*
X97549494Y-110707091D01*
X97568544Y-110772575D01*
X97549494Y-110838059D01*
X97492344Y-110859888D01*
X96854169Y-110859888D01*
X96741456Y-110839250D01*
X96663669Y-110774163D01*
X96618425Y-110690025D01*
X96603344Y-110605888D01*
X96603344Y-110350300D01*
X96618425Y-110267750D01*
X96663669Y-110182025D01*
X96741456Y-110117731D01*
X96854169Y-110096300D01*
X97492344Y-110096300D01*
X97549494Y-110118128D01*
G37*
G36*
X96733916Y-107851972D02*
G01*
X96752569Y-107897613D01*
X96752569Y-108065888D01*
X96774794Y-108140500D01*
X96836706Y-108157963D01*
X97492344Y-108157963D01*
X97549494Y-108179791D01*
X97568544Y-108245275D01*
X97549494Y-108313141D01*
X97492344Y-108335763D01*
X96835119Y-108335763D01*
X96724787Y-108316316D01*
X96654144Y-108257975D01*
X96616044Y-108174234D01*
X96603344Y-108078588D01*
X96603344Y-107897613D01*
X96621997Y-107853559D01*
X96677956Y-107838875D01*
X96733916Y-107851972D01*
G37*
G36*
X97554256Y-103160512D02*
G01*
X97552669Y-103160512D01*
X97574894Y-103222425D01*
X97539013Y-103280145D01*
X97036731Y-103579612D01*
X97036731Y-103701850D01*
X97015300Y-103743919D01*
X96957356Y-103759000D01*
X96896634Y-103742331D01*
X96876394Y-103692325D01*
X96876394Y-103506587D01*
X96843056Y-103424037D01*
X96770031Y-103400225D01*
X96565244Y-103400225D01*
X96492219Y-103424037D01*
X96458881Y-103506587D01*
X96458881Y-103841550D01*
X97493931Y-103841550D01*
X97551081Y-103864966D01*
X97570131Y-103935212D01*
X97551081Y-104005459D01*
X97493931Y-104028875D01*
X96393794Y-104028875D01*
X96317594Y-103999506D01*
X96298544Y-103928862D01*
X96298544Y-103466900D01*
X96316006Y-103381175D01*
X96360456Y-103295450D01*
X96360456Y-103297037D01*
X96439037Y-103233537D01*
X96550956Y-103211312D01*
X96782731Y-103211312D01*
X96895047Y-103232744D01*
X96974819Y-103297037D01*
X96998631Y-103334344D01*
X97020856Y-103374825D01*
X97439956Y-103120825D01*
X97460594Y-103111300D01*
X97481231Y-103106537D01*
X97554256Y-103160512D01*
G37*
G36*
X97538381Y-103281162D02*
G01*
X97539013Y-103280145D01*
X97539969Y-103279575D01*
X97538381Y-103281162D01*
G37*
G36*
X97418128Y-113103025D02*
G01*
X97497106Y-113179225D01*
X97544731Y-113275269D01*
X97560606Y-113364963D01*
X97560606Y-113599913D01*
X97538381Y-113641981D01*
X97479644Y-113657063D01*
X97420113Y-113640394D01*
X97400269Y-113590388D01*
X97400269Y-113372900D01*
X97366931Y-113290350D01*
X97292319Y-113266538D01*
X97090706Y-113266538D01*
X97020062Y-113293525D01*
X96981169Y-113388775D01*
X97021650Y-113437988D01*
X97035144Y-113496725D01*
X96997044Y-113588800D01*
X96903381Y-113626900D01*
X96809719Y-113588800D01*
X96771619Y-113496725D01*
X96787494Y-113440369D01*
X96825594Y-113390363D01*
X96814481Y-113336388D01*
X96791462Y-113308606D01*
X96760506Y-113298288D01*
X96725581Y-113296700D01*
X96565244Y-113296700D01*
X96492219Y-113321306D01*
X96458881Y-113404650D01*
X96458881Y-113736438D01*
X97506631Y-113738025D01*
X97555050Y-113767394D01*
X97571719Y-113831688D01*
X97552669Y-113901934D01*
X97495519Y-113925350D01*
X96393794Y-113925350D01*
X96317594Y-113895981D01*
X96298544Y-113825338D01*
X96298544Y-113364963D01*
X96314419Y-113276856D01*
X96357281Y-113188750D01*
X96357281Y-113190338D01*
X96436656Y-113129219D01*
X96550956Y-113109375D01*
X96730344Y-113109375D01*
X96834325Y-113136363D01*
X96898619Y-113193513D01*
X96924812Y-113153825D01*
X96954181Y-113122075D01*
X97006569Y-113089531D01*
X97078006Y-113077625D01*
X97305019Y-113077625D01*
X97418128Y-113103025D01*
G37*
G36*
X96700578Y-99895025D02*
G01*
X96719231Y-99966462D01*
X96700578Y-100036709D01*
X96644619Y-100060125D01*
X96565244Y-100060125D01*
X96492219Y-100083937D01*
X96458881Y-100166487D01*
X96458881Y-100433187D01*
X96492219Y-100515737D01*
X96565244Y-100539550D01*
X96727169Y-100539550D01*
X96800987Y-100515737D01*
X96833531Y-100433187D01*
X96833531Y-100126800D01*
X96850994Y-100041075D01*
X96897031Y-99955350D01*
X96897031Y-99956937D01*
X96974819Y-99893437D01*
X97087531Y-99871212D01*
X97305019Y-99871212D01*
X97417334Y-99892644D01*
X97497106Y-99956937D01*
X97543938Y-100041869D01*
X97560606Y-100126800D01*
X97560606Y-100472875D01*
X97543938Y-100557806D01*
X97497106Y-100642737D01*
X97417334Y-100707031D01*
X97305019Y-100728462D01*
X97200244Y-100728462D01*
X97144284Y-100705047D01*
X97125631Y-100634800D01*
X97144284Y-100563362D01*
X97200244Y-100539550D01*
X97292319Y-100539550D01*
X97366931Y-100515737D01*
X97400269Y-100433187D01*
X97400269Y-100166487D01*
X97366931Y-100083937D01*
X97292319Y-100060125D01*
X97100231Y-100060125D01*
X97026412Y-100083937D01*
X96992281Y-100166487D01*
X96992281Y-100472875D01*
X96977200Y-100556616D01*
X96931956Y-100642737D01*
X96850597Y-100707031D01*
X96739869Y-100728462D01*
X96550956Y-100728462D01*
X96439037Y-100706237D01*
X96360456Y-100642737D01*
X96360456Y-100644325D01*
X96316006Y-100558600D01*
X96298544Y-100472875D01*
X96298544Y-100126800D01*
X96316006Y-100041075D01*
X96360456Y-99955350D01*
X96360456Y-99956937D01*
X96439037Y-99893437D01*
X96550956Y-99871212D01*
X96644619Y-99871212D01*
X96700578Y-99895025D01*
G37*
G36*
X97419319Y-98894900D02*
G01*
X97498694Y-98958400D01*
X97498694Y-98956812D01*
X97542350Y-99040950D01*
X97559019Y-99126675D01*
X97559019Y-99382262D01*
X97542350Y-99467194D01*
X97498694Y-99552125D01*
X97498694Y-99550537D01*
X97419319Y-99614037D01*
X97306606Y-99636262D01*
X96670019Y-99636262D01*
X96612869Y-99614434D01*
X96593819Y-99548950D01*
X96612869Y-99483466D01*
X96670019Y-99461637D01*
X97293906Y-99461637D01*
X97371694Y-99439412D01*
X97409794Y-99353687D01*
X97409794Y-99155250D01*
X97372266Y-99072375D01*
X97293906Y-99047300D01*
X96670019Y-99047300D01*
X96612869Y-99025472D01*
X96593819Y-98959987D01*
X96612869Y-98894503D01*
X96670019Y-98872675D01*
X97306606Y-98872675D01*
X97419319Y-98894900D01*
G37*
G36*
X97549494Y-112070753D02*
G01*
X97568544Y-112136238D01*
X97549494Y-112202913D01*
X97492344Y-112225138D01*
X96673194Y-112225138D01*
X96616044Y-112202913D01*
X96596994Y-112136238D01*
X96616044Y-112070753D01*
X96673194Y-112048925D01*
X97492344Y-112048925D01*
X97549494Y-112070753D01*
G37*
G36*
X96733916Y-112376347D02*
G01*
X96752569Y-112421988D01*
X96752569Y-112590263D01*
X96774794Y-112664875D01*
X96836706Y-112682338D01*
X97492344Y-112682338D01*
X97549494Y-112704166D01*
X97568544Y-112769650D01*
X97549494Y-112837516D01*
X97492344Y-112860138D01*
X96835119Y-112860138D01*
X96724787Y-112840691D01*
X96654144Y-112782350D01*
X96616044Y-112698609D01*
X96603344Y-112602963D01*
X96603344Y-112421988D01*
X96621997Y-112377934D01*
X96677956Y-112363250D01*
X96733916Y-112376347D01*
G37*
G36*
X96482694Y-112050513D02*
G01*
X96517619Y-112136238D01*
X96482694Y-112222756D01*
X96396969Y-112258475D01*
X96309656Y-112222756D01*
X96274731Y-112136238D01*
X96309656Y-112050513D01*
X96396969Y-112015588D01*
X96482694Y-112050513D01*
G37*
G36*
X96818648Y-101389805D02*
G01*
X96940687Y-101425970D01*
X97063123Y-101462433D01*
X97185956Y-101499194D01*
X97308690Y-101535954D01*
X97430828Y-101572417D01*
X97552371Y-101608582D01*
X97673319Y-101644450D01*
X97709038Y-101669056D01*
X97743963Y-101712712D01*
X97770950Y-101779387D01*
X97781269Y-101871462D01*
X97781269Y-101954012D01*
X97706656Y-102012750D01*
X97650697Y-101998066D01*
X97632044Y-101954012D01*
X97632044Y-101884163D01*
X97598706Y-101811137D01*
X97539969Y-101788912D01*
X97514569Y-101780975D01*
X96703646Y-102090426D01*
X96704944Y-102090537D01*
X96703356Y-102090537D01*
X96703646Y-102090426D01*
X96639856Y-102084981D01*
X96600169Y-102028625D01*
X96592231Y-101982587D01*
X96646206Y-101925437D01*
X96958944Y-101800025D01*
X97219294Y-101693662D01*
X96649381Y-101523800D01*
X96592231Y-101457125D01*
X96600169Y-101415850D01*
X96636681Y-101361081D01*
X96697006Y-101353937D01*
X96818648Y-101389805D01*
G37*
G36*
X97549494Y-111086503D02*
G01*
X97568544Y-111151988D01*
X97566956Y-111184531D01*
X97558225Y-111211519D01*
X97537588Y-111230569D01*
X97501869Y-111237713D01*
X97154206Y-111239300D01*
X97154206Y-111559975D01*
X97162144Y-111613950D01*
X97187544Y-111644113D01*
X97229613Y-111662369D01*
X97263744Y-111667925D01*
X97325656Y-111667925D01*
X97388363Y-111643319D01*
X97409794Y-111558388D01*
X97409794Y-111380588D01*
X97428447Y-111336534D01*
X97484406Y-111321850D01*
X97537588Y-111336138D01*
X97559019Y-111380588D01*
X97559019Y-111588550D01*
X97545525Y-111682213D01*
X97506631Y-111767938D01*
X97508219Y-111767938D01*
X97438369Y-111826278D01*
X97327244Y-111845725D01*
X97249456Y-111845725D01*
X97135950Y-111822706D01*
X97058956Y-111758413D01*
X97058956Y-111760000D01*
X97018475Y-111675863D01*
X97004981Y-111590138D01*
X97004981Y-111239300D01*
X96857344Y-111239300D01*
X96785112Y-111263906D01*
X96752569Y-111347250D01*
X96752569Y-111532988D01*
X96781937Y-111616331D01*
X96850994Y-111639350D01*
X96863694Y-111639350D01*
X96925606Y-111661575D01*
X96946244Y-111728250D01*
X96925606Y-111794925D01*
X96863694Y-111817150D01*
X96849406Y-111817150D01*
X96739869Y-111794131D01*
X96665256Y-111731425D01*
X96665256Y-111733013D01*
X96620806Y-111646494D01*
X96603344Y-111559975D01*
X96603344Y-111318675D01*
X96620806Y-111233744D01*
X96665256Y-111148813D01*
X96665256Y-111150400D01*
X96743837Y-111086900D01*
X96855756Y-111064675D01*
X97492344Y-111064675D01*
X97549494Y-111086503D01*
G37*
G36*
X97549494Y-97932478D02*
G01*
X97568544Y-97997962D01*
X97549494Y-98063447D01*
X97492344Y-98085275D01*
X96868456Y-98085275D01*
X96790097Y-98110350D01*
X96752569Y-98193225D01*
X96752569Y-98391662D01*
X96790669Y-98477387D01*
X96868456Y-98499612D01*
X97492344Y-98499612D01*
X97549494Y-98521441D01*
X97568544Y-98586925D01*
X97549494Y-98652409D01*
X97492344Y-98674237D01*
X96854169Y-98674237D01*
X96741456Y-98653600D01*
X96663669Y-98588512D01*
X96618425Y-98504375D01*
X96603344Y-98420237D01*
X96603344Y-98164650D01*
X96618425Y-98082100D01*
X96663669Y-97996375D01*
X96741456Y-97932081D01*
X96854169Y-97910650D01*
X97492344Y-97910650D01*
X97549494Y-97932478D01*
G37*
D12*
X159793000Y-108465252D02*
X159793000Y-107942748D01*
X161263000Y-108465252D02*
X161263000Y-107942748D01*
X162587000Y-109974748D02*
X162587000Y-110497252D01*
X164057000Y-109974748D02*
X164057000Y-110497252D01*
X156341436Y-115709000D02*
X156795564Y-115709000D01*
X156341436Y-117179000D02*
X156795564Y-117179000D01*
X117527514Y-125466000D02*
X116607514Y-125466000D01*
X123967514Y-131026000D02*
X122967514Y-131026000D01*
X122967514Y-131026000D02*
X122967514Y-129426000D01*
X119167514Y-128926000D02*
X122167514Y-128926000D01*
X117367514Y-131026000D02*
X118367514Y-131026000D01*
X122167514Y-128926000D02*
X122167514Y-133286000D01*
X124727514Y-127066000D02*
X123807514Y-127066000D01*
X118367514Y-131026000D02*
X118367514Y-129426000D01*
X124727514Y-125466000D02*
X123807514Y-125466000D01*
X117867514Y-131026000D02*
X117867514Y-133286000D01*
X124727514Y-133286000D02*
X124727514Y-125466000D01*
X123807514Y-125466000D02*
X123807514Y-127066000D01*
X122967514Y-129426000D02*
X123967514Y-129426000D01*
X123807514Y-127066000D02*
X123527514Y-127066000D01*
X118367514Y-129426000D02*
X117367514Y-129426000D01*
X117367514Y-129426000D02*
X117367514Y-131026000D01*
X116607514Y-125466000D02*
X116607514Y-133286000D01*
X117807514Y-127066000D02*
X117527514Y-127066000D01*
X118367514Y-131026000D02*
X118367514Y-133286000D01*
X116607514Y-133286000D02*
X124727514Y-133286000D01*
X123967514Y-129426000D02*
X123967514Y-131026000D01*
X119167514Y-133286000D02*
X119167514Y-128926000D01*
X116607514Y-127066000D02*
X117527514Y-127066000D01*
X117807514Y-127066000D02*
X117807514Y-125851000D01*
X117527514Y-127066000D02*
X117527514Y-125466000D01*
X157961064Y-121185000D02*
X157506936Y-121185000D01*
X157961064Y-122655000D02*
X157506936Y-122655000D01*
D14*
X178612500Y-115110000D02*
X178612500Y-115610000D01*
X165212500Y-115110000D02*
X164112500Y-115110000D01*
X178612500Y-120610000D02*
X178612500Y-121110000D01*
X164112500Y-121110000D02*
X164112500Y-115110000D01*
X178612500Y-120610000D02*
X181112500Y-120610000D01*
X178612500Y-115110000D02*
X177512500Y-115110000D01*
X181112500Y-120610000D02*
X181112500Y-115610000D01*
X178612500Y-115610000D02*
X178612500Y-120610000D01*
X181112500Y-115610000D02*
X178612500Y-115610000D01*
X174912500Y-115110000D02*
X168412500Y-115110000D01*
X178612500Y-121110000D02*
X175512500Y-121110000D01*
X172912500Y-121110000D02*
X164112500Y-121110000D01*
D16*
X179512500Y-114810000D02*
G75*
G03*
X179512500Y-114810000I-100000J0D01*
G01*
D12*
X158708000Y-108431064D02*
X158708000Y-107976936D01*
X157238000Y-108431064D02*
X157238000Y-107976936D01*
X155932698Y-133286000D02*
X155932698Y-128926000D01*
X155132698Y-129426000D02*
X154132698Y-129426000D01*
X154292698Y-127066000D02*
X154292698Y-125466000D01*
X161492698Y-133286000D02*
X161492698Y-125466000D01*
X161492698Y-127066000D02*
X160572698Y-127066000D01*
X154132698Y-131026000D02*
X155132698Y-131026000D01*
X160572698Y-127066000D02*
X160292698Y-127066000D01*
X154572698Y-127066000D02*
X154572698Y-125851000D01*
X158932698Y-128926000D02*
X158932698Y-133286000D01*
X154132698Y-129426000D02*
X154132698Y-131026000D01*
X155132698Y-131026000D02*
X155132698Y-129426000D01*
X154572698Y-127066000D02*
X154292698Y-127066000D01*
X154292698Y-125466000D02*
X153372698Y-125466000D01*
X159732698Y-131026000D02*
X159732698Y-129426000D01*
X159732698Y-129426000D02*
X160732698Y-129426000D01*
X161492698Y-125466000D02*
X160572698Y-125466000D01*
X160732698Y-131026000D02*
X159732698Y-131026000D01*
X154632698Y-131026000D02*
X154632698Y-133286000D01*
X155932698Y-128926000D02*
X158932698Y-128926000D01*
X153372698Y-133286000D02*
X161492698Y-133286000D01*
X160572698Y-125466000D02*
X160572698Y-127066000D01*
X153372698Y-125466000D02*
X153372698Y-133286000D01*
X155132698Y-131026000D02*
X155132698Y-133286000D01*
X153372698Y-127066000D02*
X154292698Y-127066000D01*
X160732698Y-129426000D02*
X160732698Y-131026000D01*
%LPC*%
D17*
X161394500Y-116062000D03*
X161394500Y-114062000D03*
D18*
X127858810Y-126926000D03*
D19*
X129858810Y-126926000D03*
X131858810Y-126926000D03*
D20*
X169688000Y-113792000D03*
X171688000Y-113792000D03*
D21*
X93730000Y-118900000D03*
D22*
X93730000Y-122400000D03*
D18*
X100284922Y-126926000D03*
D19*
X102284922Y-126926000D03*
X104284922Y-126926000D03*
D23*
X127254000Y-117623500D03*
X127254000Y-115548500D03*
D24*
X157568500Y-114046000D03*
X155568500Y-114046000D03*
D25*
X176022000Y-90170000D03*
D18*
X164624000Y-126926000D03*
D19*
X166624000Y-126926000D03*
X168624000Y-126926000D03*
D25*
X93218000Y-130302000D03*
D26*
X155531000Y-111618000D03*
X157606000Y-111618000D03*
D27*
X131318000Y-89662000D03*
X131318000Y-122682000D03*
X100838000Y-122682000D03*
X100838000Y-89662000D03*
D28*
X131318000Y-118872000D03*
D29*
X131318000Y-116332000D03*
X131318000Y-113792000D03*
X131318000Y-111252000D03*
X131318000Y-108712000D03*
X131318000Y-106172000D03*
X131318000Y-103632000D03*
X131318000Y-101092000D03*
X131318000Y-98552000D03*
X131318000Y-96012000D03*
X131318000Y-93472000D03*
D25*
X93218000Y-90170000D03*
D18*
X137050106Y-126926000D03*
D19*
X139050106Y-126926000D03*
X141050106Y-126926000D03*
D30*
X155448000Y-107204000D03*
X155448000Y-109204000D03*
D18*
X146241402Y-126926000D03*
D19*
X148241402Y-126926000D03*
X150241402Y-126926000D03*
D18*
X109476218Y-126926000D03*
D19*
X111476218Y-126926000D03*
X113476218Y-126926000D03*
D26*
X155531000Y-118984000D03*
X157606000Y-118984000D03*
D31*
X169810000Y-97115000D03*
D32*
X169810000Y-92115000D03*
X169810000Y-94615000D03*
D33*
X162310000Y-100215000D03*
X162310000Y-89015000D03*
D32*
X155310000Y-92115000D03*
X155310000Y-97115000D03*
D34*
X136906000Y-88392000D03*
X136906000Y-90932000D03*
X136906000Y-93472000D03*
X136906000Y-96012000D03*
X136906000Y-98552000D03*
X136906000Y-101092000D03*
X136906000Y-103632000D03*
X136906000Y-106172000D03*
X136906000Y-108712000D03*
X136906000Y-111252000D03*
X136906000Y-113792000D03*
X136906000Y-116332000D03*
X136906000Y-118872000D03*
X136906000Y-121412000D03*
X152146000Y-121412000D03*
X152146000Y-118872000D03*
X152146000Y-116332000D03*
X152146000Y-113792000D03*
X152146000Y-111252000D03*
X152146000Y-108712000D03*
X152146000Y-106172000D03*
X152146000Y-103632000D03*
X152146000Y-101092000D03*
X152146000Y-98552000D03*
X152146000Y-96012000D03*
X152146000Y-93472000D03*
X152146000Y-90932000D03*
X152146000Y-88392000D03*
D35*
X170212000Y-105918000D03*
D36*
X170212000Y-108458000D03*
D23*
X160528000Y-109241500D03*
X160528000Y-107166500D03*
D37*
X163322000Y-109198500D03*
X163322000Y-111273500D03*
D20*
X155568500Y-116444000D03*
X157568500Y-116444000D03*
D18*
X118667514Y-126926000D03*
D19*
X120667514Y-126926000D03*
X122667514Y-126926000D03*
D25*
X176022000Y-130302000D03*
D24*
X158734000Y-121920000D03*
X156734000Y-121920000D03*
D28*
X175112500Y-118110000D03*
X168112500Y-118110000D03*
D38*
X176212500Y-114410000D03*
D39*
X166812500Y-114410000D03*
D38*
X174212500Y-121810000D03*
D40*
X162812500Y-118860000D03*
D17*
X157973000Y-109204000D03*
X157973000Y-107204000D03*
D18*
X155432698Y-126926000D03*
D19*
X157432698Y-126926000D03*
X159432698Y-126926000D03*
M02*
