%TF.GenerationSoftware,KiCad,Pcbnew,(6.0.9)*%
%TF.CreationDate,2022-12-29T20:38:57-05:00*%
%TF.ProjectId,led_controller,6c65645f-636f-46e7-9472-6f6c6c65722e,rev?*%
%TF.SameCoordinates,Original*%
%TF.FileFunction,Drillmap*%
%TF.FilePolarity,Positive*%
%FSLAX45Y45*%
G04 Gerber Fmt 4.5, Leading zero omitted, Abs format (unit mm)*
G04 Created by KiCad (PCBNEW (6.0.9)) date 2022-12-29 20:38:57*
%MOMM*%
%LPD*%
G01*
G04 APERTURE LIST*
%ADD10C,0.100000*%
%ADD11C,0.200000*%
%ADD12C,0.170000*%
%ADD13C,0.254000*%
G04 APERTURE END LIST*
D10*
X17907000Y-9017000D02*
X17907000Y-13030200D01*
X9017000Y-13030200D02*
X9017000Y-9017000D01*
X17602200Y-13335000D02*
X9321800Y-13335000D01*
X9321800Y-8712200D02*
G75*
G03*
X9017000Y-9017000I0J-304800D01*
G01*
X9321800Y-8712200D02*
X17602200Y-8712200D01*
X17602200Y-13335000D02*
G75*
G03*
X17907000Y-13030200I0J304800D01*
G01*
X9017000Y-13030200D02*
G75*
G03*
X9321800Y-13335000I304800J0D01*
G01*
X17907000Y-9017000D02*
G75*
G03*
X17602200Y-8712200I-304800J0D01*
G01*
D11*
D12*
X16726250Y-11726000D02*
X16896250Y-11896000D01*
X16896250Y-11726000D02*
X16726250Y-11896000D01*
X17426250Y-11726000D02*
X17596250Y-11896000D01*
X17596250Y-11726000D02*
X17426250Y-11896000D01*
D13*
X10210800Y-8966200D02*
G75*
G03*
X10210800Y-8966200I-127000J0D01*
G01*
X10210800Y-12268200D02*
G75*
G03*
X10210800Y-12268200I-127000J0D01*
G01*
X13258800Y-8966200D02*
G75*
G03*
X13258800Y-8966200I-127000J0D01*
G01*
X13258800Y-12268200D02*
G75*
G03*
X13258800Y-12268200I-127000J0D01*
G01*
D11*
X9269619Y-13650476D02*
X9269619Y-13450476D01*
X9317238Y-13450476D01*
X9345810Y-13460000D01*
X9364857Y-13479048D01*
X9374381Y-13498095D01*
X9383905Y-13536190D01*
X9383905Y-13564762D01*
X9374381Y-13602857D01*
X9364857Y-13621905D01*
X9345810Y-13640952D01*
X9317238Y-13650476D01*
X9269619Y-13650476D01*
X9469619Y-13650476D02*
X9469619Y-13517143D01*
X9469619Y-13555238D02*
X9479143Y-13536190D01*
X9488667Y-13526667D01*
X9507714Y-13517143D01*
X9526762Y-13517143D01*
X9593429Y-13650476D02*
X9593429Y-13517143D01*
X9593429Y-13450476D02*
X9583905Y-13460000D01*
X9593429Y-13469524D01*
X9602952Y-13460000D01*
X9593429Y-13450476D01*
X9593429Y-13469524D01*
X9717238Y-13650476D02*
X9698190Y-13640952D01*
X9688667Y-13621905D01*
X9688667Y-13450476D01*
X9822000Y-13650476D02*
X9802952Y-13640952D01*
X9793429Y-13621905D01*
X9793429Y-13450476D01*
X10050571Y-13650476D02*
X10050571Y-13450476D01*
X10117238Y-13593333D01*
X10183905Y-13450476D01*
X10183905Y-13650476D01*
X10364857Y-13650476D02*
X10364857Y-13545714D01*
X10355333Y-13526667D01*
X10336286Y-13517143D01*
X10298190Y-13517143D01*
X10279143Y-13526667D01*
X10364857Y-13640952D02*
X10345810Y-13650476D01*
X10298190Y-13650476D01*
X10279143Y-13640952D01*
X10269619Y-13621905D01*
X10269619Y-13602857D01*
X10279143Y-13583809D01*
X10298190Y-13574286D01*
X10345810Y-13574286D01*
X10364857Y-13564762D01*
X10460095Y-13517143D02*
X10460095Y-13717143D01*
X10460095Y-13526667D02*
X10479143Y-13517143D01*
X10517238Y-13517143D01*
X10536286Y-13526667D01*
X10545810Y-13536190D01*
X10555333Y-13555238D01*
X10555333Y-13612381D01*
X10545810Y-13631428D01*
X10536286Y-13640952D01*
X10517238Y-13650476D01*
X10479143Y-13650476D01*
X10460095Y-13640952D01*
X10641048Y-13631428D02*
X10650571Y-13640952D01*
X10641048Y-13650476D01*
X10631524Y-13640952D01*
X10641048Y-13631428D01*
X10641048Y-13650476D01*
X10641048Y-13526667D02*
X10650571Y-13536190D01*
X10641048Y-13545714D01*
X10631524Y-13536190D01*
X10641048Y-13526667D01*
X10641048Y-13545714D01*
D12*
X8842000Y-13895000D02*
X9012000Y-14065000D01*
X9012000Y-13895000D02*
X8842000Y-14065000D01*
D11*
X9374381Y-14070476D02*
X9260095Y-14070476D01*
X9317238Y-14070476D02*
X9317238Y-13870476D01*
X9298190Y-13899048D01*
X9279143Y-13918095D01*
X9260095Y-13927619D01*
X9460095Y-14051428D02*
X9469619Y-14060952D01*
X9460095Y-14070476D01*
X9450571Y-14060952D01*
X9460095Y-14051428D01*
X9460095Y-14070476D01*
X9536286Y-13870476D02*
X9669619Y-13870476D01*
X9583905Y-14070476D01*
X9783905Y-13870476D02*
X9802952Y-13870476D01*
X9822000Y-13880000D01*
X9831524Y-13889524D01*
X9841048Y-13908571D01*
X9850571Y-13946667D01*
X9850571Y-13994286D01*
X9841048Y-14032381D01*
X9831524Y-14051428D01*
X9822000Y-14060952D01*
X9802952Y-14070476D01*
X9783905Y-14070476D01*
X9764857Y-14060952D01*
X9755333Y-14051428D01*
X9745810Y-14032381D01*
X9736286Y-13994286D01*
X9736286Y-13946667D01*
X9745810Y-13908571D01*
X9755333Y-13889524D01*
X9764857Y-13880000D01*
X9783905Y-13870476D01*
X9974381Y-13870476D02*
X9993429Y-13870476D01*
X10012476Y-13880000D01*
X10022000Y-13889524D01*
X10031524Y-13908571D01*
X10041048Y-13946667D01*
X10041048Y-13994286D01*
X10031524Y-14032381D01*
X10022000Y-14051428D01*
X10012476Y-14060952D01*
X9993429Y-14070476D01*
X9974381Y-14070476D01*
X9955333Y-14060952D01*
X9945810Y-14051428D01*
X9936286Y-14032381D01*
X9926762Y-13994286D01*
X9926762Y-13946667D01*
X9936286Y-13908571D01*
X9945810Y-13889524D01*
X9955333Y-13880000D01*
X9974381Y-13870476D01*
X10126762Y-14070476D02*
X10126762Y-13937143D01*
X10126762Y-13956190D02*
X10136286Y-13946667D01*
X10155333Y-13937143D01*
X10183905Y-13937143D01*
X10202952Y-13946667D01*
X10212476Y-13965714D01*
X10212476Y-14070476D01*
X10212476Y-13965714D02*
X10222000Y-13946667D01*
X10241048Y-13937143D01*
X10269619Y-13937143D01*
X10288667Y-13946667D01*
X10298190Y-13965714D01*
X10298190Y-14070476D01*
X10393429Y-14070476D02*
X10393429Y-13937143D01*
X10393429Y-13956190D02*
X10402952Y-13946667D01*
X10422000Y-13937143D01*
X10450571Y-13937143D01*
X10469619Y-13946667D01*
X10479143Y-13965714D01*
X10479143Y-14070476D01*
X10479143Y-13965714D02*
X10488667Y-13946667D01*
X10507714Y-13937143D01*
X10536286Y-13937143D01*
X10555333Y-13946667D01*
X10564857Y-13965714D01*
X10564857Y-14070476D01*
X10955333Y-13860952D02*
X10783905Y-14118095D01*
X11212476Y-13870476D02*
X11231524Y-13870476D01*
X11250571Y-13880000D01*
X11260095Y-13889524D01*
X11269619Y-13908571D01*
X11279143Y-13946667D01*
X11279143Y-13994286D01*
X11269619Y-14032381D01*
X11260095Y-14051428D01*
X11250571Y-14060952D01*
X11231524Y-14070476D01*
X11212476Y-14070476D01*
X11193428Y-14060952D01*
X11183905Y-14051428D01*
X11174381Y-14032381D01*
X11164857Y-13994286D01*
X11164857Y-13946667D01*
X11174381Y-13908571D01*
X11183905Y-13889524D01*
X11193428Y-13880000D01*
X11212476Y-13870476D01*
X11364857Y-14051428D02*
X11374381Y-14060952D01*
X11364857Y-14070476D01*
X11355333Y-14060952D01*
X11364857Y-14051428D01*
X11364857Y-14070476D01*
X11498190Y-13870476D02*
X11517238Y-13870476D01*
X11536286Y-13880000D01*
X11545809Y-13889524D01*
X11555333Y-13908571D01*
X11564857Y-13946667D01*
X11564857Y-13994286D01*
X11555333Y-14032381D01*
X11545809Y-14051428D01*
X11536286Y-14060952D01*
X11517238Y-14070476D01*
X11498190Y-14070476D01*
X11479143Y-14060952D01*
X11469619Y-14051428D01*
X11460095Y-14032381D01*
X11450571Y-13994286D01*
X11450571Y-13946667D01*
X11460095Y-13908571D01*
X11469619Y-13889524D01*
X11479143Y-13880000D01*
X11498190Y-13870476D01*
X11736286Y-13870476D02*
X11698190Y-13870476D01*
X11679143Y-13880000D01*
X11669619Y-13889524D01*
X11650571Y-13918095D01*
X11641048Y-13956190D01*
X11641048Y-14032381D01*
X11650571Y-14051428D01*
X11660095Y-14060952D01*
X11679143Y-14070476D01*
X11717238Y-14070476D01*
X11736286Y-14060952D01*
X11745809Y-14051428D01*
X11755333Y-14032381D01*
X11755333Y-13984762D01*
X11745809Y-13965714D01*
X11736286Y-13956190D01*
X11717238Y-13946667D01*
X11679143Y-13946667D01*
X11660095Y-13956190D01*
X11650571Y-13965714D01*
X11641048Y-13984762D01*
X11926762Y-13870476D02*
X11888667Y-13870476D01*
X11869619Y-13880000D01*
X11860095Y-13889524D01*
X11841048Y-13918095D01*
X11831524Y-13956190D01*
X11831524Y-14032381D01*
X11841048Y-14051428D01*
X11850571Y-14060952D01*
X11869619Y-14070476D01*
X11907714Y-14070476D01*
X11926762Y-14060952D01*
X11936286Y-14051428D01*
X11945809Y-14032381D01*
X11945809Y-13984762D01*
X11936286Y-13965714D01*
X11926762Y-13956190D01*
X11907714Y-13946667D01*
X11869619Y-13946667D01*
X11850571Y-13956190D01*
X11841048Y-13965714D01*
X11831524Y-13984762D01*
X12041048Y-14070476D02*
X12079143Y-14070476D01*
X12098190Y-14060952D01*
X12107714Y-14051428D01*
X12126762Y-14022857D01*
X12136286Y-13984762D01*
X12136286Y-13908571D01*
X12126762Y-13889524D01*
X12117238Y-13880000D01*
X12098190Y-13870476D01*
X12060095Y-13870476D01*
X12041048Y-13880000D01*
X12031524Y-13889524D01*
X12022000Y-13908571D01*
X12022000Y-13956190D01*
X12031524Y-13975238D01*
X12041048Y-13984762D01*
X12060095Y-13994286D01*
X12098190Y-13994286D01*
X12117238Y-13984762D01*
X12126762Y-13975238D01*
X12136286Y-13956190D01*
X12212476Y-13870476D02*
X12212476Y-13908571D01*
X12288667Y-13870476D02*
X12288667Y-13908571D01*
X12583905Y-14146667D02*
X12574381Y-14137143D01*
X12555333Y-14108571D01*
X12545809Y-14089524D01*
X12536286Y-14060952D01*
X12526762Y-14013333D01*
X12526762Y-13975238D01*
X12536286Y-13927619D01*
X12545809Y-13899048D01*
X12555333Y-13880000D01*
X12574381Y-13851428D01*
X12583905Y-13841905D01*
X12650571Y-13889524D02*
X12660095Y-13880000D01*
X12679143Y-13870476D01*
X12726762Y-13870476D01*
X12745809Y-13880000D01*
X12755333Y-13889524D01*
X12764857Y-13908571D01*
X12764857Y-13927619D01*
X12755333Y-13956190D01*
X12641048Y-14070476D01*
X12764857Y-14070476D01*
X13002952Y-14070476D02*
X13002952Y-13870476D01*
X13088667Y-14070476D02*
X13088667Y-13965714D01*
X13079143Y-13946667D01*
X13060095Y-13937143D01*
X13031524Y-13937143D01*
X13012476Y-13946667D01*
X13002952Y-13956190D01*
X13212476Y-14070476D02*
X13193428Y-14060952D01*
X13183905Y-14051428D01*
X13174381Y-14032381D01*
X13174381Y-13975238D01*
X13183905Y-13956190D01*
X13193428Y-13946667D01*
X13212476Y-13937143D01*
X13241048Y-13937143D01*
X13260095Y-13946667D01*
X13269619Y-13956190D01*
X13279143Y-13975238D01*
X13279143Y-14032381D01*
X13269619Y-14051428D01*
X13260095Y-14060952D01*
X13241048Y-14070476D01*
X13212476Y-14070476D01*
X13393428Y-14070476D02*
X13374381Y-14060952D01*
X13364857Y-14041905D01*
X13364857Y-13870476D01*
X13545809Y-14060952D02*
X13526762Y-14070476D01*
X13488667Y-14070476D01*
X13469619Y-14060952D01*
X13460095Y-14041905D01*
X13460095Y-13965714D01*
X13469619Y-13946667D01*
X13488667Y-13937143D01*
X13526762Y-13937143D01*
X13545809Y-13946667D01*
X13555333Y-13965714D01*
X13555333Y-13984762D01*
X13460095Y-14003809D01*
X13631524Y-14060952D02*
X13650571Y-14070476D01*
X13688667Y-14070476D01*
X13707714Y-14060952D01*
X13717238Y-14041905D01*
X13717238Y-14032381D01*
X13707714Y-14013333D01*
X13688667Y-14003809D01*
X13660095Y-14003809D01*
X13641048Y-13994286D01*
X13631524Y-13975238D01*
X13631524Y-13965714D01*
X13641048Y-13946667D01*
X13660095Y-13937143D01*
X13688667Y-13937143D01*
X13707714Y-13946667D01*
X13783905Y-14146667D02*
X13793428Y-14137143D01*
X13812476Y-14108571D01*
X13822000Y-14089524D01*
X13831524Y-14060952D01*
X13841048Y-14013333D01*
X13841048Y-13975238D01*
X13831524Y-13927619D01*
X13822000Y-13899048D01*
X13812476Y-13880000D01*
X13793428Y-13851428D01*
X13783905Y-13841905D01*
X14145809Y-14146667D02*
X14136286Y-14137143D01*
X14117238Y-14108571D01*
X14107714Y-14089524D01*
X14098190Y-14060952D01*
X14088667Y-14013333D01*
X14088667Y-13975238D01*
X14098190Y-13927619D01*
X14107714Y-13899048D01*
X14117238Y-13880000D01*
X14136286Y-13851428D01*
X14145809Y-13841905D01*
X14222000Y-13937143D02*
X14222000Y-14070476D01*
X14222000Y-13956190D02*
X14231524Y-13946667D01*
X14250571Y-13937143D01*
X14279143Y-13937143D01*
X14298190Y-13946667D01*
X14307714Y-13965714D01*
X14307714Y-14070476D01*
X14431524Y-14070476D02*
X14412476Y-14060952D01*
X14402952Y-14051428D01*
X14393428Y-14032381D01*
X14393428Y-13975238D01*
X14402952Y-13956190D01*
X14412476Y-13946667D01*
X14431524Y-13937143D01*
X14460095Y-13937143D01*
X14479143Y-13946667D01*
X14488667Y-13956190D01*
X14498190Y-13975238D01*
X14498190Y-14032381D01*
X14488667Y-14051428D01*
X14479143Y-14060952D01*
X14460095Y-14070476D01*
X14431524Y-14070476D01*
X14555333Y-13937143D02*
X14631524Y-13937143D01*
X14583905Y-13870476D02*
X14583905Y-14041905D01*
X14593428Y-14060952D01*
X14612476Y-14070476D01*
X14631524Y-14070476D01*
X14850571Y-13937143D02*
X14850571Y-14137143D01*
X14850571Y-13946667D02*
X14869619Y-13937143D01*
X14907714Y-13937143D01*
X14926762Y-13946667D01*
X14936286Y-13956190D01*
X14945809Y-13975238D01*
X14945809Y-14032381D01*
X14936286Y-14051428D01*
X14926762Y-14060952D01*
X14907714Y-14070476D01*
X14869619Y-14070476D01*
X14850571Y-14060952D01*
X15060095Y-14070476D02*
X15041048Y-14060952D01*
X15031524Y-14041905D01*
X15031524Y-13870476D01*
X15222000Y-14070476D02*
X15222000Y-13965714D01*
X15212476Y-13946667D01*
X15193428Y-13937143D01*
X15155333Y-13937143D01*
X15136286Y-13946667D01*
X15222000Y-14060952D02*
X15202952Y-14070476D01*
X15155333Y-14070476D01*
X15136286Y-14060952D01*
X15126762Y-14041905D01*
X15126762Y-14022857D01*
X15136286Y-14003809D01*
X15155333Y-13994286D01*
X15202952Y-13994286D01*
X15222000Y-13984762D01*
X15288667Y-13937143D02*
X15364857Y-13937143D01*
X15317238Y-13870476D02*
X15317238Y-14041905D01*
X15326762Y-14060952D01*
X15345809Y-14070476D01*
X15364857Y-14070476D01*
X15507714Y-14060952D02*
X15488667Y-14070476D01*
X15450571Y-14070476D01*
X15431524Y-14060952D01*
X15422000Y-14041905D01*
X15422000Y-13965714D01*
X15431524Y-13946667D01*
X15450571Y-13937143D01*
X15488667Y-13937143D01*
X15507714Y-13946667D01*
X15517238Y-13965714D01*
X15517238Y-13984762D01*
X15422000Y-14003809D01*
X15688667Y-14070476D02*
X15688667Y-13870476D01*
X15688667Y-14060952D02*
X15669619Y-14070476D01*
X15631524Y-14070476D01*
X15612476Y-14060952D01*
X15602952Y-14051428D01*
X15593428Y-14032381D01*
X15593428Y-13975238D01*
X15602952Y-13956190D01*
X15612476Y-13946667D01*
X15631524Y-13937143D01*
X15669619Y-13937143D01*
X15688667Y-13946667D01*
X15764857Y-14146667D02*
X15774381Y-14137143D01*
X15793428Y-14108571D01*
X15802952Y-14089524D01*
X15812476Y-14060952D01*
X15822000Y-14013333D01*
X15822000Y-13975238D01*
X15812476Y-13927619D01*
X15802952Y-13899048D01*
X15793428Y-13880000D01*
X15774381Y-13851428D01*
X15764857Y-13841905D01*
X9012000Y-14270000D02*
G75*
G03*
X9012000Y-14270000I-100000J0D01*
G01*
X9260095Y-14179524D02*
X9269619Y-14170000D01*
X9288667Y-14160476D01*
X9336286Y-14160476D01*
X9355333Y-14170000D01*
X9364857Y-14179524D01*
X9374381Y-14198571D01*
X9374381Y-14217619D01*
X9364857Y-14246190D01*
X9250571Y-14360476D01*
X9374381Y-14360476D01*
X9460095Y-14341428D02*
X9469619Y-14350952D01*
X9460095Y-14360476D01*
X9450571Y-14350952D01*
X9460095Y-14341428D01*
X9460095Y-14360476D01*
X9650571Y-14160476D02*
X9555333Y-14160476D01*
X9545810Y-14255714D01*
X9555333Y-14246190D01*
X9574381Y-14236667D01*
X9622000Y-14236667D01*
X9641048Y-14246190D01*
X9650571Y-14255714D01*
X9660095Y-14274762D01*
X9660095Y-14322381D01*
X9650571Y-14341428D01*
X9641048Y-14350952D01*
X9622000Y-14360476D01*
X9574381Y-14360476D01*
X9555333Y-14350952D01*
X9545810Y-14341428D01*
X9831524Y-14227143D02*
X9831524Y-14360476D01*
X9783905Y-14150952D02*
X9736286Y-14293809D01*
X9860095Y-14293809D01*
X9974381Y-14160476D02*
X9993429Y-14160476D01*
X10012476Y-14170000D01*
X10022000Y-14179524D01*
X10031524Y-14198571D01*
X10041048Y-14236667D01*
X10041048Y-14284286D01*
X10031524Y-14322381D01*
X10022000Y-14341428D01*
X10012476Y-14350952D01*
X9993429Y-14360476D01*
X9974381Y-14360476D01*
X9955333Y-14350952D01*
X9945810Y-14341428D01*
X9936286Y-14322381D01*
X9926762Y-14284286D01*
X9926762Y-14236667D01*
X9936286Y-14198571D01*
X9945810Y-14179524D01*
X9955333Y-14170000D01*
X9974381Y-14160476D01*
X10126762Y-14360476D02*
X10126762Y-14227143D01*
X10126762Y-14246190D02*
X10136286Y-14236667D01*
X10155333Y-14227143D01*
X10183905Y-14227143D01*
X10202952Y-14236667D01*
X10212476Y-14255714D01*
X10212476Y-14360476D01*
X10212476Y-14255714D02*
X10222000Y-14236667D01*
X10241048Y-14227143D01*
X10269619Y-14227143D01*
X10288667Y-14236667D01*
X10298190Y-14255714D01*
X10298190Y-14360476D01*
X10393429Y-14360476D02*
X10393429Y-14227143D01*
X10393429Y-14246190D02*
X10402952Y-14236667D01*
X10422000Y-14227143D01*
X10450571Y-14227143D01*
X10469619Y-14236667D01*
X10479143Y-14255714D01*
X10479143Y-14360476D01*
X10479143Y-14255714D02*
X10488667Y-14236667D01*
X10507714Y-14227143D01*
X10536286Y-14227143D01*
X10555333Y-14236667D01*
X10564857Y-14255714D01*
X10564857Y-14360476D01*
X10955333Y-14150952D02*
X10783905Y-14408095D01*
X11212476Y-14160476D02*
X11231524Y-14160476D01*
X11250571Y-14170000D01*
X11260095Y-14179524D01*
X11269619Y-14198571D01*
X11279143Y-14236667D01*
X11279143Y-14284286D01*
X11269619Y-14322381D01*
X11260095Y-14341428D01*
X11250571Y-14350952D01*
X11231524Y-14360476D01*
X11212476Y-14360476D01*
X11193428Y-14350952D01*
X11183905Y-14341428D01*
X11174381Y-14322381D01*
X11164857Y-14284286D01*
X11164857Y-14236667D01*
X11174381Y-14198571D01*
X11183905Y-14179524D01*
X11193428Y-14170000D01*
X11212476Y-14160476D01*
X11364857Y-14341428D02*
X11374381Y-14350952D01*
X11364857Y-14360476D01*
X11355333Y-14350952D01*
X11364857Y-14341428D01*
X11364857Y-14360476D01*
X11564857Y-14360476D02*
X11450571Y-14360476D01*
X11507714Y-14360476D02*
X11507714Y-14160476D01*
X11488667Y-14189048D01*
X11469619Y-14208095D01*
X11450571Y-14217619D01*
X11688667Y-14160476D02*
X11707714Y-14160476D01*
X11726762Y-14170000D01*
X11736286Y-14179524D01*
X11745809Y-14198571D01*
X11755333Y-14236667D01*
X11755333Y-14284286D01*
X11745809Y-14322381D01*
X11736286Y-14341428D01*
X11726762Y-14350952D01*
X11707714Y-14360476D01*
X11688667Y-14360476D01*
X11669619Y-14350952D01*
X11660095Y-14341428D01*
X11650571Y-14322381D01*
X11641048Y-14284286D01*
X11641048Y-14236667D01*
X11650571Y-14198571D01*
X11660095Y-14179524D01*
X11669619Y-14170000D01*
X11688667Y-14160476D01*
X11879143Y-14160476D02*
X11898190Y-14160476D01*
X11917238Y-14170000D01*
X11926762Y-14179524D01*
X11936286Y-14198571D01*
X11945809Y-14236667D01*
X11945809Y-14284286D01*
X11936286Y-14322381D01*
X11926762Y-14341428D01*
X11917238Y-14350952D01*
X11898190Y-14360476D01*
X11879143Y-14360476D01*
X11860095Y-14350952D01*
X11850571Y-14341428D01*
X11841048Y-14322381D01*
X11831524Y-14284286D01*
X11831524Y-14236667D01*
X11841048Y-14198571D01*
X11850571Y-14179524D01*
X11860095Y-14170000D01*
X11879143Y-14160476D01*
X12069619Y-14160476D02*
X12088667Y-14160476D01*
X12107714Y-14170000D01*
X12117238Y-14179524D01*
X12126762Y-14198571D01*
X12136286Y-14236667D01*
X12136286Y-14284286D01*
X12126762Y-14322381D01*
X12117238Y-14341428D01*
X12107714Y-14350952D01*
X12088667Y-14360476D01*
X12069619Y-14360476D01*
X12050571Y-14350952D01*
X12041048Y-14341428D01*
X12031524Y-14322381D01*
X12022000Y-14284286D01*
X12022000Y-14236667D01*
X12031524Y-14198571D01*
X12041048Y-14179524D01*
X12050571Y-14170000D01*
X12069619Y-14160476D01*
X12212476Y-14160476D02*
X12212476Y-14198571D01*
X12288667Y-14160476D02*
X12288667Y-14198571D01*
X12583905Y-14436667D02*
X12574381Y-14427143D01*
X12555333Y-14398571D01*
X12545809Y-14379524D01*
X12536286Y-14350952D01*
X12526762Y-14303333D01*
X12526762Y-14265238D01*
X12536286Y-14217619D01*
X12545809Y-14189048D01*
X12555333Y-14170000D01*
X12574381Y-14141428D01*
X12583905Y-14131905D01*
X12745809Y-14227143D02*
X12745809Y-14360476D01*
X12698190Y-14150952D02*
X12650571Y-14293809D01*
X12774381Y-14293809D01*
X13002952Y-14360476D02*
X13002952Y-14160476D01*
X13088667Y-14360476D02*
X13088667Y-14255714D01*
X13079143Y-14236667D01*
X13060095Y-14227143D01*
X13031524Y-14227143D01*
X13012476Y-14236667D01*
X13002952Y-14246190D01*
X13212476Y-14360476D02*
X13193428Y-14350952D01*
X13183905Y-14341428D01*
X13174381Y-14322381D01*
X13174381Y-14265238D01*
X13183905Y-14246190D01*
X13193428Y-14236667D01*
X13212476Y-14227143D01*
X13241048Y-14227143D01*
X13260095Y-14236667D01*
X13269619Y-14246190D01*
X13279143Y-14265238D01*
X13279143Y-14322381D01*
X13269619Y-14341428D01*
X13260095Y-14350952D01*
X13241048Y-14360476D01*
X13212476Y-14360476D01*
X13393428Y-14360476D02*
X13374381Y-14350952D01*
X13364857Y-14331905D01*
X13364857Y-14160476D01*
X13545809Y-14350952D02*
X13526762Y-14360476D01*
X13488667Y-14360476D01*
X13469619Y-14350952D01*
X13460095Y-14331905D01*
X13460095Y-14255714D01*
X13469619Y-14236667D01*
X13488667Y-14227143D01*
X13526762Y-14227143D01*
X13545809Y-14236667D01*
X13555333Y-14255714D01*
X13555333Y-14274762D01*
X13460095Y-14293809D01*
X13631524Y-14350952D02*
X13650571Y-14360476D01*
X13688667Y-14360476D01*
X13707714Y-14350952D01*
X13717238Y-14331905D01*
X13717238Y-14322381D01*
X13707714Y-14303333D01*
X13688667Y-14293809D01*
X13660095Y-14293809D01*
X13641048Y-14284286D01*
X13631524Y-14265238D01*
X13631524Y-14255714D01*
X13641048Y-14236667D01*
X13660095Y-14227143D01*
X13688667Y-14227143D01*
X13707714Y-14236667D01*
X13783905Y-14436667D02*
X13793428Y-14427143D01*
X13812476Y-14398571D01*
X13822000Y-14379524D01*
X13831524Y-14350952D01*
X13841048Y-14303333D01*
X13841048Y-14265238D01*
X13831524Y-14217619D01*
X13822000Y-14189048D01*
X13812476Y-14170000D01*
X13793428Y-14141428D01*
X13783905Y-14131905D01*
X14145809Y-14436667D02*
X14136286Y-14427143D01*
X14117238Y-14398571D01*
X14107714Y-14379524D01*
X14098190Y-14350952D01*
X14088667Y-14303333D01*
X14088667Y-14265238D01*
X14098190Y-14217619D01*
X14107714Y-14189048D01*
X14117238Y-14170000D01*
X14136286Y-14141428D01*
X14145809Y-14131905D01*
X14222000Y-14227143D02*
X14222000Y-14360476D01*
X14222000Y-14246190D02*
X14231524Y-14236667D01*
X14250571Y-14227143D01*
X14279143Y-14227143D01*
X14298190Y-14236667D01*
X14307714Y-14255714D01*
X14307714Y-14360476D01*
X14431524Y-14360476D02*
X14412476Y-14350952D01*
X14402952Y-14341428D01*
X14393428Y-14322381D01*
X14393428Y-14265238D01*
X14402952Y-14246190D01*
X14412476Y-14236667D01*
X14431524Y-14227143D01*
X14460095Y-14227143D01*
X14479143Y-14236667D01*
X14488667Y-14246190D01*
X14498190Y-14265238D01*
X14498190Y-14322381D01*
X14488667Y-14341428D01*
X14479143Y-14350952D01*
X14460095Y-14360476D01*
X14431524Y-14360476D01*
X14555333Y-14227143D02*
X14631524Y-14227143D01*
X14583905Y-14160476D02*
X14583905Y-14331905D01*
X14593428Y-14350952D01*
X14612476Y-14360476D01*
X14631524Y-14360476D01*
X14850571Y-14227143D02*
X14850571Y-14427143D01*
X14850571Y-14236667D02*
X14869619Y-14227143D01*
X14907714Y-14227143D01*
X14926762Y-14236667D01*
X14936286Y-14246190D01*
X14945809Y-14265238D01*
X14945809Y-14322381D01*
X14936286Y-14341428D01*
X14926762Y-14350952D01*
X14907714Y-14360476D01*
X14869619Y-14360476D01*
X14850571Y-14350952D01*
X15060095Y-14360476D02*
X15041048Y-14350952D01*
X15031524Y-14331905D01*
X15031524Y-14160476D01*
X15222000Y-14360476D02*
X15222000Y-14255714D01*
X15212476Y-14236667D01*
X15193428Y-14227143D01*
X15155333Y-14227143D01*
X15136286Y-14236667D01*
X15222000Y-14350952D02*
X15202952Y-14360476D01*
X15155333Y-14360476D01*
X15136286Y-14350952D01*
X15126762Y-14331905D01*
X15126762Y-14312857D01*
X15136286Y-14293809D01*
X15155333Y-14284286D01*
X15202952Y-14284286D01*
X15222000Y-14274762D01*
X15288667Y-14227143D02*
X15364857Y-14227143D01*
X15317238Y-14160476D02*
X15317238Y-14331905D01*
X15326762Y-14350952D01*
X15345809Y-14360476D01*
X15364857Y-14360476D01*
X15507714Y-14350952D02*
X15488667Y-14360476D01*
X15450571Y-14360476D01*
X15431524Y-14350952D01*
X15422000Y-14331905D01*
X15422000Y-14255714D01*
X15431524Y-14236667D01*
X15450571Y-14227143D01*
X15488667Y-14227143D01*
X15507714Y-14236667D01*
X15517238Y-14255714D01*
X15517238Y-14274762D01*
X15422000Y-14293809D01*
X15688667Y-14360476D02*
X15688667Y-14160476D01*
X15688667Y-14350952D02*
X15669619Y-14360476D01*
X15631524Y-14360476D01*
X15612476Y-14350952D01*
X15602952Y-14341428D01*
X15593428Y-14322381D01*
X15593428Y-14265238D01*
X15602952Y-14246190D01*
X15612476Y-14236667D01*
X15631524Y-14227143D01*
X15669619Y-14227143D01*
X15688667Y-14236667D01*
X15764857Y-14436667D02*
X15774381Y-14427143D01*
X15793428Y-14398571D01*
X15802952Y-14379524D01*
X15812476Y-14350952D01*
X15822000Y-14303333D01*
X15822000Y-14265238D01*
X15812476Y-14217619D01*
X15802952Y-14189048D01*
X15793428Y-14170000D01*
X15774381Y-14141428D01*
X15764857Y-14131905D01*
M02*
