%TF.GenerationSoftware,KiCad,Pcbnew,(6.0.6)*%
%TF.CreationDate,2022-06-26T20:30:04-07:00*%
%TF.ProjectId,led_controller-rounded,6c65645f-636f-46e7-9472-6f6c6c65722d,rev?*%
%TF.SameCoordinates,Original*%
%TF.FileFunction,Legend,Bot*%
%TF.FilePolarity,Positive*%
%FSLAX46Y46*%
G04 Gerber Fmt 4.6, Leading zero omitted, Abs format (unit mm)*
G04 Created by KiCad (PCBNEW (6.0.6)) date 2022-06-26 20:30:04*
%MOMM*%
%LPD*%
G01*
G04 APERTURE LIST*
G04 Aperture macros list*
%AMRoundRect*
0 Rectangle with rounded corners*
0 $1 Rounding radius*
0 $2 $3 $4 $5 $6 $7 $8 $9 X,Y pos of 4 corners*
0 Add a 4 corners polygon primitive as box body*
4,1,4,$2,$3,$4,$5,$6,$7,$8,$9,$2,$3,0*
0 Add four circle primitives for the rounded corners*
1,1,$1+$1,$2,$3*
1,1,$1+$1,$4,$5*
1,1,$1+$1,$6,$7*
1,1,$1+$1,$8,$9*
0 Add four rect primitives between the rounded corners*
20,1,$1+$1,$2,$3,$4,$5,0*
20,1,$1+$1,$4,$5,$6,$7,0*
20,1,$1+$1,$6,$7,$8,$9,0*
20,1,$1+$1,$8,$9,$2,$3,0*%
G04 Aperture macros list end*
%ADD10C,0.508000*%
%ADD11C,0.150000*%
%ADD12C,0.120000*%
%ADD13RoundRect,0.250000X-0.350000X-0.625000X0.350000X-0.625000X0.350000X0.625000X-0.350000X0.625000X0*%
%ADD14O,1.200000X1.750000*%
%ADD15R,2.500000X2.500000*%
%ADD16C,2.500000*%
%ADD17C,4.500000*%
%ADD18C,2.540000*%
%ADD19C,1.700000*%
%ADD20O,1.700000X1.700000*%
%ADD21R,2.000000X2.000000*%
%ADD22C,2.000000*%
%ADD23R,3.200000X2.000000*%
%ADD24C,1.600000*%
%ADD25R,1.378000X1.378000*%
%ADD26C,1.378000*%
%ADD27RoundRect,0.250000X-0.350000X-0.450000X0.350000X-0.450000X0.350000X0.450000X-0.350000X0.450000X0*%
%ADD28RoundRect,0.250000X0.450000X-0.350000X0.450000X0.350000X-0.450000X0.350000X-0.450000X-0.350000X0*%
%ADD29RoundRect,0.250000X0.475000X-0.337500X0.475000X0.337500X-0.475000X0.337500X-0.475000X-0.337500X0*%
%ADD30RoundRect,0.250000X-0.475000X0.337500X-0.475000X-0.337500X0.475000X-0.337500X0.475000X0.337500X0*%
%ADD31RoundRect,0.250000X-0.337500X-0.475000X0.337500X-0.475000X0.337500X0.475000X-0.337500X0.475000X0*%
%ADD32RoundRect,0.250000X0.350000X0.450000X-0.350000X0.450000X-0.350000X-0.450000X0.350000X-0.450000X0*%
%ADD33RoundRect,0.050000X-0.337500X-0.050000X0.337500X-0.050000X0.337500X0.050000X-0.337500X0.050000X0*%
%ADD34R,1.780000X2.350000*%
%ADD35RoundRect,0.250000X-0.450000X0.350000X-0.450000X-0.350000X0.450000X-0.350000X0.450000X0.350000X0*%
%ADD36RoundRect,0.100000X0.637500X0.100000X-0.637500X0.100000X-0.637500X-0.100000X0.637500X-0.100000X0*%
%ADD37RoundRect,0.250000X0.337500X0.475000X-0.337500X0.475000X-0.337500X-0.475000X0.337500X-0.475000X0*%
G04 APERTURE END LIST*
D10*
X178816000Y-90170000D02*
X178816000Y-130302000D01*
X93218000Y-87376000D02*
X135890000Y-87376000D01*
X96012000Y-90170000D02*
G75*
G03*
X96012000Y-90170000I-2794000J0D01*
G01*
X153162000Y-87376000D02*
X176022000Y-87376000D01*
X90424000Y-90170000D02*
X90424000Y-130302000D01*
X178816000Y-130302000D02*
G75*
G03*
X178816000Y-130302000I-2794000J0D01*
G01*
X178816000Y-90170000D02*
G75*
G03*
X178816000Y-90170000I-2794000J0D01*
G01*
X96012000Y-130302000D02*
G75*
G03*
X96012000Y-130302000I-2794000J0D01*
G01*
X93218000Y-133096000D02*
X176022000Y-133096000D01*
X137922000Y-87376000D02*
X151384000Y-87376000D01*
D11*
X114688857Y-122626380D02*
X115022190Y-122150190D01*
X115260285Y-122626380D02*
X115260285Y-121626380D01*
X114879333Y-121626380D01*
X114784095Y-121674000D01*
X114736476Y-121721619D01*
X114688857Y-121816857D01*
X114688857Y-121959714D01*
X114736476Y-122054952D01*
X114784095Y-122102571D01*
X114879333Y-122150190D01*
X115260285Y-122150190D01*
X113736476Y-122626380D02*
X114307904Y-122626380D01*
X114022190Y-122626380D02*
X114022190Y-121626380D01*
X114117428Y-121769238D01*
X114212666Y-121864476D01*
X114307904Y-121912095D01*
X112879333Y-121959714D02*
X112879333Y-122626380D01*
X113117428Y-121578761D02*
X113355523Y-122293047D01*
X112736476Y-122293047D01*
X135008857Y-122626380D02*
X135342190Y-122150190D01*
X135580285Y-122626380D02*
X135580285Y-121626380D01*
X135199333Y-121626380D01*
X135104095Y-121674000D01*
X135056476Y-121721619D01*
X135008857Y-121816857D01*
X135008857Y-121959714D01*
X135056476Y-122054952D01*
X135104095Y-122102571D01*
X135199333Y-122150190D01*
X135580285Y-122150190D01*
X134056476Y-122626380D02*
X134627904Y-122626380D01*
X134342190Y-122626380D02*
X134342190Y-121626380D01*
X134437428Y-121769238D01*
X134532666Y-121864476D01*
X134627904Y-121912095D01*
X133199333Y-121626380D02*
X133389809Y-121626380D01*
X133485047Y-121674000D01*
X133532666Y-121721619D01*
X133627904Y-121864476D01*
X133675523Y-122054952D01*
X133675523Y-122435904D01*
X133627904Y-122531142D01*
X133580285Y-122578761D01*
X133485047Y-122626380D01*
X133294571Y-122626380D01*
X133199333Y-122578761D01*
X133151714Y-122531142D01*
X133104095Y-122435904D01*
X133104095Y-122197809D01*
X133151714Y-122102571D01*
X133199333Y-122054952D01*
X133294571Y-122007333D01*
X133485047Y-122007333D01*
X133580285Y-122054952D01*
X133627904Y-122102571D01*
X133675523Y-122197809D01*
X168218380Y-97655142D02*
X167742190Y-97321809D01*
X168218380Y-97083714D02*
X167218380Y-97083714D01*
X167218380Y-97464666D01*
X167266000Y-97559904D01*
X167313619Y-97607523D01*
X167408857Y-97655142D01*
X167551714Y-97655142D01*
X167646952Y-97607523D01*
X167694571Y-97559904D01*
X167742190Y-97464666D01*
X167742190Y-97083714D01*
X168218380Y-98607523D02*
X168218380Y-98036095D01*
X168218380Y-98321809D02*
X167218380Y-98321809D01*
X167361238Y-98226571D01*
X167456476Y-98131333D01*
X167504095Y-98036095D01*
X168218380Y-99559904D02*
X168218380Y-98988476D01*
X168218380Y-99274190D02*
X167218380Y-99274190D01*
X167361238Y-99178952D01*
X167456476Y-99083714D01*
X167504095Y-98988476D01*
X163456857Y-92146380D02*
X163790190Y-91670190D01*
X164028285Y-92146380D02*
X164028285Y-91146380D01*
X163647333Y-91146380D01*
X163552095Y-91194000D01*
X163504476Y-91241619D01*
X163456857Y-91336857D01*
X163456857Y-91479714D01*
X163504476Y-91574952D01*
X163552095Y-91622571D01*
X163647333Y-91670190D01*
X164028285Y-91670190D01*
X162504476Y-92146380D02*
X163075904Y-92146380D01*
X162790190Y-92146380D02*
X162790190Y-91146380D01*
X162885428Y-91289238D01*
X162980666Y-91384476D01*
X163075904Y-91432095D01*
X161885428Y-91146380D02*
X161790190Y-91146380D01*
X161694952Y-91194000D01*
X161647333Y-91241619D01*
X161599714Y-91336857D01*
X161552095Y-91527333D01*
X161552095Y-91765428D01*
X161599714Y-91955904D01*
X161647333Y-92051142D01*
X161694952Y-92098761D01*
X161790190Y-92146380D01*
X161885428Y-92146380D01*
X161980666Y-92098761D01*
X162028285Y-92051142D01*
X162075904Y-91955904D01*
X162123523Y-91765428D01*
X162123523Y-91527333D01*
X162075904Y-91336857D01*
X162028285Y-91241619D01*
X161980666Y-91194000D01*
X161885428Y-91146380D01*
X156661857Y-103054142D02*
X156709476Y-103101761D01*
X156852333Y-103149380D01*
X156947571Y-103149380D01*
X157090428Y-103101761D01*
X157185666Y-103006523D01*
X157233285Y-102911285D01*
X157280904Y-102720809D01*
X157280904Y-102577952D01*
X157233285Y-102387476D01*
X157185666Y-102292238D01*
X157090428Y-102197000D01*
X156947571Y-102149380D01*
X156852333Y-102149380D01*
X156709476Y-102197000D01*
X156661857Y-102244619D01*
X155709476Y-103149380D02*
X156280904Y-103149380D01*
X155995190Y-103149380D02*
X155995190Y-102149380D01*
X156090428Y-102292238D01*
X156185666Y-102387476D01*
X156280904Y-102435095D01*
X155328523Y-102244619D02*
X155280904Y-102197000D01*
X155185666Y-102149380D01*
X154947571Y-102149380D01*
X154852333Y-102197000D01*
X154804714Y-102244619D01*
X154757095Y-102339857D01*
X154757095Y-102435095D01*
X154804714Y-102577952D01*
X155376142Y-103149380D01*
X154757095Y-103149380D01*
X158408666Y-112939642D02*
X158456285Y-112987261D01*
X158599142Y-113034880D01*
X158694380Y-113034880D01*
X158837238Y-112987261D01*
X158932476Y-112892023D01*
X158980095Y-112796785D01*
X159027714Y-112606309D01*
X159027714Y-112463452D01*
X158980095Y-112272976D01*
X158932476Y-112177738D01*
X158837238Y-112082500D01*
X158694380Y-112034880D01*
X158599142Y-112034880D01*
X158456285Y-112082500D01*
X158408666Y-112130119D01*
X157551523Y-112368214D02*
X157551523Y-113034880D01*
X157789619Y-111987261D02*
X158027714Y-112701547D01*
X157408666Y-112701547D01*
X163710857Y-114498380D02*
X164044190Y-114022190D01*
X164282285Y-114498380D02*
X164282285Y-113498380D01*
X163901333Y-113498380D01*
X163806095Y-113546000D01*
X163758476Y-113593619D01*
X163710857Y-113688857D01*
X163710857Y-113831714D01*
X163758476Y-113926952D01*
X163806095Y-113974571D01*
X163901333Y-114022190D01*
X164282285Y-114022190D01*
X163329904Y-113593619D02*
X163282285Y-113546000D01*
X163187047Y-113498380D01*
X162948952Y-113498380D01*
X162853714Y-113546000D01*
X162806095Y-113593619D01*
X162758476Y-113688857D01*
X162758476Y-113784095D01*
X162806095Y-113926952D01*
X163377523Y-114498380D01*
X162758476Y-114498380D01*
X162377523Y-113593619D02*
X162329904Y-113546000D01*
X162234666Y-113498380D01*
X161996571Y-113498380D01*
X161901333Y-113546000D01*
X161853714Y-113593619D01*
X161806095Y-113688857D01*
X161806095Y-113784095D01*
X161853714Y-113926952D01*
X162425142Y-114498380D01*
X161806095Y-114498380D01*
X168060666Y-104751142D02*
X168108285Y-104798761D01*
X168251142Y-104846380D01*
X168346380Y-104846380D01*
X168489238Y-104798761D01*
X168584476Y-104703523D01*
X168632095Y-104608285D01*
X168679714Y-104417809D01*
X168679714Y-104274952D01*
X168632095Y-104084476D01*
X168584476Y-103989238D01*
X168489238Y-103894000D01*
X168346380Y-103846380D01*
X168251142Y-103846380D01*
X168108285Y-103894000D01*
X168060666Y-103941619D01*
X167727333Y-103846380D02*
X167108285Y-103846380D01*
X167441619Y-104227333D01*
X167298761Y-104227333D01*
X167203523Y-104274952D01*
X167155904Y-104322571D01*
X167108285Y-104417809D01*
X167108285Y-104655904D01*
X167155904Y-104751142D01*
X167203523Y-104798761D01*
X167298761Y-104846380D01*
X167584476Y-104846380D01*
X167679714Y-104798761D01*
X167727333Y-104751142D01*
X105544857Y-122626380D02*
X105878190Y-122150190D01*
X106116285Y-122626380D02*
X106116285Y-121626380D01*
X105735333Y-121626380D01*
X105640095Y-121674000D01*
X105592476Y-121721619D01*
X105544857Y-121816857D01*
X105544857Y-121959714D01*
X105592476Y-122054952D01*
X105640095Y-122102571D01*
X105735333Y-122150190D01*
X106116285Y-122150190D01*
X104592476Y-122626380D02*
X105163904Y-122626380D01*
X104878190Y-122626380D02*
X104878190Y-121626380D01*
X104973428Y-121769238D01*
X105068666Y-121864476D01*
X105163904Y-121912095D01*
X104259142Y-121626380D02*
X103640095Y-121626380D01*
X103973428Y-122007333D01*
X103830571Y-122007333D01*
X103735333Y-122054952D01*
X103687714Y-122102571D01*
X103640095Y-122197809D01*
X103640095Y-122435904D01*
X103687714Y-122531142D01*
X103735333Y-122578761D01*
X103830571Y-122626380D01*
X104116285Y-122626380D01*
X104211523Y-122578761D01*
X104259142Y-122531142D01*
X146438857Y-122626380D02*
X146772190Y-122150190D01*
X147010285Y-122626380D02*
X147010285Y-121626380D01*
X146629333Y-121626380D01*
X146534095Y-121674000D01*
X146486476Y-121721619D01*
X146438857Y-121816857D01*
X146438857Y-121959714D01*
X146486476Y-122054952D01*
X146534095Y-122102571D01*
X146629333Y-122150190D01*
X147010285Y-122150190D01*
X145486476Y-122626380D02*
X146057904Y-122626380D01*
X145772190Y-122626380D02*
X145772190Y-121626380D01*
X145867428Y-121769238D01*
X145962666Y-121864476D01*
X146057904Y-121912095D01*
X144915047Y-122054952D02*
X145010285Y-122007333D01*
X145057904Y-121959714D01*
X145105523Y-121864476D01*
X145105523Y-121816857D01*
X145057904Y-121721619D01*
X145010285Y-121674000D01*
X144915047Y-121626380D01*
X144724571Y-121626380D01*
X144629333Y-121674000D01*
X144581714Y-121721619D01*
X144534095Y-121816857D01*
X144534095Y-121864476D01*
X144581714Y-121959714D01*
X144629333Y-122007333D01*
X144724571Y-122054952D01*
X144915047Y-122054952D01*
X145010285Y-122102571D01*
X145057904Y-122150190D01*
X145105523Y-122245428D01*
X145105523Y-122435904D01*
X145057904Y-122531142D01*
X145010285Y-122578761D01*
X144915047Y-122626380D01*
X144724571Y-122626380D01*
X144629333Y-122578761D01*
X144581714Y-122531142D01*
X144534095Y-122435904D01*
X144534095Y-122245428D01*
X144581714Y-122150190D01*
X144629333Y-122102571D01*
X144724571Y-122054952D01*
X159828904Y-103166380D02*
X159828904Y-103975904D01*
X159781285Y-104071142D01*
X159733666Y-104118761D01*
X159638428Y-104166380D01*
X159447952Y-104166380D01*
X159352714Y-104118761D01*
X159305095Y-104071142D01*
X159257476Y-103975904D01*
X159257476Y-103166380D01*
X158257476Y-104166380D02*
X158828904Y-104166380D01*
X158543190Y-104166380D02*
X158543190Y-103166380D01*
X158638428Y-103309238D01*
X158733666Y-103404476D01*
X158828904Y-103452095D01*
X168346380Y-90797142D02*
X167870190Y-90463809D01*
X168346380Y-90225714D02*
X167346380Y-90225714D01*
X167346380Y-90606666D01*
X167394000Y-90701904D01*
X167441619Y-90749523D01*
X167536857Y-90797142D01*
X167679714Y-90797142D01*
X167774952Y-90749523D01*
X167822571Y-90701904D01*
X167870190Y-90606666D01*
X167870190Y-90225714D01*
X168346380Y-91749523D02*
X168346380Y-91178095D01*
X168346380Y-91463809D02*
X167346380Y-91463809D01*
X167489238Y-91368571D01*
X167584476Y-91273333D01*
X167632095Y-91178095D01*
X167441619Y-92130476D02*
X167394000Y-92178095D01*
X167346380Y-92273333D01*
X167346380Y-92511428D01*
X167394000Y-92606666D01*
X167441619Y-92654285D01*
X167536857Y-92701904D01*
X167632095Y-92701904D01*
X167774952Y-92654285D01*
X168346380Y-92082857D01*
X168346380Y-92701904D01*
X146557904Y-101424380D02*
X146557904Y-102233904D01*
X146510285Y-102329142D01*
X146462666Y-102376761D01*
X146367428Y-102424380D01*
X146176952Y-102424380D01*
X146081714Y-102376761D01*
X146034095Y-102329142D01*
X145986476Y-102233904D01*
X145986476Y-101424380D01*
X145557904Y-101519619D02*
X145510285Y-101472000D01*
X145415047Y-101424380D01*
X145176952Y-101424380D01*
X145081714Y-101472000D01*
X145034095Y-101519619D01*
X144986476Y-101614857D01*
X144986476Y-101710095D01*
X145034095Y-101852952D01*
X145605523Y-102424380D01*
X144986476Y-102424380D01*
X143242357Y-100023142D02*
X143289976Y-100070761D01*
X143432833Y-100118380D01*
X143528071Y-100118380D01*
X143670928Y-100070761D01*
X143766166Y-99975523D01*
X143813785Y-99880285D01*
X143861404Y-99689809D01*
X143861404Y-99546952D01*
X143813785Y-99356476D01*
X143766166Y-99261238D01*
X143670928Y-99166000D01*
X143528071Y-99118380D01*
X143432833Y-99118380D01*
X143289976Y-99166000D01*
X143242357Y-99213619D01*
X142289976Y-100118380D02*
X142861404Y-100118380D01*
X142575690Y-100118380D02*
X142575690Y-99118380D01*
X142670928Y-99261238D01*
X142766166Y-99356476D01*
X142861404Y-99404095D01*
X141337595Y-100118380D02*
X141909023Y-100118380D01*
X141623309Y-100118380D02*
X141623309Y-99118380D01*
X141718547Y-99261238D01*
X141813785Y-99356476D01*
X141909023Y-99404095D01*
X164726857Y-122626380D02*
X165060190Y-122150190D01*
X165298285Y-122626380D02*
X165298285Y-121626380D01*
X164917333Y-121626380D01*
X164822095Y-121674000D01*
X164774476Y-121721619D01*
X164726857Y-121816857D01*
X164726857Y-121959714D01*
X164774476Y-122054952D01*
X164822095Y-122102571D01*
X164917333Y-122150190D01*
X165298285Y-122150190D01*
X164345904Y-121721619D02*
X164298285Y-121674000D01*
X164203047Y-121626380D01*
X163964952Y-121626380D01*
X163869714Y-121674000D01*
X163822095Y-121721619D01*
X163774476Y-121816857D01*
X163774476Y-121912095D01*
X163822095Y-122054952D01*
X164393523Y-122626380D01*
X163774476Y-122626380D01*
X163155428Y-121626380D02*
X163060190Y-121626380D01*
X162964952Y-121674000D01*
X162917333Y-121721619D01*
X162869714Y-121816857D01*
X162822095Y-122007333D01*
X162822095Y-122245428D01*
X162869714Y-122435904D01*
X162917333Y-122531142D01*
X162964952Y-122578761D01*
X163060190Y-122626380D01*
X163155428Y-122626380D01*
X163250666Y-122578761D01*
X163298285Y-122531142D01*
X163345904Y-122435904D01*
X163393523Y-122245428D01*
X163393523Y-122007333D01*
X163345904Y-121816857D01*
X163298285Y-121721619D01*
X163250666Y-121674000D01*
X163155428Y-121626380D01*
X162980666Y-95956380D02*
X163314000Y-95480190D01*
X163552095Y-95956380D02*
X163552095Y-94956380D01*
X163171142Y-94956380D01*
X163075904Y-95004000D01*
X163028285Y-95051619D01*
X162980666Y-95146857D01*
X162980666Y-95289714D01*
X163028285Y-95384952D01*
X163075904Y-95432571D01*
X163171142Y-95480190D01*
X163552095Y-95480190D01*
X162504476Y-95956380D02*
X162314000Y-95956380D01*
X162218761Y-95908761D01*
X162171142Y-95861142D01*
X162075904Y-95718285D01*
X162028285Y-95527809D01*
X162028285Y-95146857D01*
X162075904Y-95051619D01*
X162123523Y-95004000D01*
X162218761Y-94956380D01*
X162409238Y-94956380D01*
X162504476Y-95004000D01*
X162552095Y-95051619D01*
X162599714Y-95146857D01*
X162599714Y-95384952D01*
X162552095Y-95480190D01*
X162504476Y-95527809D01*
X162409238Y-95575428D01*
X162218761Y-95575428D01*
X162123523Y-95527809D01*
X162075904Y-95480190D01*
X162028285Y-95384952D01*
X157837142Y-98045333D02*
X157884761Y-97997714D01*
X157932380Y-97854857D01*
X157932380Y-97759619D01*
X157884761Y-97616761D01*
X157789523Y-97521523D01*
X157694285Y-97473904D01*
X157503809Y-97426285D01*
X157360952Y-97426285D01*
X157170476Y-97473904D01*
X157075238Y-97521523D01*
X156980000Y-97616761D01*
X156932380Y-97759619D01*
X156932380Y-97854857D01*
X156980000Y-97997714D01*
X157027619Y-98045333D01*
X157932380Y-98521523D02*
X157932380Y-98712000D01*
X157884761Y-98807238D01*
X157837142Y-98854857D01*
X157694285Y-98950095D01*
X157503809Y-98997714D01*
X157122857Y-98997714D01*
X157027619Y-98950095D01*
X156980000Y-98902476D01*
X156932380Y-98807238D01*
X156932380Y-98616761D01*
X156980000Y-98521523D01*
X157027619Y-98473904D01*
X157122857Y-98426285D01*
X157360952Y-98426285D01*
X157456190Y-98473904D01*
X157503809Y-98521523D01*
X157551428Y-98616761D01*
X157551428Y-98807238D01*
X157503809Y-98902476D01*
X157456190Y-98950095D01*
X157360952Y-98997714D01*
X165435857Y-110008380D02*
X165769190Y-109532190D01*
X166007285Y-110008380D02*
X166007285Y-109008380D01*
X165626333Y-109008380D01*
X165531095Y-109056000D01*
X165483476Y-109103619D01*
X165435857Y-109198857D01*
X165435857Y-109341714D01*
X165483476Y-109436952D01*
X165531095Y-109484571D01*
X165626333Y-109532190D01*
X166007285Y-109532190D01*
X165054904Y-109103619D02*
X165007285Y-109056000D01*
X164912047Y-109008380D01*
X164673952Y-109008380D01*
X164578714Y-109056000D01*
X164531095Y-109103619D01*
X164483476Y-109198857D01*
X164483476Y-109294095D01*
X164531095Y-109436952D01*
X165102523Y-110008380D01*
X164483476Y-110008380D01*
X163531095Y-110008380D02*
X164102523Y-110008380D01*
X163816809Y-110008380D02*
X163816809Y-109008380D01*
X163912047Y-109151238D01*
X164007285Y-109246476D01*
X164102523Y-109294095D01*
X155106666Y-112961142D02*
X155154285Y-113008761D01*
X155297142Y-113056380D01*
X155392380Y-113056380D01*
X155535238Y-113008761D01*
X155630476Y-112913523D01*
X155678095Y-112818285D01*
X155725714Y-112627809D01*
X155725714Y-112484952D01*
X155678095Y-112294476D01*
X155630476Y-112199238D01*
X155535238Y-112104000D01*
X155392380Y-112056380D01*
X155297142Y-112056380D01*
X155154285Y-112104000D01*
X155106666Y-112151619D01*
X154249523Y-112056380D02*
X154440000Y-112056380D01*
X154535238Y-112104000D01*
X154582857Y-112151619D01*
X154678095Y-112294476D01*
X154725714Y-112484952D01*
X154725714Y-112865904D01*
X154678095Y-112961142D01*
X154630476Y-113008761D01*
X154535238Y-113056380D01*
X154344761Y-113056380D01*
X154249523Y-113008761D01*
X154201904Y-112961142D01*
X154154285Y-112865904D01*
X154154285Y-112627809D01*
X154201904Y-112532571D01*
X154249523Y-112484952D01*
X154344761Y-112437333D01*
X154535238Y-112437333D01*
X154630476Y-112484952D01*
X154678095Y-112532571D01*
X154725714Y-112627809D01*
X167361666Y-112294380D02*
X167695000Y-111818190D01*
X167933095Y-112294380D02*
X167933095Y-111294380D01*
X167552142Y-111294380D01*
X167456904Y-111342000D01*
X167409285Y-111389619D01*
X167361666Y-111484857D01*
X167361666Y-111627714D01*
X167409285Y-111722952D01*
X167456904Y-111770571D01*
X167552142Y-111818190D01*
X167933095Y-111818190D01*
X167028333Y-111294380D02*
X166409285Y-111294380D01*
X166742619Y-111675333D01*
X166599761Y-111675333D01*
X166504523Y-111722952D01*
X166456904Y-111770571D01*
X166409285Y-111865809D01*
X166409285Y-112103904D01*
X166456904Y-112199142D01*
X166504523Y-112246761D01*
X166599761Y-112294380D01*
X166885476Y-112294380D01*
X166980714Y-112246761D01*
X167028333Y-112199142D01*
X155582857Y-122626380D02*
X155916190Y-122150190D01*
X156154285Y-122626380D02*
X156154285Y-121626380D01*
X155773333Y-121626380D01*
X155678095Y-121674000D01*
X155630476Y-121721619D01*
X155582857Y-121816857D01*
X155582857Y-121959714D01*
X155630476Y-122054952D01*
X155678095Y-122102571D01*
X155773333Y-122150190D01*
X156154285Y-122150190D01*
X154630476Y-122626380D02*
X155201904Y-122626380D01*
X154916190Y-122626380D02*
X154916190Y-121626380D01*
X155011428Y-121769238D01*
X155106666Y-121864476D01*
X155201904Y-121912095D01*
X154154285Y-122626380D02*
X153963809Y-122626380D01*
X153868571Y-122578761D01*
X153820952Y-122531142D01*
X153725714Y-122388285D01*
X153678095Y-122197809D01*
X153678095Y-121816857D01*
X153725714Y-121721619D01*
X153773333Y-121674000D01*
X153868571Y-121626380D01*
X154059047Y-121626380D01*
X154154285Y-121674000D01*
X154201904Y-121721619D01*
X154249523Y-121816857D01*
X154249523Y-122054952D01*
X154201904Y-122150190D01*
X154154285Y-122197809D01*
X154059047Y-122245428D01*
X153868571Y-122245428D01*
X153773333Y-122197809D01*
X153725714Y-122150190D01*
X153678095Y-122054952D01*
X123832857Y-122626380D02*
X124166190Y-122150190D01*
X124404285Y-122626380D02*
X124404285Y-121626380D01*
X124023333Y-121626380D01*
X123928095Y-121674000D01*
X123880476Y-121721619D01*
X123832857Y-121816857D01*
X123832857Y-121959714D01*
X123880476Y-122054952D01*
X123928095Y-122102571D01*
X124023333Y-122150190D01*
X124404285Y-122150190D01*
X122880476Y-122626380D02*
X123451904Y-122626380D01*
X123166190Y-122626380D02*
X123166190Y-121626380D01*
X123261428Y-121769238D01*
X123356666Y-121864476D01*
X123451904Y-121912095D01*
X121975714Y-121626380D02*
X122451904Y-121626380D01*
X122499523Y-122102571D01*
X122451904Y-122054952D01*
X122356666Y-122007333D01*
X122118571Y-122007333D01*
X122023333Y-122054952D01*
X121975714Y-122102571D01*
X121928095Y-122197809D01*
X121928095Y-122435904D01*
X121975714Y-122531142D01*
X122023333Y-122578761D01*
X122118571Y-122626380D01*
X122356666Y-122626380D01*
X122451904Y-122578761D01*
X122499523Y-122531142D01*
X167997666Y-107545142D02*
X168045285Y-107592761D01*
X168188142Y-107640380D01*
X168283380Y-107640380D01*
X168426238Y-107592761D01*
X168521476Y-107497523D01*
X168569095Y-107402285D01*
X168616714Y-107211809D01*
X168616714Y-107068952D01*
X168569095Y-106878476D01*
X168521476Y-106783238D01*
X168426238Y-106688000D01*
X168283380Y-106640380D01*
X168188142Y-106640380D01*
X168045285Y-106688000D01*
X167997666Y-106735619D01*
X167092904Y-106640380D02*
X167569095Y-106640380D01*
X167616714Y-107116571D01*
X167569095Y-107068952D01*
X167473857Y-107021333D01*
X167235761Y-107021333D01*
X167140523Y-107068952D01*
X167092904Y-107116571D01*
X167045285Y-107211809D01*
X167045285Y-107449904D01*
X167092904Y-107545142D01*
X167140523Y-107592761D01*
X167235761Y-107640380D01*
X167473857Y-107640380D01*
X167569095Y-107592761D01*
X167616714Y-107545142D01*
X157681142Y-91899142D02*
X157728761Y-91851523D01*
X157776380Y-91708666D01*
X157776380Y-91613428D01*
X157728761Y-91470571D01*
X157633523Y-91375333D01*
X157538285Y-91327714D01*
X157347809Y-91280095D01*
X157204952Y-91280095D01*
X157014476Y-91327714D01*
X156919238Y-91375333D01*
X156824000Y-91470571D01*
X156776380Y-91613428D01*
X156776380Y-91708666D01*
X156824000Y-91851523D01*
X156871619Y-91899142D01*
X157776380Y-92851523D02*
X157776380Y-92280095D01*
X157776380Y-92565809D02*
X156776380Y-92565809D01*
X156919238Y-92470571D01*
X157014476Y-92375333D01*
X157062095Y-92280095D01*
X156776380Y-93470571D02*
X156776380Y-93565809D01*
X156824000Y-93661047D01*
X156871619Y-93708666D01*
X156966857Y-93756285D01*
X157157333Y-93803904D01*
X157395428Y-93803904D01*
X157585904Y-93756285D01*
X157681142Y-93708666D01*
X157728761Y-93661047D01*
X157776380Y-93565809D01*
X157776380Y-93470571D01*
X157728761Y-93375333D01*
X157681142Y-93327714D01*
X157585904Y-93280095D01*
X157395428Y-93232476D01*
X157157333Y-93232476D01*
X156966857Y-93280095D01*
X156871619Y-93327714D01*
X156824000Y-93375333D01*
X156776380Y-93470571D01*
X142120857Y-122626380D02*
X142454190Y-122150190D01*
X142692285Y-122626380D02*
X142692285Y-121626380D01*
X142311333Y-121626380D01*
X142216095Y-121674000D01*
X142168476Y-121721619D01*
X142120857Y-121816857D01*
X142120857Y-121959714D01*
X142168476Y-122054952D01*
X142216095Y-122102571D01*
X142311333Y-122150190D01*
X142692285Y-122150190D01*
X141168476Y-122626380D02*
X141739904Y-122626380D01*
X141454190Y-122626380D02*
X141454190Y-121626380D01*
X141549428Y-121769238D01*
X141644666Y-121864476D01*
X141739904Y-121912095D01*
X140835142Y-121626380D02*
X140168476Y-121626380D01*
X140597047Y-122626380D01*
D12*
X113818936Y-124687000D02*
X114273064Y-124687000D01*
X113818936Y-123217000D02*
X114273064Y-123217000D01*
X134916936Y-123217000D02*
X135371064Y-123217000D01*
X134916936Y-124687000D02*
X135371064Y-124687000D01*
X166851000Y-98525064D02*
X166851000Y-98070936D01*
X165381000Y-98525064D02*
X165381000Y-98070936D01*
G36*
X118931300Y-132088830D02*
G01*
X118926106Y-132142393D01*
X118910526Y-132192700D01*
X118853475Y-132277656D01*
X118768519Y-132334707D01*
X118718212Y-132350287D01*
X118664649Y-132355481D01*
X118611164Y-132350287D01*
X118561090Y-132334707D01*
X118476444Y-132277656D01*
X118419083Y-132192700D01*
X118403270Y-132142393D01*
X118397999Y-132088830D01*
X118397999Y-132000154D01*
X118931300Y-132000154D01*
X118931300Y-132088830D01*
G37*
G36*
X117945520Y-133343121D02*
G01*
X117945520Y-132088830D01*
X118220025Y-132088830D01*
X118223978Y-132149059D01*
X118235838Y-132206963D01*
X118254984Y-132261921D01*
X118280797Y-132313313D01*
X118312810Y-132360597D01*
X118350560Y-132403230D01*
X118393348Y-132440747D01*
X118440477Y-132472683D01*
X118491636Y-132498495D01*
X118546517Y-132517642D01*
X118604420Y-132529501D01*
X118664649Y-132533454D01*
X118724878Y-132529501D01*
X118782781Y-132517642D01*
X118837662Y-132498495D01*
X118888821Y-132472683D01*
X118935950Y-132440747D01*
X118978738Y-132403230D01*
X119016488Y-132360597D01*
X119048502Y-132313313D01*
X119074314Y-132261921D01*
X119093460Y-132206963D01*
X119105320Y-132149059D01*
X119109273Y-132088830D01*
X119109273Y-131820940D01*
X118220025Y-131820940D01*
X118220025Y-132088830D01*
X117945520Y-132088830D01*
X117945520Y-131655989D01*
X118220025Y-131655989D01*
X119109273Y-131655989D01*
X119109273Y-131465613D01*
X118523883Y-131122688D01*
X119109273Y-131122688D01*
X119109273Y-130944714D01*
X118220025Y-130944714D01*
X118220025Y-131135090D01*
X118806036Y-131478015D01*
X118220025Y-131478015D01*
X118220025Y-131655989D01*
X117945520Y-131655989D01*
X117945520Y-130510632D01*
X118210103Y-130510632D01*
X118217157Y-130591558D01*
X118238319Y-130669382D01*
X118272658Y-130742091D01*
X118319244Y-130807668D01*
X118474273Y-130714651D01*
X118437764Y-130671243D01*
X118410091Y-130621633D01*
X118392650Y-130567528D01*
X118386837Y-130510632D01*
X118392418Y-130454124D01*
X118409161Y-130401182D01*
X118435438Y-130353200D01*
X118469622Y-130311575D01*
X118511015Y-130277158D01*
X118558919Y-130250803D01*
X118611862Y-130234060D01*
X118668370Y-130228479D01*
X118725421Y-130234060D01*
X118778751Y-130250803D01*
X118826965Y-130277158D01*
X118868668Y-130311575D01*
X118903084Y-130353200D01*
X118929439Y-130401182D01*
X118946182Y-130454124D01*
X118951763Y-130510632D01*
X118943702Y-130575745D01*
X118921378Y-130635896D01*
X118668370Y-130635896D01*
X118668370Y-130807668D01*
X119019356Y-130807668D01*
X119065942Y-130742091D01*
X119100281Y-130669382D01*
X119121443Y-130591558D01*
X119128497Y-130510632D01*
X119124389Y-130448543D01*
X119112064Y-130388779D01*
X119092220Y-130332116D01*
X119065555Y-130279329D01*
X119032534Y-130230649D01*
X118993621Y-130186311D01*
X118949438Y-130147244D01*
X118900604Y-130114377D01*
X118847506Y-130087945D01*
X118790533Y-130068179D01*
X118730537Y-130055854D01*
X118668370Y-130051746D01*
X118606358Y-130055854D01*
X118546827Y-130068179D01*
X118490319Y-130087945D01*
X118437376Y-130114377D01*
X118388542Y-130147244D01*
X118344359Y-130186311D01*
X118305524Y-130230649D01*
X118272735Y-130279329D01*
X118246303Y-130332116D01*
X118226536Y-130388779D01*
X118214211Y-130448543D01*
X118210103Y-130510632D01*
X117945520Y-130510632D01*
X117945520Y-129242079D01*
X119393080Y-129242079D01*
X119393080Y-133343121D01*
X117945520Y-133343121D01*
G37*
G36*
X137315820Y-132088830D02*
G01*
X137310626Y-132142393D01*
X137295046Y-132192700D01*
X137237995Y-132277656D01*
X137153039Y-132334707D01*
X137102732Y-132350287D01*
X137049169Y-132355481D01*
X136995684Y-132350287D01*
X136945610Y-132334707D01*
X136860964Y-132277656D01*
X136803603Y-132192700D01*
X136787790Y-132142393D01*
X136782519Y-132088830D01*
X136782519Y-132000154D01*
X137315820Y-132000154D01*
X137315820Y-132088830D01*
G37*
G36*
X136330040Y-133343121D02*
G01*
X136330040Y-132088830D01*
X136604545Y-132088830D01*
X136608498Y-132149059D01*
X136620358Y-132206963D01*
X136639504Y-132261921D01*
X136665317Y-132313313D01*
X136697330Y-132360597D01*
X136735080Y-132403230D01*
X136777868Y-132440747D01*
X136824997Y-132472683D01*
X136876156Y-132498495D01*
X136931037Y-132517642D01*
X136988940Y-132529501D01*
X137049169Y-132533454D01*
X137109398Y-132529501D01*
X137167301Y-132517642D01*
X137222182Y-132498495D01*
X137273341Y-132472683D01*
X137320470Y-132440747D01*
X137363258Y-132403230D01*
X137401008Y-132360597D01*
X137433022Y-132313313D01*
X137458834Y-132261921D01*
X137477980Y-132206963D01*
X137489840Y-132149059D01*
X137493793Y-132088830D01*
X137493793Y-131820940D01*
X136604545Y-131820940D01*
X136604545Y-132088830D01*
X136330040Y-132088830D01*
X136330040Y-131655989D01*
X136604545Y-131655989D01*
X137493793Y-131655989D01*
X137493793Y-131465613D01*
X136908403Y-131122688D01*
X137493793Y-131122688D01*
X137493793Y-130944714D01*
X136604545Y-130944714D01*
X136604545Y-131135090D01*
X137190556Y-131478015D01*
X136604545Y-131478015D01*
X136604545Y-131655989D01*
X136330040Y-131655989D01*
X136330040Y-130510632D01*
X136594623Y-130510632D01*
X136601677Y-130591558D01*
X136622839Y-130669382D01*
X136657178Y-130742091D01*
X136703764Y-130807668D01*
X136858793Y-130714651D01*
X136822284Y-130671243D01*
X136794611Y-130621633D01*
X136777170Y-130567528D01*
X136771357Y-130510632D01*
X136776938Y-130454124D01*
X136793681Y-130401182D01*
X136819958Y-130353200D01*
X136854142Y-130311575D01*
X136895535Y-130277158D01*
X136943439Y-130250803D01*
X136996382Y-130234060D01*
X137052890Y-130228479D01*
X137109941Y-130234060D01*
X137163271Y-130250803D01*
X137211485Y-130277158D01*
X137253188Y-130311575D01*
X137287604Y-130353200D01*
X137313959Y-130401182D01*
X137330702Y-130454124D01*
X137336283Y-130510632D01*
X137328222Y-130575745D01*
X137305898Y-130635896D01*
X137052890Y-130635896D01*
X137052890Y-130807668D01*
X137403876Y-130807668D01*
X137450462Y-130742091D01*
X137484801Y-130669382D01*
X137505963Y-130591558D01*
X137513017Y-130510632D01*
X137508909Y-130448543D01*
X137496584Y-130388779D01*
X137476740Y-130332116D01*
X137450075Y-130279329D01*
X137417054Y-130230649D01*
X137378141Y-130186311D01*
X137333958Y-130147244D01*
X137285124Y-130114377D01*
X137232026Y-130087945D01*
X137175053Y-130068179D01*
X137115057Y-130055854D01*
X137052890Y-130051746D01*
X136990878Y-130055854D01*
X136931347Y-130068179D01*
X136874839Y-130087945D01*
X136821896Y-130114377D01*
X136773062Y-130147244D01*
X136728879Y-130186311D01*
X136690044Y-130230649D01*
X136657255Y-130279329D01*
X136630823Y-130332116D01*
X136611056Y-130388779D01*
X136598731Y-130448543D01*
X136594623Y-130510632D01*
X136330040Y-130510632D01*
X136330040Y-129242079D01*
X137777600Y-129242079D01*
X137777600Y-133343121D01*
X136330040Y-133343121D01*
G37*
X162586936Y-94207000D02*
X163041064Y-94207000D01*
X162586936Y-92737000D02*
X163041064Y-92737000D01*
G36*
X139759171Y-129242079D02*
G01*
X139759171Y-133343121D01*
X138340757Y-133343121D01*
X138340757Y-131979690D01*
X138605340Y-131979690D01*
X138783314Y-131979690D01*
X138783314Y-131590876D01*
X138935862Y-131574753D01*
X138935862Y-131737224D01*
X138940668Y-131791252D01*
X138955086Y-131842954D01*
X138978573Y-131890470D01*
X139010587Y-131931941D01*
X139050739Y-131966512D01*
X139098643Y-131993332D01*
X139153601Y-132010541D01*
X139214915Y-132016277D01*
X139276772Y-132010541D01*
X139332117Y-131993332D01*
X139380176Y-131966512D01*
X139420174Y-131931941D01*
X139451955Y-131890470D01*
X139475364Y-131842954D01*
X139489782Y-131791252D01*
X139494588Y-131737224D01*
X139494588Y-131378796D01*
X139316614Y-131378796D01*
X139316614Y-131737224D01*
X139311033Y-131773501D01*
X139293050Y-131806367D01*
X139261424Y-131829932D01*
X139214915Y-131838923D01*
X139171197Y-131829932D01*
X139139571Y-131806367D01*
X139120347Y-131773501D01*
X139113836Y-131737224D01*
X139113836Y-131378796D01*
X138605340Y-131430886D01*
X138605340Y-131979690D01*
X138340757Y-131979690D01*
X138340757Y-130836814D01*
X138605340Y-130836814D01*
X138609293Y-130897043D01*
X138621153Y-130954946D01*
X138640299Y-131009904D01*
X138666111Y-131061296D01*
X138698125Y-131108580D01*
X138735875Y-131151213D01*
X138778663Y-131188730D01*
X138825792Y-131220666D01*
X138876951Y-131246479D01*
X138931832Y-131265625D01*
X138989735Y-131277485D01*
X139049964Y-131281438D01*
X139110193Y-131277485D01*
X139168096Y-131265625D01*
X139222977Y-131246479D01*
X139274136Y-131220666D01*
X139321265Y-131188730D01*
X139364053Y-131151213D01*
X139401803Y-131108580D01*
X139433817Y-131061296D01*
X139459629Y-131009904D01*
X139478775Y-130954946D01*
X139490635Y-130897043D01*
X139494588Y-130836814D01*
X139494588Y-130568923D01*
X138605340Y-130568923D01*
X138605340Y-130836814D01*
X138340757Y-130836814D01*
X138340757Y-129242079D01*
X139759171Y-129242079D01*
G37*
G36*
X139316614Y-130836814D02*
G01*
X139311421Y-130890376D01*
X139295840Y-130940683D01*
X139238790Y-131025640D01*
X139153834Y-131082690D01*
X139103527Y-131098271D01*
X139049964Y-131103464D01*
X138996479Y-131098271D01*
X138946404Y-131082690D01*
X138861758Y-131025640D01*
X138804398Y-130940683D01*
X138788585Y-130890376D01*
X138783314Y-130836814D01*
X138783314Y-130748137D01*
X139316614Y-130748137D01*
X139316614Y-130836814D01*
G37*
G36*
X158729133Y-133343121D02*
G01*
X158729133Y-132330056D01*
X158993716Y-132330056D01*
X159882964Y-132037981D01*
X159882964Y-131860007D01*
X158993716Y-131569172D01*
X158993716Y-131771330D01*
X159587168Y-131948684D01*
X158993716Y-132126658D01*
X158993716Y-132330056D01*
X158729133Y-132330056D01*
X158729133Y-131486697D01*
X158993716Y-131486697D01*
X159171690Y-131486697D01*
X159171690Y-131097883D01*
X159324238Y-131081760D01*
X159324238Y-131244231D01*
X159329044Y-131298259D01*
X159343462Y-131349961D01*
X159366949Y-131397477D01*
X159398963Y-131438948D01*
X159439115Y-131473519D01*
X159487019Y-131500339D01*
X159541977Y-131517548D01*
X159603291Y-131523284D01*
X159665148Y-131517548D01*
X159720493Y-131500339D01*
X159768552Y-131473519D01*
X159808550Y-131438948D01*
X159840331Y-131397477D01*
X159863740Y-131349961D01*
X159878158Y-131298259D01*
X159882964Y-131244231D01*
X159882964Y-130885803D01*
X159704990Y-130885803D01*
X159704990Y-131244231D01*
X159699409Y-131280508D01*
X159681426Y-131313374D01*
X159649800Y-131336938D01*
X159603291Y-131345930D01*
X159559573Y-131336938D01*
X159527947Y-131313374D01*
X159508723Y-131280508D01*
X159502212Y-131244231D01*
X159502212Y-130885803D01*
X158993716Y-130937893D01*
X158993716Y-131486697D01*
X158729133Y-131486697D01*
X158729133Y-130600549D01*
X159166729Y-130600549D01*
X159349663Y-130600549D01*
X159349663Y-130776042D01*
X159518335Y-130776042D01*
X159518335Y-130600549D01*
X159687627Y-130600549D01*
X159687627Y-130431257D01*
X159518335Y-130431257D01*
X159518335Y-130255144D01*
X159349663Y-130255144D01*
X159349663Y-130431257D01*
X159166729Y-130431257D01*
X159166729Y-130600549D01*
X158729133Y-130600549D01*
X158729133Y-129242079D01*
X160147547Y-129242079D01*
X160147547Y-133343121D01*
X158729133Y-133343121D01*
G37*
G36*
X166892989Y-130816350D02*
G01*
X166887795Y-130869913D01*
X166872215Y-130920220D01*
X166815164Y-131005176D01*
X166730208Y-131062226D01*
X166679901Y-131077807D01*
X166626338Y-131083000D01*
X166572853Y-131077807D01*
X166522779Y-131062226D01*
X166438133Y-131005176D01*
X166380772Y-130920220D01*
X166364959Y-130869913D01*
X166359688Y-130816350D01*
X166359688Y-130727673D01*
X166892989Y-130727673D01*
X166892989Y-130816350D01*
G37*
G36*
X166465108Y-131577544D02*
G01*
X166497354Y-131603589D01*
X166519058Y-131642346D01*
X166527120Y-131690095D01*
X166519058Y-131737224D01*
X166497354Y-131775981D01*
X166465108Y-131802026D01*
X166424800Y-131811638D01*
X166384183Y-131802026D01*
X166351006Y-131775981D01*
X166328682Y-131737224D01*
X166320621Y-131690095D01*
X166328682Y-131642346D01*
X166351006Y-131603589D01*
X166384183Y-131577544D01*
X166424800Y-131567932D01*
X166465108Y-131577544D01*
G37*
G36*
X166866324Y-131531655D02*
G01*
X166909112Y-131568242D01*
X166937327Y-131622502D01*
X166947559Y-131688855D01*
X166937327Y-131755517D01*
X166909112Y-131810088D01*
X166866324Y-131846675D01*
X166811754Y-131860007D01*
X166756253Y-131846675D01*
X166711295Y-131810088D01*
X166680909Y-131755517D01*
X166669747Y-131688855D01*
X166680909Y-131622502D01*
X166711295Y-131568242D01*
X166756253Y-131531655D01*
X166811754Y-131518323D01*
X166866324Y-131531655D01*
G37*
G36*
X167358490Y-129242079D02*
G01*
X167358490Y-133343121D01*
X165889226Y-133343121D01*
X165889226Y-131688855D01*
X166153809Y-131688855D01*
X166158770Y-131748386D01*
X166173653Y-131804197D01*
X166197140Y-131854814D01*
X166227913Y-131898765D01*
X166307908Y-131962637D01*
X166405577Y-131985891D01*
X166456736Y-131980000D01*
X166506966Y-131963567D01*
X166553165Y-131937832D01*
X166592232Y-131903415D01*
X166633780Y-131958606D01*
X166687110Y-132000774D01*
X166749122Y-132027439D01*
X166816714Y-132036741D01*
X166874540Y-132029919D01*
X166927715Y-132009455D01*
X166975077Y-131977132D01*
X167015462Y-131934731D01*
X167048328Y-131883339D01*
X167073133Y-131824040D01*
X167088713Y-131758618D01*
X167093907Y-131688855D01*
X167088713Y-131619092D01*
X167073133Y-131553669D01*
X167048328Y-131494371D01*
X167015462Y-131442978D01*
X166975077Y-131400578D01*
X166927715Y-131368254D01*
X166874540Y-131347790D01*
X166816714Y-131340969D01*
X166748812Y-131350271D01*
X166686490Y-131377246D01*
X166632850Y-131419724D01*
X166590992Y-131475535D01*
X166552545Y-131441118D01*
X166506656Y-131415073D01*
X166456736Y-131398640D01*
X166405577Y-131393059D01*
X166307908Y-131416313D01*
X166227913Y-131479875D01*
X166197140Y-131523594D01*
X166173653Y-131574133D01*
X166158770Y-131629789D01*
X166153809Y-131688855D01*
X165889226Y-131688855D01*
X165889226Y-130816350D01*
X166181714Y-130816350D01*
X166185668Y-130876579D01*
X166197527Y-130934482D01*
X166216674Y-130989440D01*
X166242486Y-131040832D01*
X166274499Y-131088116D01*
X166312249Y-131130749D01*
X166355037Y-131168267D01*
X166402166Y-131200203D01*
X166453326Y-131226015D01*
X166508206Y-131245161D01*
X166566110Y-131257021D01*
X166626338Y-131260974D01*
X166686567Y-131257021D01*
X166744471Y-131245161D01*
X166799351Y-131226015D01*
X166850511Y-131200203D01*
X166897640Y-131168267D01*
X166940428Y-131130749D01*
X166978177Y-131088116D01*
X167010191Y-131040832D01*
X167036003Y-130989440D01*
X167055150Y-130934482D01*
X167067009Y-130876579D01*
X167070962Y-130816350D01*
X167070962Y-130548459D01*
X166181714Y-130548459D01*
X166181714Y-130816350D01*
X165889226Y-130816350D01*
X165889226Y-129242079D01*
X167358490Y-129242079D01*
G37*
X155030000Y-105626252D02*
X155030000Y-105103748D01*
X156500000Y-105626252D02*
X156500000Y-105103748D01*
X158977000Y-109802748D02*
X158977000Y-110325252D01*
X157507000Y-109802748D02*
X157507000Y-110325252D01*
G36*
X131152353Y-133343121D02*
G01*
X131152353Y-132330056D01*
X131416936Y-132330056D01*
X132306184Y-132037981D01*
X132306184Y-131860007D01*
X131416936Y-131569172D01*
X131416936Y-131771330D01*
X132010388Y-131948684D01*
X131416936Y-132126658D01*
X131416936Y-132330056D01*
X131152353Y-132330056D01*
X131152353Y-131486697D01*
X131416936Y-131486697D01*
X131594910Y-131486697D01*
X131594910Y-131097883D01*
X131747458Y-131081760D01*
X131747458Y-131244231D01*
X131752264Y-131298259D01*
X131766682Y-131349961D01*
X131790169Y-131397477D01*
X131822183Y-131438948D01*
X131862335Y-131473519D01*
X131910239Y-131500339D01*
X131965197Y-131517548D01*
X132026511Y-131523284D01*
X132088368Y-131517548D01*
X132143713Y-131500339D01*
X132191772Y-131473519D01*
X132231770Y-131438948D01*
X132263551Y-131397477D01*
X132286960Y-131349961D01*
X132301378Y-131298259D01*
X132306184Y-131244231D01*
X132306184Y-130885803D01*
X132128210Y-130885803D01*
X132128210Y-131244231D01*
X132122629Y-131280508D01*
X132104646Y-131313374D01*
X132073020Y-131336938D01*
X132026511Y-131345930D01*
X131982793Y-131336938D01*
X131951167Y-131313374D01*
X131931943Y-131280508D01*
X131925432Y-131244231D01*
X131925432Y-130885803D01*
X131416936Y-130937893D01*
X131416936Y-131486697D01*
X131152353Y-131486697D01*
X131152353Y-130600549D01*
X131589949Y-130600549D01*
X131772883Y-130600549D01*
X131772883Y-130776042D01*
X131941555Y-130776042D01*
X131941555Y-130600549D01*
X132110847Y-130600549D01*
X132110847Y-130431257D01*
X131941555Y-130431257D01*
X131941555Y-130255144D01*
X131772883Y-130255144D01*
X131772883Y-130431257D01*
X131589949Y-130431257D01*
X131589949Y-130600549D01*
X131152353Y-130600549D01*
X131152353Y-129242079D01*
X132570767Y-129242079D01*
X132570767Y-133343121D01*
X131152353Y-133343121D01*
G37*
G36*
X156723349Y-133343121D02*
G01*
X156723349Y-131993022D01*
X156987932Y-131993022D01*
X157877180Y-131689165D01*
X157877180Y-131498789D01*
X157165906Y-131748696D01*
X157165906Y-131370425D01*
X156987932Y-131370425D01*
X156987932Y-131993022D01*
X156723349Y-131993022D01*
X156723349Y-130860068D01*
X156987932Y-130860068D01*
X156991885Y-130920297D01*
X157003745Y-130978201D01*
X157022891Y-131033158D01*
X157048703Y-131084551D01*
X157080717Y-131131835D01*
X157118467Y-131174468D01*
X157161255Y-131211985D01*
X157208384Y-131243921D01*
X157259543Y-131269733D01*
X157314424Y-131288879D01*
X157372327Y-131300739D01*
X157432556Y-131304692D01*
X157492785Y-131300739D01*
X157550688Y-131288879D01*
X157605569Y-131269733D01*
X157656728Y-131243921D01*
X157703857Y-131211985D01*
X157746645Y-131174468D01*
X157784395Y-131131835D01*
X157816409Y-131084551D01*
X157842221Y-131033158D01*
X157861367Y-130978201D01*
X157873227Y-130920297D01*
X157877180Y-130860068D01*
X157877180Y-130592178D01*
X156987932Y-130592178D01*
X156987932Y-130860068D01*
X156723349Y-130860068D01*
X156723349Y-129242079D01*
X158141763Y-129242079D01*
X158141763Y-133343121D01*
X156723349Y-133343121D01*
G37*
G36*
X157699206Y-130860068D02*
G01*
X157694013Y-130913631D01*
X157678432Y-130963938D01*
X157621382Y-131048894D01*
X157536426Y-131105945D01*
X157486119Y-131121525D01*
X157432556Y-131126719D01*
X157379071Y-131121525D01*
X157328996Y-131105945D01*
X157244350Y-131048894D01*
X157186990Y-130963938D01*
X157171177Y-130913631D01*
X157165906Y-130860068D01*
X157165906Y-130771392D01*
X157699206Y-130771392D01*
X157699206Y-130860068D01*
G37*
G36*
X148495198Y-130817590D02*
G01*
X148490005Y-130871153D01*
X148474424Y-130921460D01*
X148417373Y-131006416D01*
X148332417Y-131063467D01*
X148282110Y-131079047D01*
X148228548Y-131084241D01*
X148175062Y-131079047D01*
X148124988Y-131063467D01*
X148040342Y-131006416D01*
X147982981Y-130921460D01*
X147967168Y-130871153D01*
X147961897Y-130817590D01*
X147961897Y-130728913D01*
X148495198Y-130728913D01*
X148495198Y-130817590D01*
G37*
G36*
X148412412Y-131547778D02*
G01*
X148467913Y-131580334D01*
X148506360Y-131630874D01*
X148520623Y-131696296D01*
X148506980Y-131762649D01*
X148469463Y-131813498D01*
X148413963Y-131846055D01*
X148346990Y-131857527D01*
X148280327Y-131846055D01*
X148225137Y-131813498D01*
X148187620Y-131762649D01*
X148173977Y-131696296D01*
X148187620Y-131629944D01*
X148225137Y-131579404D01*
X148280327Y-131547468D01*
X148346990Y-131536306D01*
X148412412Y-131547778D01*
G37*
G36*
X148963180Y-129242079D02*
G01*
X148963180Y-133343121D01*
X147519340Y-133343121D01*
X147519340Y-131834582D01*
X147783924Y-131834582D01*
X147837874Y-131762029D01*
X147901746Y-131694746D01*
X147973679Y-131635525D01*
X148052434Y-131587156D01*
X148021739Y-131645137D01*
X148009026Y-131709319D01*
X148015305Y-131780710D01*
X148034141Y-131844814D01*
X148064217Y-131900702D01*
X148104214Y-131947444D01*
X148153436Y-131984806D01*
X148211184Y-132012556D01*
X148276142Y-132029764D01*
X148346990Y-132035500D01*
X148416908Y-132029067D01*
X148482796Y-132009766D01*
X148542714Y-131979147D01*
X148594727Y-131938762D01*
X148637747Y-131889230D01*
X148670691Y-131831172D01*
X148691620Y-131766292D01*
X148698596Y-131696296D01*
X148691620Y-131625835D01*
X148670691Y-131559560D01*
X148637747Y-131499487D01*
X148594727Y-131447629D01*
X148542714Y-131404919D01*
X148482796Y-131372285D01*
X148416908Y-131351589D01*
X148346990Y-131344690D01*
X148262421Y-131348876D01*
X148179868Y-131361433D01*
X148100493Y-131382052D01*
X148025459Y-131410422D01*
X147955463Y-131446234D01*
X147891204Y-131489177D01*
X147833688Y-131538787D01*
X147783924Y-131594597D01*
X147783924Y-131834582D01*
X147519340Y-131834582D01*
X147519340Y-130817590D01*
X147783924Y-130817590D01*
X147787877Y-130877819D01*
X147799737Y-130935723D01*
X147818883Y-130990680D01*
X147844695Y-131042073D01*
X147876709Y-131089357D01*
X147914458Y-131131990D01*
X147957246Y-131169507D01*
X148004375Y-131201443D01*
X148055535Y-131227255D01*
X148110415Y-131246401D01*
X148168319Y-131258261D01*
X148228548Y-131262214D01*
X148288776Y-131258261D01*
X148346680Y-131246401D01*
X148401560Y-131227255D01*
X148452720Y-131201443D01*
X148499849Y-131169507D01*
X148542637Y-131131990D01*
X148580387Y-131089357D01*
X148612400Y-131042073D01*
X148638213Y-130990680D01*
X148657359Y-130935723D01*
X148669218Y-130877819D01*
X148673172Y-130817590D01*
X148673172Y-130549700D01*
X147783924Y-130549700D01*
X147783924Y-130817590D01*
X147519340Y-130817590D01*
X147519340Y-129242079D01*
X148963180Y-129242079D01*
G37*
G36*
X149536873Y-133343121D02*
G01*
X149536873Y-132330056D01*
X149801456Y-132330056D01*
X150690704Y-132037981D01*
X150690704Y-131860007D01*
X149801456Y-131569172D01*
X149801456Y-131771330D01*
X150394908Y-131948684D01*
X149801456Y-132126658D01*
X149801456Y-132330056D01*
X149536873Y-132330056D01*
X149536873Y-131486697D01*
X149801456Y-131486697D01*
X149979430Y-131486697D01*
X149979430Y-131097883D01*
X150131978Y-131081760D01*
X150131978Y-131244231D01*
X150136784Y-131298259D01*
X150151202Y-131349961D01*
X150174689Y-131397477D01*
X150206703Y-131438948D01*
X150246855Y-131473519D01*
X150294759Y-131500339D01*
X150349717Y-131517548D01*
X150411031Y-131523284D01*
X150472888Y-131517548D01*
X150528233Y-131500339D01*
X150576292Y-131473519D01*
X150616290Y-131438948D01*
X150648071Y-131397477D01*
X150671480Y-131349961D01*
X150685898Y-131298259D01*
X150690704Y-131244231D01*
X150690704Y-130885803D01*
X150512730Y-130885803D01*
X150512730Y-131244231D01*
X150507149Y-131280508D01*
X150489166Y-131313374D01*
X150457540Y-131336938D01*
X150411031Y-131345930D01*
X150367313Y-131336938D01*
X150335687Y-131313374D01*
X150316463Y-131280508D01*
X150309952Y-131244231D01*
X150309952Y-130885803D01*
X149801456Y-130937893D01*
X149801456Y-131486697D01*
X149536873Y-131486697D01*
X149536873Y-130600549D01*
X149974469Y-130600549D01*
X150157403Y-130600549D01*
X150157403Y-130776042D01*
X150326075Y-130776042D01*
X150326075Y-130600549D01*
X150495367Y-130600549D01*
X150495367Y-130431257D01*
X150326075Y-130431257D01*
X150326075Y-130255144D01*
X150157403Y-130255144D01*
X150157403Y-130431257D01*
X149974469Y-130431257D01*
X149974469Y-130600549D01*
X149536873Y-130600549D01*
X149536873Y-129242079D01*
X150955287Y-129242079D01*
X150955287Y-133343121D01*
X149536873Y-133343121D01*
G37*
X159856000Y-112969064D02*
X159856000Y-112514936D01*
X161326000Y-112969064D02*
X161326000Y-112514936D01*
X164584748Y-103659000D02*
X165107252Y-103659000D01*
X164584748Y-105129000D02*
X165107252Y-105129000D01*
G36*
X145522300Y-133343121D02*
G01*
X145522300Y-132088830D01*
X145796805Y-132088830D01*
X145800758Y-132149059D01*
X145812618Y-132206963D01*
X145831764Y-132261921D01*
X145857577Y-132313313D01*
X145889590Y-132360597D01*
X145927340Y-132403230D01*
X145970128Y-132440747D01*
X146017257Y-132472683D01*
X146068416Y-132498495D01*
X146123297Y-132517642D01*
X146181200Y-132529501D01*
X146241429Y-132533454D01*
X146301658Y-132529501D01*
X146359561Y-132517642D01*
X146414442Y-132498495D01*
X146465601Y-132472683D01*
X146512730Y-132440747D01*
X146555518Y-132403230D01*
X146593268Y-132360597D01*
X146625282Y-132313313D01*
X146651094Y-132261921D01*
X146670240Y-132206963D01*
X146682100Y-132149059D01*
X146686053Y-132088830D01*
X146686053Y-131820940D01*
X145796805Y-131820940D01*
X145796805Y-132088830D01*
X145522300Y-132088830D01*
X145522300Y-131655989D01*
X145796805Y-131655989D01*
X146686053Y-131655989D01*
X146686053Y-131465613D01*
X146100663Y-131122688D01*
X146686053Y-131122688D01*
X146686053Y-130944714D01*
X145796805Y-130944714D01*
X145796805Y-131135090D01*
X146382816Y-131478015D01*
X145796805Y-131478015D01*
X145796805Y-131655989D01*
X145522300Y-131655989D01*
X145522300Y-130510632D01*
X145786883Y-130510632D01*
X145793937Y-130591558D01*
X145815099Y-130669382D01*
X145849438Y-130742091D01*
X145896024Y-130807668D01*
X146051053Y-130714651D01*
X146014544Y-130671243D01*
X145986871Y-130621633D01*
X145969430Y-130567528D01*
X145963617Y-130510632D01*
X145969198Y-130454124D01*
X145985941Y-130401182D01*
X146012218Y-130353200D01*
X146046402Y-130311575D01*
X146087795Y-130277158D01*
X146135699Y-130250803D01*
X146188642Y-130234060D01*
X146245150Y-130228479D01*
X146302201Y-130234060D01*
X146355531Y-130250803D01*
X146403745Y-130277158D01*
X146445448Y-130311575D01*
X146479864Y-130353200D01*
X146506219Y-130401182D01*
X146522962Y-130454124D01*
X146528543Y-130510632D01*
X146520482Y-130575745D01*
X146498158Y-130635896D01*
X146245150Y-130635896D01*
X146245150Y-130807668D01*
X146596136Y-130807668D01*
X146642722Y-130742091D01*
X146677061Y-130669382D01*
X146698223Y-130591558D01*
X146705277Y-130510632D01*
X146701169Y-130448543D01*
X146688844Y-130388779D01*
X146669000Y-130332116D01*
X146642335Y-130279329D01*
X146609314Y-130230649D01*
X146570401Y-130186311D01*
X146526218Y-130147244D01*
X146477384Y-130114377D01*
X146424286Y-130087945D01*
X146367313Y-130068179D01*
X146307317Y-130055854D01*
X146245150Y-130051746D01*
X146183138Y-130055854D01*
X146123607Y-130068179D01*
X146067099Y-130087945D01*
X146014156Y-130114377D01*
X145965322Y-130147244D01*
X145921139Y-130186311D01*
X145882304Y-130230649D01*
X145849515Y-130279329D01*
X145823083Y-130332116D01*
X145803316Y-130388779D01*
X145790991Y-130448543D01*
X145786883Y-130510632D01*
X145522300Y-130510632D01*
X145522300Y-129242079D01*
X146969860Y-129242079D01*
X146969860Y-133343121D01*
X145522300Y-133343121D01*
G37*
G36*
X146508080Y-132088830D02*
G01*
X146502886Y-132142393D01*
X146487306Y-132192700D01*
X146430255Y-132277656D01*
X146345299Y-132334707D01*
X146294992Y-132350287D01*
X146241429Y-132355481D01*
X146187944Y-132350287D01*
X146137870Y-132334707D01*
X146053224Y-132277656D01*
X145995863Y-132192700D01*
X145980050Y-132142393D01*
X145974779Y-132088830D01*
X145974779Y-132000154D01*
X146508080Y-132000154D01*
X146508080Y-132088830D01*
G37*
X104674936Y-124687000D02*
X105129064Y-124687000D01*
X104674936Y-123217000D02*
X105129064Y-123217000D01*
G36*
X140344613Y-133343121D02*
G01*
X140344613Y-132330056D01*
X140609196Y-132330056D01*
X141498444Y-132037981D01*
X141498444Y-131860007D01*
X140609196Y-131569172D01*
X140609196Y-131771330D01*
X141202648Y-131948684D01*
X140609196Y-132126658D01*
X140609196Y-132330056D01*
X140344613Y-132330056D01*
X140344613Y-131486697D01*
X140609196Y-131486697D01*
X140787170Y-131486697D01*
X140787170Y-131097883D01*
X140939718Y-131081760D01*
X140939718Y-131244231D01*
X140944524Y-131298259D01*
X140958942Y-131349961D01*
X140982429Y-131397477D01*
X141014443Y-131438948D01*
X141054595Y-131473519D01*
X141102499Y-131500339D01*
X141157457Y-131517548D01*
X141218771Y-131523284D01*
X141280628Y-131517548D01*
X141335973Y-131500339D01*
X141384032Y-131473519D01*
X141424030Y-131438948D01*
X141455811Y-131397477D01*
X141479220Y-131349961D01*
X141493638Y-131298259D01*
X141498444Y-131244231D01*
X141498444Y-130885803D01*
X141320470Y-130885803D01*
X141320470Y-131244231D01*
X141314889Y-131280508D01*
X141296906Y-131313374D01*
X141265280Y-131336938D01*
X141218771Y-131345930D01*
X141175053Y-131336938D01*
X141143427Y-131313374D01*
X141124203Y-131280508D01*
X141117692Y-131244231D01*
X141117692Y-130885803D01*
X140609196Y-130937893D01*
X140609196Y-131486697D01*
X140344613Y-131486697D01*
X140344613Y-130600549D01*
X140782209Y-130600549D01*
X140965143Y-130600549D01*
X140965143Y-130776042D01*
X141133815Y-130776042D01*
X141133815Y-130600549D01*
X141303107Y-130600549D01*
X141303107Y-130431257D01*
X141133815Y-130431257D01*
X141133815Y-130255144D01*
X140965143Y-130255144D01*
X140965143Y-130431257D01*
X140782209Y-130431257D01*
X140782209Y-130600549D01*
X140344613Y-130600549D01*
X140344613Y-129242079D01*
X141763027Y-129242079D01*
X141763027Y-133343121D01*
X140344613Y-133343121D01*
G37*
G36*
X112767833Y-133343121D02*
G01*
X112767833Y-132330056D01*
X113032416Y-132330056D01*
X113921664Y-132037981D01*
X113921664Y-131860007D01*
X113032416Y-131569172D01*
X113032416Y-131771330D01*
X113625868Y-131948684D01*
X113032416Y-132126658D01*
X113032416Y-132330056D01*
X112767833Y-132330056D01*
X112767833Y-131486697D01*
X113032416Y-131486697D01*
X113210390Y-131486697D01*
X113210390Y-131097883D01*
X113362938Y-131081760D01*
X113362938Y-131244231D01*
X113367744Y-131298259D01*
X113382162Y-131349961D01*
X113405649Y-131397477D01*
X113437663Y-131438948D01*
X113477815Y-131473519D01*
X113525719Y-131500339D01*
X113580677Y-131517548D01*
X113641991Y-131523284D01*
X113703848Y-131517548D01*
X113759193Y-131500339D01*
X113807252Y-131473519D01*
X113847250Y-131438948D01*
X113879031Y-131397477D01*
X113902440Y-131349961D01*
X113916858Y-131298259D01*
X113921664Y-131244231D01*
X113921664Y-130885803D01*
X113743690Y-130885803D01*
X113743690Y-131244231D01*
X113738109Y-131280508D01*
X113720126Y-131313374D01*
X113688500Y-131336938D01*
X113641991Y-131345930D01*
X113598273Y-131336938D01*
X113566647Y-131313374D01*
X113547423Y-131280508D01*
X113540912Y-131244231D01*
X113540912Y-130885803D01*
X113032416Y-130937893D01*
X113032416Y-131486697D01*
X112767833Y-131486697D01*
X112767833Y-130600549D01*
X113205429Y-130600549D01*
X113388363Y-130600549D01*
X113388363Y-130776042D01*
X113557035Y-130776042D01*
X113557035Y-130600549D01*
X113726327Y-130600549D01*
X113726327Y-130431257D01*
X113557035Y-130431257D01*
X113557035Y-130255144D01*
X113388363Y-130255144D01*
X113388363Y-130431257D01*
X113205429Y-130431257D01*
X113205429Y-130600549D01*
X112767833Y-130600549D01*
X112767833Y-129242079D01*
X114186247Y-129242079D01*
X114186247Y-133343121D01*
X112767833Y-133343121D01*
G37*
G36*
X110766869Y-133343121D02*
G01*
X110766869Y-131738464D01*
X111031452Y-131738464D01*
X111036723Y-131791949D01*
X111052536Y-131842024D01*
X111109897Y-131926670D01*
X111194543Y-131984031D01*
X111244617Y-131999844D01*
X111298102Y-132005115D01*
X111351665Y-131999844D01*
X111401972Y-131984031D01*
X111486928Y-131926670D01*
X111544289Y-131842024D01*
X111560102Y-131791949D01*
X111565373Y-131738464D01*
X111565373Y-131649167D01*
X111572194Y-131614441D01*
X111591108Y-131586225D01*
X111619323Y-131567312D01*
X111654050Y-131560491D01*
X111742726Y-131560491D01*
X111742726Y-131980930D01*
X111920700Y-131980930D01*
X111920700Y-131382517D01*
X111654050Y-131382517D01*
X111600487Y-131387788D01*
X111550180Y-131403601D01*
X111465224Y-131460962D01*
X111408173Y-131545608D01*
X111392593Y-131595682D01*
X111387399Y-131649167D01*
X111387399Y-131738464D01*
X111380578Y-131773191D01*
X111361664Y-131801406D01*
X111333139Y-131820320D01*
X111298102Y-131827141D01*
X111263376Y-131820320D01*
X111235160Y-131801406D01*
X111216247Y-131773191D01*
X111209426Y-131738464D01*
X111209426Y-131420964D01*
X111031452Y-131420964D01*
X111031452Y-131738464D01*
X110766869Y-131738464D01*
X110766869Y-130847976D01*
X111031452Y-130847976D01*
X111035405Y-130908205D01*
X111047265Y-130966108D01*
X111066411Y-131021066D01*
X111092223Y-131072458D01*
X111124237Y-131119742D01*
X111161987Y-131162375D01*
X111204775Y-131199892D01*
X111251904Y-131231829D01*
X111303063Y-131257641D01*
X111357944Y-131276787D01*
X111415847Y-131288647D01*
X111476076Y-131292600D01*
X111536305Y-131288647D01*
X111594208Y-131276787D01*
X111649089Y-131257641D01*
X111700248Y-131231829D01*
X111747377Y-131199892D01*
X111790165Y-131162375D01*
X111827915Y-131119742D01*
X111859929Y-131072458D01*
X111885741Y-131021066D01*
X111904887Y-130966108D01*
X111916747Y-130908205D01*
X111920700Y-130847976D01*
X111920700Y-130580085D01*
X111031452Y-130580085D01*
X111031452Y-130847976D01*
X110766869Y-130847976D01*
X110766869Y-129242079D01*
X112185283Y-129242079D01*
X112185283Y-133343121D01*
X110766869Y-133343121D01*
G37*
G36*
X111742726Y-130847976D02*
G01*
X111737533Y-130901539D01*
X111721952Y-130951846D01*
X111664902Y-131036802D01*
X111579946Y-131093852D01*
X111529639Y-131109433D01*
X111476076Y-131114626D01*
X111422591Y-131109433D01*
X111372516Y-131093852D01*
X111287870Y-131036802D01*
X111230510Y-130951846D01*
X111214697Y-130901539D01*
X111209426Y-130847976D01*
X111209426Y-130759299D01*
X111742726Y-130759299D01*
X111742726Y-130847976D01*
G37*
G36*
X128123560Y-132088830D02*
G01*
X128118366Y-132142393D01*
X128102786Y-132192700D01*
X128045735Y-132277656D01*
X127960779Y-132334707D01*
X127910472Y-132350287D01*
X127856909Y-132355481D01*
X127803424Y-132350287D01*
X127753350Y-132334707D01*
X127668704Y-132277656D01*
X127611343Y-132192700D01*
X127595530Y-132142393D01*
X127590259Y-132088830D01*
X127590259Y-132000154D01*
X128123560Y-132000154D01*
X128123560Y-132088830D01*
G37*
G36*
X127137780Y-133343121D02*
G01*
X127137780Y-132088830D01*
X127412285Y-132088830D01*
X127416238Y-132149059D01*
X127428098Y-132206963D01*
X127447244Y-132261921D01*
X127473057Y-132313313D01*
X127505070Y-132360597D01*
X127542820Y-132403230D01*
X127585608Y-132440747D01*
X127632737Y-132472683D01*
X127683896Y-132498495D01*
X127738777Y-132517642D01*
X127796680Y-132529501D01*
X127856909Y-132533454D01*
X127917138Y-132529501D01*
X127975041Y-132517642D01*
X128029922Y-132498495D01*
X128081081Y-132472683D01*
X128128210Y-132440747D01*
X128170998Y-132403230D01*
X128208748Y-132360597D01*
X128240762Y-132313313D01*
X128266574Y-132261921D01*
X128285720Y-132206963D01*
X128297580Y-132149059D01*
X128301533Y-132088830D01*
X128301533Y-131820940D01*
X127412285Y-131820940D01*
X127412285Y-132088830D01*
X127137780Y-132088830D01*
X127137780Y-131655989D01*
X127412285Y-131655989D01*
X128301533Y-131655989D01*
X128301533Y-131465613D01*
X127716143Y-131122688D01*
X128301533Y-131122688D01*
X128301533Y-130944714D01*
X127412285Y-130944714D01*
X127412285Y-131135090D01*
X127998296Y-131478015D01*
X127412285Y-131478015D01*
X127412285Y-131655989D01*
X127137780Y-131655989D01*
X127137780Y-130510632D01*
X127402363Y-130510632D01*
X127409417Y-130591558D01*
X127430579Y-130669382D01*
X127464918Y-130742091D01*
X127511504Y-130807668D01*
X127666533Y-130714651D01*
X127630024Y-130671243D01*
X127602351Y-130621633D01*
X127584910Y-130567528D01*
X127579097Y-130510632D01*
X127584678Y-130454124D01*
X127601421Y-130401182D01*
X127627698Y-130353200D01*
X127661882Y-130311575D01*
X127703275Y-130277158D01*
X127751179Y-130250803D01*
X127804122Y-130234060D01*
X127860630Y-130228479D01*
X127917681Y-130234060D01*
X127971011Y-130250803D01*
X128019225Y-130277158D01*
X128060928Y-130311575D01*
X128095344Y-130353200D01*
X128121699Y-130401182D01*
X128138442Y-130454124D01*
X128144023Y-130510632D01*
X128135962Y-130575745D01*
X128113638Y-130635896D01*
X127860630Y-130635896D01*
X127860630Y-130807668D01*
X128211616Y-130807668D01*
X128258202Y-130742091D01*
X128292541Y-130669382D01*
X128313703Y-130591558D01*
X128320757Y-130510632D01*
X128316649Y-130448543D01*
X128304324Y-130388779D01*
X128284480Y-130332116D01*
X128257815Y-130279329D01*
X128224794Y-130230649D01*
X128185881Y-130186311D01*
X128141698Y-130147244D01*
X128092864Y-130114377D01*
X128039766Y-130087945D01*
X127982793Y-130068179D01*
X127922797Y-130055854D01*
X127860630Y-130051746D01*
X127798618Y-130055854D01*
X127739087Y-130068179D01*
X127682579Y-130087945D01*
X127629636Y-130114377D01*
X127580802Y-130147244D01*
X127536619Y-130186311D01*
X127497784Y-130230649D01*
X127464995Y-130279329D01*
X127438563Y-130332116D01*
X127418796Y-130388779D01*
X127406471Y-130448543D01*
X127402363Y-130510632D01*
X127137780Y-130510632D01*
X127137780Y-129242079D01*
X128585340Y-129242079D01*
X128585340Y-133343121D01*
X127137780Y-133343121D01*
G37*
X146039064Y-123217000D02*
X145584936Y-123217000D01*
X146039064Y-124687000D02*
X145584936Y-124687000D01*
X158520000Y-104562000D02*
X161520000Y-104562000D01*
X160020000Y-107782000D02*
X161520000Y-107782000D01*
G36*
X129149461Y-133343121D02*
G01*
X129149461Y-131606379D01*
X129414044Y-131606379D01*
X129947965Y-131528865D01*
X129947965Y-131773811D01*
X129503341Y-131773811D01*
X129503341Y-131951785D01*
X129947965Y-131951785D01*
X129947965Y-132040461D01*
X130125318Y-132040461D01*
X130125318Y-131951785D01*
X130303292Y-131951785D01*
X130303292Y-131773811D01*
X130125318Y-131773811D01*
X130125318Y-131329187D01*
X129414044Y-131428406D01*
X129414044Y-131606379D01*
X129149461Y-131606379D01*
X129149461Y-130812629D01*
X129414044Y-130812629D01*
X129417997Y-130872858D01*
X129429857Y-130930762D01*
X129449003Y-130985720D01*
X129474815Y-131037112D01*
X129506829Y-131084396D01*
X129544579Y-131127029D01*
X129587367Y-131164546D01*
X129634496Y-131196482D01*
X129685655Y-131222294D01*
X129740536Y-131241440D01*
X129798439Y-131253300D01*
X129858668Y-131257253D01*
X129918897Y-131253300D01*
X129976800Y-131241440D01*
X130031681Y-131222294D01*
X130082840Y-131196482D01*
X130129969Y-131164546D01*
X130172757Y-131127029D01*
X130210507Y-131084396D01*
X130242521Y-131037112D01*
X130268333Y-130985720D01*
X130287479Y-130930762D01*
X130299339Y-130872858D01*
X130303292Y-130812629D01*
X130303292Y-130544739D01*
X129414044Y-130544739D01*
X129414044Y-130812629D01*
X129149461Y-130812629D01*
X129149461Y-129242079D01*
X130567875Y-129242079D01*
X130567875Y-133343121D01*
X129149461Y-133343121D01*
G37*
G36*
X130125318Y-130812629D02*
G01*
X130120125Y-130866192D01*
X130104544Y-130916499D01*
X130047494Y-131001455D01*
X129962538Y-131058506D01*
X129912231Y-131074086D01*
X129858668Y-131079280D01*
X129805183Y-131074086D01*
X129755108Y-131058506D01*
X129670462Y-131001455D01*
X129613102Y-130916499D01*
X129597289Y-130866192D01*
X129592018Y-130812629D01*
X129592018Y-130723953D01*
X130125318Y-130723953D01*
X130125318Y-130812629D01*
G37*
G36*
X99561000Y-133343121D02*
G01*
X99561000Y-132088830D01*
X99835505Y-132088830D01*
X99839458Y-132149059D01*
X99851318Y-132206963D01*
X99870464Y-132261921D01*
X99896277Y-132313313D01*
X99928290Y-132360597D01*
X99966040Y-132403230D01*
X100008828Y-132440747D01*
X100055957Y-132472683D01*
X100107116Y-132498495D01*
X100161997Y-132517642D01*
X100219900Y-132529501D01*
X100280129Y-132533454D01*
X100340358Y-132529501D01*
X100398261Y-132517642D01*
X100453142Y-132498495D01*
X100504301Y-132472683D01*
X100551430Y-132440747D01*
X100594218Y-132403230D01*
X100631968Y-132360597D01*
X100663982Y-132313313D01*
X100689794Y-132261921D01*
X100708940Y-132206963D01*
X100720800Y-132149059D01*
X100724753Y-132088830D01*
X100724753Y-131820940D01*
X99835505Y-131820940D01*
X99835505Y-132088830D01*
X99561000Y-132088830D01*
X99561000Y-131655989D01*
X99835505Y-131655989D01*
X100724753Y-131655989D01*
X100724753Y-131465613D01*
X100139363Y-131122688D01*
X100724753Y-131122688D01*
X100724753Y-130944714D01*
X99835505Y-130944714D01*
X99835505Y-131135090D01*
X100421516Y-131478015D01*
X99835505Y-131478015D01*
X99835505Y-131655989D01*
X99561000Y-131655989D01*
X99561000Y-130510632D01*
X99825583Y-130510632D01*
X99832637Y-130591558D01*
X99853799Y-130669382D01*
X99888138Y-130742091D01*
X99934724Y-130807668D01*
X100089753Y-130714651D01*
X100053244Y-130671243D01*
X100025571Y-130621633D01*
X100008130Y-130567528D01*
X100002317Y-130510632D01*
X100007898Y-130454124D01*
X100024641Y-130401182D01*
X100050918Y-130353200D01*
X100085102Y-130311575D01*
X100126495Y-130277158D01*
X100174399Y-130250803D01*
X100227342Y-130234060D01*
X100283850Y-130228479D01*
X100340901Y-130234060D01*
X100394231Y-130250803D01*
X100442445Y-130277158D01*
X100484148Y-130311575D01*
X100518564Y-130353200D01*
X100544919Y-130401182D01*
X100561662Y-130454124D01*
X100567243Y-130510632D01*
X100559182Y-130575745D01*
X100536858Y-130635896D01*
X100283850Y-130635896D01*
X100283850Y-130807668D01*
X100634836Y-130807668D01*
X100681422Y-130742091D01*
X100715761Y-130669382D01*
X100736923Y-130591558D01*
X100743977Y-130510632D01*
X100739869Y-130448543D01*
X100727544Y-130388779D01*
X100707700Y-130332116D01*
X100681035Y-130279329D01*
X100648014Y-130230649D01*
X100609101Y-130186311D01*
X100564918Y-130147244D01*
X100516084Y-130114377D01*
X100462986Y-130087945D01*
X100406013Y-130068179D01*
X100346017Y-130055854D01*
X100283850Y-130051746D01*
X100221838Y-130055854D01*
X100162307Y-130068179D01*
X100105799Y-130087945D01*
X100052856Y-130114377D01*
X100004022Y-130147244D01*
X99959839Y-130186311D01*
X99921004Y-130230649D01*
X99888215Y-130279329D01*
X99861783Y-130332116D01*
X99842016Y-130388779D01*
X99829691Y-130448543D01*
X99825583Y-130510632D01*
X99561000Y-130510632D01*
X99561000Y-129242079D01*
X101008560Y-129242079D01*
X101008560Y-133343121D01*
X99561000Y-133343121D01*
G37*
G36*
X100546780Y-132088830D02*
G01*
X100541586Y-132142393D01*
X100526006Y-132192700D01*
X100468955Y-132277656D01*
X100383999Y-132334707D01*
X100333692Y-132350287D01*
X100280129Y-132355481D01*
X100226644Y-132350287D01*
X100176570Y-132334707D01*
X100091924Y-132277656D01*
X100034563Y-132192700D01*
X100018750Y-132142393D01*
X100013479Y-132088830D01*
X100013479Y-132000154D01*
X100546780Y-132000154D01*
X100546780Y-132088830D01*
G37*
X166851000Y-91212936D02*
X166851000Y-91667064D01*
X165381000Y-91212936D02*
X165381000Y-91667064D01*
G36*
X120934022Y-130844255D02*
G01*
X120928829Y-130897818D01*
X120913248Y-130948125D01*
X120856198Y-131033081D01*
X120771242Y-131090132D01*
X120720935Y-131105712D01*
X120667372Y-131110906D01*
X120613887Y-131105712D01*
X120563812Y-131090132D01*
X120479166Y-131033081D01*
X120421806Y-130948125D01*
X120405993Y-130897818D01*
X120400722Y-130844255D01*
X120400722Y-130755579D01*
X120934022Y-130755579D01*
X120934022Y-130844255D01*
G37*
G36*
X121376579Y-129242079D02*
G01*
X121376579Y-133343121D01*
X119958165Y-133343121D01*
X119958165Y-131742185D01*
X120222748Y-131742185D01*
X120228019Y-131795670D01*
X120243832Y-131845745D01*
X120301193Y-131930391D01*
X120385839Y-131987751D01*
X120435913Y-132003564D01*
X120489398Y-132008835D01*
X120584586Y-131990852D01*
X120667372Y-131940002D01*
X120750158Y-131990852D01*
X120845346Y-132008835D01*
X120898831Y-132003564D01*
X120948905Y-131987751D01*
X121033551Y-131930391D01*
X121090912Y-131845745D01*
X121106725Y-131795670D01*
X121111996Y-131742185D01*
X121111996Y-131386238D01*
X120934022Y-131386238D01*
X120934022Y-131742185D01*
X120927201Y-131776912D01*
X120908288Y-131805127D01*
X120880072Y-131824040D01*
X120845346Y-131830862D01*
X120810619Y-131824040D01*
X120782404Y-131805127D01*
X120763490Y-131776912D01*
X120756669Y-131742185D01*
X120756669Y-131499719D01*
X120578695Y-131499719D01*
X120578695Y-131742185D01*
X120571874Y-131776912D01*
X120552960Y-131805127D01*
X120524435Y-131824040D01*
X120489398Y-131830862D01*
X120454672Y-131824040D01*
X120426456Y-131805127D01*
X120407543Y-131776912D01*
X120400722Y-131742185D01*
X120400722Y-131386238D01*
X120222748Y-131386238D01*
X120222748Y-131742185D01*
X119958165Y-131742185D01*
X119958165Y-130844255D01*
X120222748Y-130844255D01*
X120226701Y-130904484D01*
X120238561Y-130962388D01*
X120257707Y-131017345D01*
X120283519Y-131068738D01*
X120315533Y-131116022D01*
X120353283Y-131158655D01*
X120396071Y-131196172D01*
X120443200Y-131228108D01*
X120494359Y-131253920D01*
X120549240Y-131273066D01*
X120607143Y-131284926D01*
X120667372Y-131288879D01*
X120727601Y-131284926D01*
X120785504Y-131273066D01*
X120840385Y-131253920D01*
X120891544Y-131228108D01*
X120938673Y-131196172D01*
X120981461Y-131158655D01*
X121019211Y-131116022D01*
X121051225Y-131068738D01*
X121077037Y-131017345D01*
X121096183Y-130962388D01*
X121108043Y-130904484D01*
X121111996Y-130844255D01*
X121111996Y-130576365D01*
X120222748Y-130576365D01*
X120222748Y-130844255D01*
X119958165Y-130844255D01*
X119958165Y-129242079D01*
X121376579Y-129242079D01*
G37*
X145796000Y-102787000D02*
X143596000Y-102787000D01*
X145796000Y-109557000D02*
X147996000Y-109557000D01*
X145796000Y-102787000D02*
X149396000Y-102787000D01*
X145796000Y-109557000D02*
X143596000Y-109557000D01*
X142860752Y-100611000D02*
X142338248Y-100611000D01*
X142860752Y-102081000D02*
X142338248Y-102081000D01*
G36*
X103575573Y-133343121D02*
G01*
X103575573Y-132330056D01*
X103840156Y-132330056D01*
X104729404Y-132037981D01*
X104729404Y-131860007D01*
X103840156Y-131569172D01*
X103840156Y-131771330D01*
X104433608Y-131948684D01*
X103840156Y-132126658D01*
X103840156Y-132330056D01*
X103575573Y-132330056D01*
X103575573Y-131486697D01*
X103840156Y-131486697D01*
X104018130Y-131486697D01*
X104018130Y-131097883D01*
X104170678Y-131081760D01*
X104170678Y-131244231D01*
X104175484Y-131298259D01*
X104189902Y-131349961D01*
X104213389Y-131397477D01*
X104245403Y-131438948D01*
X104285555Y-131473519D01*
X104333459Y-131500339D01*
X104388417Y-131517548D01*
X104449731Y-131523284D01*
X104511588Y-131517548D01*
X104566933Y-131500339D01*
X104614992Y-131473519D01*
X104654990Y-131438948D01*
X104686771Y-131397477D01*
X104710180Y-131349961D01*
X104724598Y-131298259D01*
X104729404Y-131244231D01*
X104729404Y-130885803D01*
X104551430Y-130885803D01*
X104551430Y-131244231D01*
X104545849Y-131280508D01*
X104527866Y-131313374D01*
X104496240Y-131336938D01*
X104449731Y-131345930D01*
X104406013Y-131336938D01*
X104374387Y-131313374D01*
X104355163Y-131280508D01*
X104348652Y-131244231D01*
X104348652Y-130885803D01*
X103840156Y-130937893D01*
X103840156Y-131486697D01*
X103575573Y-131486697D01*
X103575573Y-130600549D01*
X104013169Y-130600549D01*
X104196103Y-130600549D01*
X104196103Y-130776042D01*
X104364775Y-130776042D01*
X104364775Y-130600549D01*
X104534067Y-130600549D01*
X104534067Y-130431257D01*
X104364775Y-130431257D01*
X104364775Y-130255144D01*
X104196103Y-130255144D01*
X104196103Y-130431257D01*
X104013169Y-130431257D01*
X104013169Y-130600549D01*
X103575573Y-130600549D01*
X103575573Y-129242079D01*
X104993987Y-129242079D01*
X104993987Y-133343121D01*
X103575573Y-133343121D01*
G37*
G36*
X164892600Y-132088830D02*
G01*
X164887406Y-132142393D01*
X164871826Y-132192700D01*
X164814775Y-132277656D01*
X164729819Y-132334707D01*
X164679512Y-132350287D01*
X164625949Y-132355481D01*
X164572464Y-132350287D01*
X164522390Y-132334707D01*
X164437744Y-132277656D01*
X164380383Y-132192700D01*
X164364570Y-132142393D01*
X164359299Y-132088830D01*
X164359299Y-132000154D01*
X164892600Y-132000154D01*
X164892600Y-132088830D01*
G37*
G36*
X163906820Y-133343121D02*
G01*
X163906820Y-132088830D01*
X164181325Y-132088830D01*
X164185278Y-132149059D01*
X164197138Y-132206963D01*
X164216284Y-132261921D01*
X164242097Y-132313313D01*
X164274110Y-132360597D01*
X164311860Y-132403230D01*
X164354648Y-132440747D01*
X164401777Y-132472683D01*
X164452936Y-132498495D01*
X164507817Y-132517642D01*
X164565720Y-132529501D01*
X164625949Y-132533454D01*
X164686178Y-132529501D01*
X164744081Y-132517642D01*
X164798962Y-132498495D01*
X164850121Y-132472683D01*
X164897250Y-132440747D01*
X164940038Y-132403230D01*
X164977788Y-132360597D01*
X165009802Y-132313313D01*
X165035614Y-132261921D01*
X165054760Y-132206963D01*
X165066620Y-132149059D01*
X165070573Y-132088830D01*
X165070573Y-131820940D01*
X164181325Y-131820940D01*
X164181325Y-132088830D01*
X163906820Y-132088830D01*
X163906820Y-131655989D01*
X164181325Y-131655989D01*
X165070573Y-131655989D01*
X165070573Y-131465613D01*
X164485183Y-131122688D01*
X165070573Y-131122688D01*
X165070573Y-130944714D01*
X164181325Y-130944714D01*
X164181325Y-131135090D01*
X164767336Y-131478015D01*
X164181325Y-131478015D01*
X164181325Y-131655989D01*
X163906820Y-131655989D01*
X163906820Y-130510632D01*
X164171403Y-130510632D01*
X164178457Y-130591558D01*
X164199619Y-130669382D01*
X164233958Y-130742091D01*
X164280544Y-130807668D01*
X164435573Y-130714651D01*
X164399064Y-130671243D01*
X164371391Y-130621633D01*
X164353950Y-130567528D01*
X164348137Y-130510632D01*
X164353718Y-130454124D01*
X164370461Y-130401182D01*
X164396738Y-130353200D01*
X164430922Y-130311575D01*
X164472315Y-130277158D01*
X164520219Y-130250803D01*
X164573162Y-130234060D01*
X164629670Y-130228479D01*
X164686721Y-130234060D01*
X164740051Y-130250803D01*
X164788265Y-130277158D01*
X164829968Y-130311575D01*
X164864384Y-130353200D01*
X164890739Y-130401182D01*
X164907482Y-130454124D01*
X164913063Y-130510632D01*
X164905002Y-130575745D01*
X164882678Y-130635896D01*
X164629670Y-130635896D01*
X164629670Y-130807668D01*
X164980656Y-130807668D01*
X165027242Y-130742091D01*
X165061581Y-130669382D01*
X165082743Y-130591558D01*
X165089797Y-130510632D01*
X165085689Y-130448543D01*
X165073364Y-130388779D01*
X165053520Y-130332116D01*
X165026855Y-130279329D01*
X164993834Y-130230649D01*
X164954921Y-130186311D01*
X164910738Y-130147244D01*
X164861904Y-130114377D01*
X164808806Y-130087945D01*
X164751833Y-130068179D01*
X164691837Y-130055854D01*
X164629670Y-130051746D01*
X164567658Y-130055854D01*
X164508127Y-130068179D01*
X164451619Y-130087945D01*
X164398676Y-130114377D01*
X164349842Y-130147244D01*
X164305659Y-130186311D01*
X164266824Y-130230649D01*
X164234035Y-130279329D01*
X164207603Y-130332116D01*
X164187836Y-130388779D01*
X164175511Y-130448543D01*
X164171403Y-130510632D01*
X163906820Y-130510632D01*
X163906820Y-129242079D01*
X165354380Y-129242079D01*
X165354380Y-133343121D01*
X163906820Y-133343121D01*
G37*
X164311064Y-124687000D02*
X163856936Y-124687000D01*
X164311064Y-123217000D02*
X163856936Y-123217000D01*
X163041064Y-98017000D02*
X162586936Y-98017000D01*
X163041064Y-96547000D02*
X162586936Y-96547000D01*
G36*
X155700340Y-132088830D02*
G01*
X155695146Y-132142393D01*
X155679566Y-132192700D01*
X155622515Y-132277656D01*
X155537559Y-132334707D01*
X155487252Y-132350287D01*
X155433689Y-132355481D01*
X155380204Y-132350287D01*
X155330130Y-132334707D01*
X155245484Y-132277656D01*
X155188123Y-132192700D01*
X155172310Y-132142393D01*
X155167039Y-132088830D01*
X155167039Y-132000154D01*
X155700340Y-132000154D01*
X155700340Y-132088830D01*
G37*
G36*
X154714560Y-133343121D02*
G01*
X154714560Y-132088830D01*
X154989065Y-132088830D01*
X154993018Y-132149059D01*
X155004878Y-132206963D01*
X155024024Y-132261921D01*
X155049837Y-132313313D01*
X155081850Y-132360597D01*
X155119600Y-132403230D01*
X155162388Y-132440747D01*
X155209517Y-132472683D01*
X155260676Y-132498495D01*
X155315557Y-132517642D01*
X155373460Y-132529501D01*
X155433689Y-132533454D01*
X155493918Y-132529501D01*
X155551821Y-132517642D01*
X155606702Y-132498495D01*
X155657861Y-132472683D01*
X155704990Y-132440747D01*
X155747778Y-132403230D01*
X155785528Y-132360597D01*
X155817542Y-132313313D01*
X155843354Y-132261921D01*
X155862500Y-132206963D01*
X155874360Y-132149059D01*
X155878313Y-132088830D01*
X155878313Y-131820940D01*
X154989065Y-131820940D01*
X154989065Y-132088830D01*
X154714560Y-132088830D01*
X154714560Y-131655989D01*
X154989065Y-131655989D01*
X155878313Y-131655989D01*
X155878313Y-131465613D01*
X155292923Y-131122688D01*
X155878313Y-131122688D01*
X155878313Y-130944714D01*
X154989065Y-130944714D01*
X154989065Y-131135090D01*
X155575076Y-131478015D01*
X154989065Y-131478015D01*
X154989065Y-131655989D01*
X154714560Y-131655989D01*
X154714560Y-130510632D01*
X154979143Y-130510632D01*
X154986197Y-130591558D01*
X155007359Y-130669382D01*
X155041698Y-130742091D01*
X155088284Y-130807668D01*
X155243313Y-130714651D01*
X155206804Y-130671243D01*
X155179131Y-130621633D01*
X155161690Y-130567528D01*
X155155877Y-130510632D01*
X155161458Y-130454124D01*
X155178201Y-130401182D01*
X155204478Y-130353200D01*
X155238662Y-130311575D01*
X155280055Y-130277158D01*
X155327959Y-130250803D01*
X155380902Y-130234060D01*
X155437410Y-130228479D01*
X155494461Y-130234060D01*
X155547791Y-130250803D01*
X155596005Y-130277158D01*
X155637708Y-130311575D01*
X155672124Y-130353200D01*
X155698479Y-130401182D01*
X155715222Y-130454124D01*
X155720803Y-130510632D01*
X155712742Y-130575745D01*
X155690418Y-130635896D01*
X155437410Y-130635896D01*
X155437410Y-130807668D01*
X155788396Y-130807668D01*
X155834982Y-130742091D01*
X155869321Y-130669382D01*
X155890483Y-130591558D01*
X155897537Y-130510632D01*
X155893429Y-130448543D01*
X155881104Y-130388779D01*
X155861260Y-130332116D01*
X155834595Y-130279329D01*
X155801574Y-130230649D01*
X155762661Y-130186311D01*
X155718478Y-130147244D01*
X155669644Y-130114377D01*
X155616546Y-130087945D01*
X155559573Y-130068179D01*
X155499577Y-130055854D01*
X155437410Y-130051746D01*
X155375398Y-130055854D01*
X155315867Y-130068179D01*
X155259359Y-130087945D01*
X155206416Y-130114377D01*
X155157582Y-130147244D01*
X155113399Y-130186311D01*
X155074564Y-130230649D01*
X155041775Y-130279329D01*
X155015343Y-130332116D01*
X154995576Y-130388779D01*
X154983251Y-130448543D01*
X154979143Y-130510632D01*
X154714560Y-130510632D01*
X154714560Y-129242079D01*
X156162120Y-129242079D01*
X156162120Y-133343121D01*
X154714560Y-133343121D01*
G37*
G36*
X167921393Y-133343121D02*
G01*
X167921393Y-132330056D01*
X168185976Y-132330056D01*
X169075224Y-132037981D01*
X169075224Y-131860007D01*
X168185976Y-131569172D01*
X168185976Y-131771330D01*
X168779428Y-131948684D01*
X168185976Y-132126658D01*
X168185976Y-132330056D01*
X167921393Y-132330056D01*
X167921393Y-131486697D01*
X168185976Y-131486697D01*
X168363950Y-131486697D01*
X168363950Y-131097883D01*
X168516498Y-131081760D01*
X168516498Y-131244231D01*
X168521304Y-131298259D01*
X168535722Y-131349961D01*
X168559209Y-131397477D01*
X168591223Y-131438948D01*
X168631375Y-131473519D01*
X168679279Y-131500339D01*
X168734237Y-131517548D01*
X168795551Y-131523284D01*
X168857408Y-131517548D01*
X168912753Y-131500339D01*
X168960812Y-131473519D01*
X169000810Y-131438948D01*
X169032591Y-131397477D01*
X169056000Y-131349961D01*
X169070418Y-131298259D01*
X169075224Y-131244231D01*
X169075224Y-130885803D01*
X168897250Y-130885803D01*
X168897250Y-131244231D01*
X168891669Y-131280508D01*
X168873686Y-131313374D01*
X168842060Y-131336938D01*
X168795551Y-131345930D01*
X168751833Y-131336938D01*
X168720207Y-131313374D01*
X168700983Y-131280508D01*
X168694472Y-131244231D01*
X168694472Y-130885803D01*
X168185976Y-130937893D01*
X168185976Y-131486697D01*
X167921393Y-131486697D01*
X167921393Y-130600549D01*
X168358989Y-130600549D01*
X168541923Y-130600549D01*
X168541923Y-130776042D01*
X168710595Y-130776042D01*
X168710595Y-130600549D01*
X168879887Y-130600549D01*
X168879887Y-130431257D01*
X168710595Y-130431257D01*
X168710595Y-130255144D01*
X168541923Y-130255144D01*
X168541923Y-130431257D01*
X168358989Y-130431257D01*
X168358989Y-130600549D01*
X167921393Y-130600549D01*
X167921393Y-129242079D01*
X169339807Y-129242079D01*
X169339807Y-133343121D01*
X167921393Y-133343121D01*
G37*
X159993000Y-98473252D02*
X159993000Y-97950748D01*
X158523000Y-98473252D02*
X158523000Y-97950748D01*
X161263936Y-108821000D02*
X161718064Y-108821000D01*
X161263936Y-110291000D02*
X161718064Y-110291000D01*
X154205000Y-110325252D02*
X154205000Y-109802748D01*
X155675000Y-110325252D02*
X155675000Y-109802748D01*
G36*
X121960093Y-133343121D02*
G01*
X121960093Y-132330056D01*
X122224676Y-132330056D01*
X123113924Y-132037981D01*
X123113924Y-131860007D01*
X122224676Y-131569172D01*
X122224676Y-131771330D01*
X122818128Y-131948684D01*
X122224676Y-132126658D01*
X122224676Y-132330056D01*
X121960093Y-132330056D01*
X121960093Y-131486697D01*
X122224676Y-131486697D01*
X122402650Y-131486697D01*
X122402650Y-131097883D01*
X122555198Y-131081760D01*
X122555198Y-131244231D01*
X122560004Y-131298259D01*
X122574422Y-131349961D01*
X122597909Y-131397477D01*
X122629923Y-131438948D01*
X122670075Y-131473519D01*
X122717979Y-131500339D01*
X122772937Y-131517548D01*
X122834251Y-131523284D01*
X122896108Y-131517548D01*
X122951453Y-131500339D01*
X122999512Y-131473519D01*
X123039510Y-131438948D01*
X123071291Y-131397477D01*
X123094700Y-131349961D01*
X123109118Y-131298259D01*
X123113924Y-131244231D01*
X123113924Y-130885803D01*
X122935950Y-130885803D01*
X122935950Y-131244231D01*
X122930369Y-131280508D01*
X122912386Y-131313374D01*
X122880760Y-131336938D01*
X122834251Y-131345930D01*
X122790533Y-131336938D01*
X122758907Y-131313374D01*
X122739683Y-131280508D01*
X122733172Y-131244231D01*
X122733172Y-130885803D01*
X122224676Y-130937893D01*
X122224676Y-131486697D01*
X121960093Y-131486697D01*
X121960093Y-130600549D01*
X122397689Y-130600549D01*
X122580623Y-130600549D01*
X122580623Y-130776042D01*
X122749295Y-130776042D01*
X122749295Y-130600549D01*
X122918587Y-130600549D01*
X122918587Y-130431257D01*
X122749295Y-130431257D01*
X122749295Y-130255144D01*
X122580623Y-130255144D01*
X122580623Y-130431257D01*
X122397689Y-130431257D01*
X122397689Y-130600549D01*
X121960093Y-130600549D01*
X121960093Y-129242079D01*
X123378507Y-129242079D01*
X123378507Y-133343121D01*
X121960093Y-133343121D01*
G37*
G36*
X102551430Y-131029050D02*
G01*
X102546237Y-131082613D01*
X102530656Y-131132920D01*
X102473606Y-131217876D01*
X102388650Y-131274927D01*
X102338343Y-131290507D01*
X102284780Y-131295701D01*
X102231295Y-131290507D01*
X102181220Y-131274927D01*
X102096574Y-131217876D01*
X102039214Y-131132920D01*
X102023401Y-131082613D01*
X102018130Y-131029050D01*
X102018130Y-130940373D01*
X102551430Y-130940373D01*
X102551430Y-131029050D01*
G37*
G36*
X101575573Y-133343121D02*
G01*
X101575573Y-131824040D01*
X101840156Y-131824040D01*
X102729404Y-131824040D01*
X102729404Y-131646067D01*
X102018130Y-131646067D01*
X102018130Y-131557390D01*
X101840156Y-131557390D01*
X101840156Y-131824040D01*
X101575573Y-131824040D01*
X101575573Y-131029050D01*
X101840156Y-131029050D01*
X101844109Y-131089279D01*
X101855969Y-131147183D01*
X101875115Y-131202140D01*
X101900927Y-131253533D01*
X101932941Y-131300817D01*
X101970691Y-131343450D01*
X102013479Y-131380967D01*
X102060608Y-131412903D01*
X102111767Y-131438715D01*
X102166648Y-131457861D01*
X102224551Y-131469721D01*
X102284780Y-131473674D01*
X102345009Y-131469721D01*
X102402912Y-131457861D01*
X102457793Y-131438715D01*
X102508952Y-131412903D01*
X102556081Y-131380967D01*
X102598869Y-131343450D01*
X102636619Y-131300817D01*
X102668633Y-131253533D01*
X102694445Y-131202140D01*
X102713591Y-131147183D01*
X102725451Y-131089279D01*
X102729404Y-131029050D01*
X102729404Y-130761160D01*
X101840156Y-130761160D01*
X101840156Y-131029050D01*
X101575573Y-131029050D01*
X101575573Y-129242079D01*
X102993987Y-129242079D01*
X102993987Y-133343121D01*
X101575573Y-133343121D01*
G37*
X164628064Y-111107000D02*
X164173936Y-111107000D01*
X164628064Y-112577000D02*
X164173936Y-112577000D01*
X155183064Y-124687000D02*
X154728936Y-124687000D01*
X155183064Y-123217000D02*
X154728936Y-123217000D01*
G36*
X109739040Y-132088830D02*
G01*
X109733846Y-132142393D01*
X109718266Y-132192700D01*
X109661215Y-132277656D01*
X109576259Y-132334707D01*
X109525952Y-132350287D01*
X109472389Y-132355481D01*
X109418904Y-132350287D01*
X109368830Y-132334707D01*
X109284184Y-132277656D01*
X109226823Y-132192700D01*
X109211010Y-132142393D01*
X109205739Y-132088830D01*
X109205739Y-132000154D01*
X109739040Y-132000154D01*
X109739040Y-132088830D01*
G37*
G36*
X108753260Y-133343121D02*
G01*
X108753260Y-132088830D01*
X109027765Y-132088830D01*
X109031718Y-132149059D01*
X109043578Y-132206963D01*
X109062724Y-132261921D01*
X109088537Y-132313313D01*
X109120550Y-132360597D01*
X109158300Y-132403230D01*
X109201088Y-132440747D01*
X109248217Y-132472683D01*
X109299376Y-132498495D01*
X109354257Y-132517642D01*
X109412160Y-132529501D01*
X109472389Y-132533454D01*
X109532618Y-132529501D01*
X109590521Y-132517642D01*
X109645402Y-132498495D01*
X109696561Y-132472683D01*
X109743690Y-132440747D01*
X109786478Y-132403230D01*
X109824228Y-132360597D01*
X109856242Y-132313313D01*
X109882054Y-132261921D01*
X109901200Y-132206963D01*
X109913060Y-132149059D01*
X109917013Y-132088830D01*
X109917013Y-131820940D01*
X109027765Y-131820940D01*
X109027765Y-132088830D01*
X108753260Y-132088830D01*
X108753260Y-131655989D01*
X109027765Y-131655989D01*
X109917013Y-131655989D01*
X109917013Y-131465613D01*
X109331623Y-131122688D01*
X109917013Y-131122688D01*
X109917013Y-130944714D01*
X109027765Y-130944714D01*
X109027765Y-131135090D01*
X109613776Y-131478015D01*
X109027765Y-131478015D01*
X109027765Y-131655989D01*
X108753260Y-131655989D01*
X108753260Y-130510632D01*
X109017843Y-130510632D01*
X109024897Y-130591558D01*
X109046059Y-130669382D01*
X109080398Y-130742091D01*
X109126984Y-130807668D01*
X109282013Y-130714651D01*
X109245504Y-130671243D01*
X109217831Y-130621633D01*
X109200390Y-130567528D01*
X109194577Y-130510632D01*
X109200158Y-130454124D01*
X109216901Y-130401182D01*
X109243178Y-130353200D01*
X109277362Y-130311575D01*
X109318755Y-130277158D01*
X109366659Y-130250803D01*
X109419602Y-130234060D01*
X109476110Y-130228479D01*
X109533161Y-130234060D01*
X109586491Y-130250803D01*
X109634705Y-130277158D01*
X109676408Y-130311575D01*
X109710824Y-130353200D01*
X109737179Y-130401182D01*
X109753922Y-130454124D01*
X109759503Y-130510632D01*
X109751442Y-130575745D01*
X109729118Y-130635896D01*
X109476110Y-130635896D01*
X109476110Y-130807668D01*
X109827096Y-130807668D01*
X109873682Y-130742091D01*
X109908021Y-130669382D01*
X109929183Y-130591558D01*
X109936237Y-130510632D01*
X109932129Y-130448543D01*
X109919804Y-130388779D01*
X109899960Y-130332116D01*
X109873295Y-130279329D01*
X109840274Y-130230649D01*
X109801361Y-130186311D01*
X109757178Y-130147244D01*
X109708344Y-130114377D01*
X109655246Y-130087945D01*
X109598273Y-130068179D01*
X109538277Y-130055854D01*
X109476110Y-130051746D01*
X109414098Y-130055854D01*
X109354567Y-130068179D01*
X109298059Y-130087945D01*
X109245116Y-130114377D01*
X109196282Y-130147244D01*
X109152099Y-130186311D01*
X109113264Y-130230649D01*
X109080475Y-130279329D01*
X109054043Y-130332116D01*
X109034276Y-130388779D01*
X109021951Y-130448543D01*
X109017843Y-130510632D01*
X108753260Y-130510632D01*
X108753260Y-129242079D01*
X110200820Y-129242079D01*
X110200820Y-133343121D01*
X108753260Y-133343121D01*
G37*
X122962936Y-123217000D02*
X123417064Y-123217000D01*
X122962936Y-124687000D02*
X123417064Y-124687000D01*
X165107252Y-106535000D02*
X164584748Y-106535000D01*
X165107252Y-108005000D02*
X164584748Y-108005000D01*
X159739000Y-92280748D02*
X159739000Y-92803252D01*
X158269000Y-92280748D02*
X158269000Y-92803252D01*
X141266936Y-124687000D02*
X141721064Y-124687000D01*
X141266936Y-123217000D02*
X141721064Y-123217000D01*
%LPC*%
D13*
X127858810Y-126926000D03*
D14*
X129858810Y-126926000D03*
X131858810Y-126926000D03*
D15*
X93730000Y-118900000D03*
D16*
X93730000Y-122400000D03*
D13*
X100284922Y-126926000D03*
D14*
X102284922Y-126926000D03*
X104284922Y-126926000D03*
D17*
X176022000Y-90170000D03*
D13*
X164624000Y-126926000D03*
D14*
X166624000Y-126926000D03*
X168624000Y-126926000D03*
D17*
X93218000Y-130302000D03*
D18*
X131318000Y-89662000D03*
X131318000Y-122682000D03*
X100838000Y-122682000D03*
X100838000Y-89662000D03*
D19*
X131318000Y-118872000D03*
D20*
X131318000Y-116332000D03*
X131318000Y-113792000D03*
X131318000Y-111252000D03*
X131318000Y-108712000D03*
X131318000Y-106172000D03*
X131318000Y-103632000D03*
X131318000Y-101092000D03*
X131318000Y-98552000D03*
X131318000Y-96012000D03*
X131318000Y-93472000D03*
D17*
X93218000Y-90170000D03*
D13*
X137050106Y-126926000D03*
D14*
X139050106Y-126926000D03*
X141050106Y-126926000D03*
D13*
X146241402Y-126926000D03*
D14*
X148241402Y-126926000D03*
X150241402Y-126926000D03*
D13*
X109476218Y-126926000D03*
D14*
X111476218Y-126926000D03*
X113476218Y-126926000D03*
D21*
X169810000Y-97115000D03*
D22*
X169810000Y-92115000D03*
X169810000Y-94615000D03*
D23*
X162310000Y-100215000D03*
X162310000Y-89015000D03*
D22*
X155310000Y-92115000D03*
X155310000Y-97115000D03*
D24*
X136906000Y-88392000D03*
X136906000Y-90932000D03*
X136906000Y-93472000D03*
X136906000Y-96012000D03*
X136906000Y-98552000D03*
X136906000Y-101092000D03*
X136906000Y-103632000D03*
X136906000Y-106172000D03*
X136906000Y-108712000D03*
X136906000Y-111252000D03*
X136906000Y-113792000D03*
X136906000Y-116332000D03*
X136906000Y-118872000D03*
X136906000Y-121412000D03*
X152146000Y-121412000D03*
X152146000Y-118872000D03*
X152146000Y-116332000D03*
X152146000Y-113792000D03*
X152146000Y-111252000D03*
X152146000Y-108712000D03*
X152146000Y-106172000D03*
X152146000Y-103632000D03*
X152146000Y-101092000D03*
X152146000Y-98552000D03*
X152146000Y-96012000D03*
X152146000Y-93472000D03*
X152146000Y-90932000D03*
X152146000Y-88392000D03*
D25*
X170212000Y-105918000D03*
D26*
X170212000Y-108458000D03*
D13*
X118667514Y-126926000D03*
D14*
X120667514Y-126926000D03*
X122667514Y-126926000D03*
D17*
X176022000Y-130302000D03*
D19*
X175112500Y-118110000D03*
X168112500Y-118110000D03*
D13*
X155432698Y-126926000D03*
D14*
X157432698Y-126926000D03*
X159432698Y-126926000D03*
D27*
X113046000Y-123952000D03*
X115046000Y-123952000D03*
X134144000Y-123952000D03*
X136144000Y-123952000D03*
D28*
X166116000Y-99298000D03*
X166116000Y-97298000D03*
D27*
X161814000Y-93472000D03*
X163814000Y-93472000D03*
D29*
X155765000Y-106402500D03*
X155765000Y-104327500D03*
D30*
X158242000Y-109026500D03*
X158242000Y-111101500D03*
D28*
X160591000Y-113742000D03*
X160591000Y-111742000D03*
D31*
X163808500Y-104394000D03*
X165883500Y-104394000D03*
D27*
X103902000Y-123952000D03*
X105902000Y-123952000D03*
D32*
X146812000Y-123952000D03*
X144812000Y-123952000D03*
D33*
X158532500Y-107372000D03*
X158532500Y-106972000D03*
X158532500Y-106572000D03*
X158532500Y-106172000D03*
X158532500Y-105772000D03*
X158532500Y-105372000D03*
X158532500Y-104972000D03*
X161507500Y-104972000D03*
X161507500Y-105372000D03*
X161507500Y-105772000D03*
X161507500Y-106172000D03*
X161507500Y-106572000D03*
X161507500Y-106972000D03*
X161507500Y-107372000D03*
D34*
X160020000Y-106172000D03*
D35*
X166116000Y-90440000D03*
X166116000Y-92440000D03*
D36*
X148658500Y-103247000D03*
X148658500Y-103897000D03*
X148658500Y-104547000D03*
X148658500Y-105197000D03*
X148658500Y-105847000D03*
X148658500Y-106497000D03*
X148658500Y-107147000D03*
X148658500Y-107797000D03*
X148658500Y-108447000D03*
X148658500Y-109097000D03*
X142933500Y-109097000D03*
X142933500Y-108447000D03*
X142933500Y-107797000D03*
X142933500Y-107147000D03*
X142933500Y-106497000D03*
X142933500Y-105847000D03*
X142933500Y-105197000D03*
X142933500Y-104547000D03*
X142933500Y-103897000D03*
X142933500Y-103247000D03*
D37*
X143637000Y-101346000D03*
X141562000Y-101346000D03*
D32*
X165084000Y-123952000D03*
X163084000Y-123952000D03*
X163814000Y-97282000D03*
X161814000Y-97282000D03*
D29*
X159258000Y-99249500D03*
X159258000Y-97174500D03*
D27*
X160491000Y-109556000D03*
X162491000Y-109556000D03*
D29*
X154940000Y-111101500D03*
X154940000Y-109026500D03*
D32*
X165401000Y-111842000D03*
X163401000Y-111842000D03*
X155956000Y-123952000D03*
X153956000Y-123952000D03*
D27*
X122190000Y-123952000D03*
X124190000Y-123952000D03*
D37*
X165883500Y-107270000D03*
X163808500Y-107270000D03*
D30*
X159004000Y-91504500D03*
X159004000Y-93579500D03*
D27*
X140494000Y-123952000D03*
X142494000Y-123952000D03*
M02*
