%TF.GenerationSoftware,KiCad,Pcbnew,(6.0.6)*%
%TF.CreationDate,2022-06-26T20:30:04-07:00*%
%TF.ProjectId,led_controller-rounded,6c65645f-636f-46e7-9472-6f6c6c65722d,rev?*%
%TF.SameCoordinates,Original*%
%TF.FileFunction,Paste,Bot*%
%TF.FilePolarity,Positive*%
%FSLAX46Y46*%
G04 Gerber Fmt 4.6, Leading zero omitted, Abs format (unit mm)*
G04 Created by KiCad (PCBNEW (6.0.6)) date 2022-06-26 20:30:04*
%MOMM*%
%LPD*%
G01*
G04 APERTURE LIST*
G04 Aperture macros list*
%AMRoundRect*
0 Rectangle with rounded corners*
0 $1 Rounding radius*
0 $2 $3 $4 $5 $6 $7 $8 $9 X,Y pos of 4 corners*
0 Add a 4 corners polygon primitive as box body*
4,1,4,$2,$3,$4,$5,$6,$7,$8,$9,$2,$3,0*
0 Add four circle primitives for the rounded corners*
1,1,$1+$1,$2,$3*
1,1,$1+$1,$4,$5*
1,1,$1+$1,$6,$7*
1,1,$1+$1,$8,$9*
0 Add four rect primitives between the rounded corners*
20,1,$1+$1,$2,$3,$4,$5,0*
20,1,$1+$1,$4,$5,$6,$7,0*
20,1,$1+$1,$6,$7,$8,$9,0*
20,1,$1+$1,$8,$9,$2,$3,0*%
G04 Aperture macros list end*
%ADD10RoundRect,0.250000X-0.350000X-0.450000X0.350000X-0.450000X0.350000X0.450000X-0.350000X0.450000X0*%
%ADD11RoundRect,0.250000X0.450000X-0.350000X0.450000X0.350000X-0.450000X0.350000X-0.450000X-0.350000X0*%
%ADD12RoundRect,0.250000X0.475000X-0.337500X0.475000X0.337500X-0.475000X0.337500X-0.475000X-0.337500X0*%
%ADD13RoundRect,0.250000X-0.475000X0.337500X-0.475000X-0.337500X0.475000X-0.337500X0.475000X0.337500X0*%
%ADD14RoundRect,0.250000X-0.337500X-0.475000X0.337500X-0.475000X0.337500X0.475000X-0.337500X0.475000X0*%
%ADD15RoundRect,0.250000X0.350000X0.450000X-0.350000X0.450000X-0.350000X-0.450000X0.350000X-0.450000X0*%
%ADD16RoundRect,0.192500X-0.192500X-0.317500X0.192500X-0.317500X0.192500X0.317500X-0.192500X0.317500X0*%
%ADD17RoundRect,0.050000X-0.337500X-0.050000X0.337500X-0.050000X0.337500X0.050000X-0.337500X0.050000X0*%
%ADD18RoundRect,0.250000X-0.450000X0.350000X-0.450000X-0.350000X0.450000X-0.350000X0.450000X0.350000X0*%
%ADD19RoundRect,0.100000X0.637500X0.100000X-0.637500X0.100000X-0.637500X-0.100000X0.637500X-0.100000X0*%
%ADD20RoundRect,0.250000X0.337500X0.475000X-0.337500X0.475000X-0.337500X-0.475000X0.337500X-0.475000X0*%
G04 APERTURE END LIST*
D10*
X113046000Y-123952000D03*
X115046000Y-123952000D03*
X134144000Y-123952000D03*
X136144000Y-123952000D03*
D11*
X166116000Y-99298000D03*
X166116000Y-97298000D03*
D10*
X161814000Y-93472000D03*
X163814000Y-93472000D03*
D12*
X155765000Y-106402500D03*
X155765000Y-104327500D03*
D13*
X158242000Y-109026500D03*
X158242000Y-111101500D03*
D11*
X160591000Y-113742000D03*
X160591000Y-111742000D03*
D14*
X163808500Y-104394000D03*
X165883500Y-104394000D03*
D10*
X103902000Y-123952000D03*
X105902000Y-123952000D03*
D15*
X146812000Y-123952000D03*
X144812000Y-123952000D03*
D16*
X159575000Y-106762000D03*
X159575000Y-105582000D03*
X160465000Y-106762000D03*
X160465000Y-105582000D03*
D17*
X158532500Y-107372000D03*
X158532500Y-106972000D03*
X158532500Y-106572000D03*
X158532500Y-106172000D03*
X158532500Y-105772000D03*
X158532500Y-105372000D03*
X158532500Y-104972000D03*
X161507500Y-104972000D03*
X161507500Y-105372000D03*
X161507500Y-105772000D03*
X161507500Y-106172000D03*
X161507500Y-106572000D03*
X161507500Y-106972000D03*
X161507500Y-107372000D03*
D18*
X166116000Y-90440000D03*
X166116000Y-92440000D03*
D19*
X148658500Y-103247000D03*
X148658500Y-103897000D03*
X148658500Y-104547000D03*
X148658500Y-105197000D03*
X148658500Y-105847000D03*
X148658500Y-106497000D03*
X148658500Y-107147000D03*
X148658500Y-107797000D03*
X148658500Y-108447000D03*
X148658500Y-109097000D03*
X142933500Y-109097000D03*
X142933500Y-108447000D03*
X142933500Y-107797000D03*
X142933500Y-107147000D03*
X142933500Y-106497000D03*
X142933500Y-105847000D03*
X142933500Y-105197000D03*
X142933500Y-104547000D03*
X142933500Y-103897000D03*
X142933500Y-103247000D03*
D20*
X143637000Y-101346000D03*
X141562000Y-101346000D03*
D15*
X165084000Y-123952000D03*
X163084000Y-123952000D03*
X163814000Y-97282000D03*
X161814000Y-97282000D03*
D12*
X159258000Y-99249500D03*
X159258000Y-97174500D03*
D10*
X160491000Y-109556000D03*
X162491000Y-109556000D03*
D12*
X154940000Y-111101500D03*
X154940000Y-109026500D03*
D15*
X165401000Y-111842000D03*
X163401000Y-111842000D03*
X155956000Y-123952000D03*
X153956000Y-123952000D03*
D10*
X122190000Y-123952000D03*
X124190000Y-123952000D03*
D20*
X165883500Y-107270000D03*
X163808500Y-107270000D03*
D13*
X159004000Y-91504500D03*
X159004000Y-93579500D03*
D10*
X140494000Y-123952000D03*
X142494000Y-123952000D03*
M02*
