M48
; DRILL file {KiCad (6.0.9)} date Thu Dec 29 20:38:50 2022
; FORMAT={-:-/ absolute / metric / decimal}
; #@! TF.CreationDate,2022-12-29T20:38:50-05:00
; #@! TF.GenerationSoftware,Kicad,Pcbnew,(6.0.9)
; #@! TF.FileFunction,Plated,1,2,PTH
FMAT,2
METRIC
; #@! TA.AperFunction,Plated,PTH,ViaDrill
T1C0.200
; #@! TA.AperFunction,Plated,PTH,ComponentDrill
T2C0.200
; #@! TA.AperFunction,Plated,PTH,ViaDrill
T3C0.400
; #@! TA.AperFunction,Plated,PTH,ComponentDrill
T4C0.750
; #@! TA.AperFunction,Plated,PTH,ComponentDrill
T5C0.870
; #@! TA.AperFunction,Plated,PTH,ComponentDrill
T6C0.889
; #@! TA.AperFunction,Plated,PTH,ComponentDrill
T7C1.000
; #@! TA.AperFunction,Plated,PTH,ComponentDrill
T8C1.100
; #@! TA.AperFunction,Plated,PTH,ComponentDrill
T9C1.200
; #@! TA.AperFunction,Plated,PTH,ComponentDrill
T10C1.500
; #@! TA.AperFunction,Plated,PTH,ComponentDrill
T11C3.200
%
G90
G05
T1
X163.59Y-105.21
T2
X160.128Y-104.485
X160.128Y-105.41
X160.128Y-106.335
X160.928Y-104.485
X160.928Y-105.41
X160.928Y-106.335
T3
X98.812Y-90.047
X98.812Y-93.047
X98.812Y-96.047
X98.812Y-99.047
X98.812Y-102.047
X98.812Y-105.047
X98.812Y-108.047
X98.812Y-111.047
X98.812Y-114.047
X98.812Y-117.047
X98.812Y-120.047
X98.812Y-123.047
X101.812Y-93.047
X101.812Y-96.047
X101.812Y-99.047
X101.812Y-102.047
X101.812Y-105.047
X101.812Y-108.047
X101.812Y-111.047
X101.812Y-114.047
X101.812Y-117.047
X101.812Y-120.047
X104.812Y-90.047
X104.812Y-93.047
X104.812Y-96.047
X104.812Y-99.047
X104.812Y-102.047
X104.812Y-105.047
X104.812Y-108.047
X104.812Y-111.047
X104.812Y-114.047
X104.812Y-117.047
X104.812Y-120.047
X107.812Y-90.047
X107.812Y-93.047
X107.812Y-96.047
X107.812Y-99.047
X107.812Y-102.047
X107.812Y-105.047
X107.812Y-108.047
X107.812Y-111.047
X107.812Y-114.047
X107.812Y-117.047
X107.812Y-120.047
X107.812Y-123.047
X107.812Y-126.047
X110.812Y-90.047
X110.812Y-93.047
X110.812Y-96.047
X110.812Y-99.047
X110.812Y-102.047
X110.812Y-105.047
X110.812Y-108.047
X110.812Y-111.047
X110.812Y-114.047
X110.812Y-117.047
X110.812Y-120.047
X113.812Y-90.047
X113.812Y-93.047
X113.812Y-96.047
X113.812Y-99.047
X113.812Y-102.047
X113.812Y-105.047
X113.812Y-108.047
X113.812Y-111.047
X113.812Y-114.047
X113.812Y-117.047
X116.812Y-90.047
X116.812Y-93.047
X116.812Y-96.047
X116.812Y-99.047
X116.812Y-102.047
X116.812Y-105.047
X116.812Y-108.047
X116.812Y-111.047
X116.812Y-114.047
X116.812Y-120.047
X116.812Y-126.047
X119.812Y-90.047
X119.812Y-93.047
X119.812Y-96.047
X119.812Y-99.047
X119.812Y-102.047
X119.812Y-105.047
X119.812Y-108.047
X119.812Y-111.047
X119.812Y-114.047
X119.812Y-117.047
X119.812Y-123.047
X122.812Y-90.047
X122.812Y-93.047
X122.812Y-96.047
X122.812Y-99.047
X122.812Y-102.047
X122.812Y-105.047
X122.812Y-108.047
X122.812Y-111.047
X122.812Y-114.047
X122.812Y-120.047
X125.812Y-90.047
X125.812Y-93.047
X125.812Y-96.047
X125.812Y-99.047
X125.812Y-102.047
X125.812Y-105.047
X125.812Y-108.047
X125.812Y-111.047
X125.812Y-114.047
X125.812Y-120.047
X125.812Y-126.047
X128.812Y-90.047
X128.812Y-93.047
X128.812Y-96.047
X128.812Y-99.047
X128.812Y-102.047
X128.812Y-105.047
X128.812Y-108.047
X128.812Y-111.047
X128.812Y-114.047
X128.812Y-123.047
X134.812Y-90.047
X134.812Y-93.047
X134.812Y-126.047
X140.716Y-114.046
X140.716Y-116.84
X140.812Y-90.047
X140.812Y-93.047
X140.812Y-111.047
X143.812Y-90.047
X143.812Y-93.047
X143.812Y-96.047
X143.812Y-99.047
X143.812Y-120.047
X143.812Y-126.047
X146.812Y-90.047
X146.812Y-93.047
X146.812Y-96.047
X146.812Y-99.047
X148.844Y-121.412
X150.368Y-116.078
X152.812Y-126.047
X153.729Y-102.066
X153.729Y-106.072
X155.812Y-90.047
X156.718Y-108.204
X158.812Y-90.047
X158.812Y-96.047
X159.004Y-114.046
X159.004Y-115.824
X160.534Y-121.406
X161.812Y-96.047
X161.812Y-126.047
X164.812Y-90.047
X164.812Y-96.047
X164.812Y-114.047
X164.812Y-120.047
X167.64Y-109.474
X167.812Y-96.047
X167.812Y-123.047
X170.812Y-102.047
X170.812Y-105.047
X170.812Y-108.047
X170.812Y-111.047
X170.812Y-117.047
X170.812Y-120.047
X170.812Y-123.047
X170.812Y-126.047
X173.812Y-93.047
X173.812Y-96.047
X173.812Y-108.047
X173.812Y-111.047
X173.812Y-114.047
X173.812Y-117.047
X173.812Y-126.047
X176.812Y-93.047
X176.812Y-96.047
X176.812Y-102.047
X176.812Y-105.047
X176.812Y-111.047
X176.812Y-117.047
X176.812Y-120.047
X176.812Y-123.047
X176.812Y-126.047
T4
X100.285Y-126.926
X102.285Y-126.926
X104.285Y-126.926
X109.476Y-126.926
X111.476Y-126.926
X113.476Y-126.926
X118.668Y-126.926
X120.668Y-126.926
X122.668Y-126.926
X127.859Y-126.926
X129.859Y-126.926
X131.859Y-126.926
X137.05Y-126.926
X139.05Y-126.926
X141.05Y-126.926
X146.241Y-126.926
X148.241Y-126.926
X150.241Y-126.926
X155.433Y-126.926
X157.433Y-126.926
X159.433Y-126.926
X164.624Y-126.926
X166.624Y-126.926
X168.624Y-126.926
T5
X169.513Y-105.791
X169.513Y-108.331
T6
X175.641Y-100.945
X175.641Y-108.945
T7
X131.318Y-93.472
X131.318Y-96.012
X131.318Y-98.552
X131.318Y-101.092
X131.318Y-103.632
X131.318Y-106.172
X131.318Y-108.712
X131.318Y-111.252
X131.318Y-113.792
X131.318Y-116.332
X131.318Y-118.872
X155.31Y-92.115
X155.31Y-97.115
X169.81Y-92.115
X169.81Y-94.615
X169.81Y-97.115
T8
X136.906Y-88.392
X136.906Y-90.932
X136.906Y-93.472
X136.906Y-96.012
X136.906Y-98.552
X136.906Y-101.092
X136.906Y-103.632
X136.906Y-106.172
X136.906Y-108.712
X136.906Y-111.252
X136.906Y-113.792
X136.906Y-116.332
X136.906Y-118.872
X136.906Y-121.412
X152.146Y-88.392
X152.146Y-90.932
X152.146Y-93.472
X152.146Y-96.012
X152.146Y-98.552
X152.146Y-101.092
X152.146Y-103.632
X152.146Y-106.172
X152.146Y-108.712
X152.146Y-111.252
X152.146Y-113.792
X152.146Y-116.332
X152.146Y-118.872
X152.146Y-121.412
T9
X93.73Y-118.9
X93.73Y-122.4
T11
X93.218Y-90.17
X93.218Y-130.302
X176.022Y-90.17
X176.022Y-130.302
T10
X162.96Y-89.015G85X161.66Y-89.015
G05
X162.96Y-100.215G85X161.66Y-100.215
G05
T0
M30
